<svg width="39" height="18" viewBox="0 0 39 18" fill="none" xmlns="http://www.w3.org/2000/svg">
<g clip-path="url(#clip0)">
<path d="M5.64487 3.92258C5.64487 3.92258 4.28249 3.92258 3.04864 5.12558V0.282715H0V12.9965H3.08463V11.9992C3.08463 11.9992 3.80952 13.3153 5.64487 13.3153C5.64487 13.3153 9.94793 13.1559 9.94793 8.57009C9.94793 8.57009 9.78856 3.92258 5.64487 3.92258ZM4.97654 10.6316C3.89178 10.6316 3.01266 9.75253 3.01266 8.66777C3.01266 7.58301 3.89178 6.70903 4.97654 6.70903C6.0613 6.70903 6.93528 7.58815 6.93528 8.66777C6.93528 9.75253 6.05616 10.6316 4.97654 10.6316Z" fill="#5F5D5B"/>
<path d="M10.9299 0V2.94068C10.9299 2.94068 12.3232 2.87899 12.3232 5.47008V12.9966H15.2638V4.77603C15.2638 4.77603 15.3872 0 10.9299 0Z" fill="#5F5D5B"/>
<path d="M22.4561 3.96387C22.4561 3.96387 17.4127 3.96387 17.4127 8.67307C17.4127 8.67307 17.2482 13.3206 22.4561 13.3206C22.4561 13.3206 27.6125 13.3154 27.6125 8.67307C27.6125 8.67307 27.7822 3.96387 22.4561 3.96387ZM22.4561 10.6318C21.3713 10.6318 20.4922 9.75269 20.4922 8.66793C20.4922 7.58317 21.3713 6.70919 22.4561 6.70919C23.5408 6.70919 24.4148 7.58831 24.4148 8.66793C24.4148 9.75269 23.5357 10.6318 22.4561 10.6318Z" fill="#5F5D5B"/>
<path d="M36.0335 4.27228V5.12569C36.0335 5.12569 35.1544 3.96382 33.4733 3.96382C33.4733 3.96382 29.1548 3.77874 29.1548 8.64217C29.1548 8.64217 29.1085 13.1714 33.355 13.1714C33.355 13.1714 35.0876 13.2434 36.0335 12.0096V12.7242C36.0335 12.7242 36.2495 14.9554 34.0902 14.9554H33.355V17.6596H34.5426C34.5426 17.6596 38.9999 17.7058 38.9999 12.8938V4.27228H36.0335ZM34.2085 10.6318C33.1237 10.6318 32.2497 9.75264 32.2497 8.66788C32.2497 7.58312 33.1288 6.70914 34.2085 6.70914C35.2932 6.70914 36.1672 7.58826 36.1672 8.66788C36.1723 9.75264 35.2932 10.6318 34.2085 10.6318Z" fill="#5F5D5B"/>
</g>
<defs>
<clipPath id="clip0">
<rect width="39" height="17.6492" fill="white"/>
</clipPath>
</defs>
</svg>
