<svg width="26" height="28" viewBox="0 0 26 28" fill="none" xmlns="http://www.w3.org/2000/svg">
<path d="M9.41847 24.9825V21.1604C9.41847 20.1847 10.2152 19.3938 11.198 19.3938H14.7908C15.2627 19.3938 15.7154 19.5799 16.0491 19.9112C16.3828 20.2425 16.5703 20.6918 16.5703 21.1604V24.9825C16.5674 25.3882 16.7276 25.7782 17.0155 26.0661C17.3033 26.354 17.6951 26.5159 18.1037 26.5159H20.5548C21.6995 26.5188 22.7984 26.0694 23.609 25.2669C24.4195 24.4643 24.875 23.3746 24.875 22.2381V11.3494C24.875 10.4314 24.4651 9.56067 23.7558 8.9717L15.4175 2.36071C13.9671 1.20157 11.8889 1.239 10.4817 2.44959L2.33377 8.9717C1.59093 9.54331 1.14694 10.4167 1.125 11.3494V22.227C1.125 24.5957 3.05923 26.5159 5.44522 26.5159H7.84036C8.68903 26.5159 9.37875 25.8361 9.3849 24.9937L9.41847 24.9825Z" fill="white" stroke="black" stroke-width="1.5"/>
</svg>
