<svg width="22" height="16" viewBox="0 0 22 16" fill="none" xmlns="http://www.w3.org/2000/svg">
<path d="M21.0833 8.86141H0.916667C0.410781 8.86141 0 8.45063 0 7.94474C0 7.43886 0.410781 7.02808 0.916667 7.02808H21.0833C21.5892 7.02808 22 7.43886 22 7.94474C22 8.45063 21.5892 8.86141 21.0833 8.86141Z" fill="black"/>
<path d="M21.0833 1.83333H0.916667C0.410781 1.83333 0 1.42255 0 0.916667C0 0.410781 0.410781 0 0.916667 0H21.0833C21.5892 0 22 0.410781 22 0.916667C22 1.42255 21.5892 1.83333 21.0833 1.83333Z" fill="black"/>
<path d="M21.0833 15.8888H0.916667C0.410781 15.8888 0 15.478 0 14.9721C0 14.4662 0.410781 14.0554 0.916667 14.0554H21.0833C21.5892 14.0554 22 14.4662 22 14.9721C22 15.478 21.5892 15.8888 21.0833 15.8888Z" fill="black"/>
</svg>
