<svg width="143" height="39" viewBox="0 0 143 39" fill="none" xmlns="http://www.w3.org/2000/svg">
<g clip-path="url(#clip0)">
<path d="M22.6574 17.7397C22.6316 13.5172 26.1075 11.4831 26.262 11.3801C24.3052 8.49646 21.2413 8.11025 20.1599 8.0845C17.5852 7.82703 15.0877 9.62933 13.7746 9.62933C12.4357 9.62933 10.4275 8.11025 8.23895 8.16174C5.45826 8.18749 2.83204 9.80956 1.41594 12.3328C-1.54498 17.4565 0.669275 25.0004 3.50147 29.1457C4.91756 31.1797 6.59113 33.4455 8.7539 33.3683C10.8909 33.291 11.6633 32.0037 14.2381 32.0037C16.787 32.0037 17.5337 33.3683 19.748 33.3168C22.0395 33.291 23.4556 31.2827 24.8459 29.223C26.4937 26.9057 27.1374 24.6142 27.1632 24.4855C27.0859 24.4597 22.7089 22.7862 22.6574 17.7397Z" fill="#434343"/>
<path d="M18.4863 5.35542C19.6192 3.91358 20.4174 1.98254 20.1857 0C18.5378 0.0772416 16.4781 1.13288 15.2679 2.54897C14.2123 3.78484 13.2597 5.79312 13.5171 7.69842C15.3709 7.82715 17.302 6.74577 18.4863 5.35542Z" fill="#434343"/>
<path d="M53.4254 33.0594H50.4645L48.8424 27.9357H43.178L41.6332 33.0594H38.7495L44.3624 15.6543H47.8125L53.4254 33.0594ZM48.3275 25.7987L46.8599 21.2672C46.7054 20.8037 46.4222 19.6966 45.9845 17.9973H45.933C45.7528 18.744 45.4953 19.8253 45.1091 21.2672L43.6672 25.7987H48.3275Z" fill="#434343"/>
<path d="M67.8182 26.6223C67.8182 28.7593 67.2518 30.4328 66.0932 31.6945C65.0633 32.8016 63.7759 33.3423 62.2569 33.3423C60.609 33.3423 59.4247 32.7501 58.7037 31.5657H58.6522V38.1828H55.8715V24.6397C55.8715 23.3009 55.8458 21.9105 55.7686 20.5202H58.2145L58.369 22.5027H58.4205C59.3474 21.0094 60.7635 20.2627 62.6431 20.2627C64.1364 20.2627 65.3465 20.8549 66.3507 22.0135C67.329 23.1721 67.8182 24.717 67.8182 26.6223ZM64.9861 26.7252C64.9861 25.5151 64.7028 24.4852 64.1621 23.7128C63.57 22.8889 62.746 22.477 61.7419 22.477C61.0467 22.477 60.4288 22.7087 59.8624 23.1721C59.2959 23.6356 58.9355 24.2278 58.7552 24.9744C58.678 25.3091 58.6265 25.5924 58.6265 25.8241V27.9096C58.6265 28.8108 58.9097 29.5832 59.4762 30.2269C60.0426 30.8448 60.7635 31.1795 61.6647 31.1795C62.7203 31.1795 63.5442 30.7676 64.1106 29.9694C64.7028 29.1197 64.9861 28.0641 64.9861 26.7252Z" fill="#434343"/>
<path d="M82.2623 26.6223C82.2623 28.7593 81.6959 30.4328 80.5373 31.6945C79.5074 32.8016 78.22 33.3423 76.7009 33.3423C75.0531 33.3423 73.8687 32.7501 73.1478 31.5657H73.0963V38.1828H70.3156V24.6397C70.3156 23.3009 70.2899 21.9105 70.2126 20.5202H72.6586L72.8131 22.5027H72.8646C73.7915 21.0094 75.2076 20.2627 77.0872 20.2627C78.5547 20.2627 79.7906 20.8549 80.7947 22.0135C81.7474 23.1721 82.2623 24.717 82.2623 26.6223ZM79.4044 26.7252C79.4044 25.5151 79.1212 24.4852 78.5805 23.7128C77.9883 22.8889 77.1644 22.477 76.1603 22.477C75.4651 22.477 74.8471 22.7087 74.2807 23.1721C73.7143 23.6356 73.3538 24.2278 73.1736 24.9744C73.0963 25.3091 73.0448 25.5924 73.0448 25.8241V27.9096C73.0448 28.8108 73.3281 29.5832 73.8945 30.2269C74.4609 30.8448 75.1819 31.1795 76.083 31.1795C77.1386 31.1795 77.9626 30.7676 78.529 29.9694C79.1212 29.1197 79.4044 28.0641 79.4044 26.7252Z" fill="#434343"/>
<path d="M98.3801 28.1931C98.3801 29.6607 97.8652 30.8708 96.8353 31.7977C95.7024 32.8018 94.1318 33.3168 92.0978 33.3168C90.2183 33.3168 88.7249 32.9563 87.592 32.2354L88.2357 29.9182C89.4716 30.6648 90.8104 31.0253 92.278 31.0253C93.3337 31.0253 94.1318 30.7936 94.724 30.3044C95.3162 29.8409 95.5994 29.1972 95.5994 28.3991C95.5994 27.7039 95.3677 27.086 94.8785 26.6225C94.3893 26.1333 93.5911 25.6956 92.484 25.2837C89.4458 24.1508 87.9268 22.4772 87.9268 20.2887C87.9268 18.8469 88.4674 17.6882 89.5231 16.7613C90.5787 15.8602 91.9948 15.3967 93.7714 15.3967C95.3677 15.3967 96.6808 15.6799 97.7107 16.2206L97.0155 18.4864C96.0371 17.9457 94.93 17.6882 93.6941 17.6882C92.7157 17.6882 91.9433 17.92 91.4026 18.4092C90.9392 18.8469 90.7075 19.3618 90.7075 19.9797C90.7075 20.6749 90.9649 21.2413 91.5056 21.679C91.9691 22.091 92.8187 22.5287 94.0288 23.0179C95.5222 23.6101 96.6293 24.331 97.3245 25.1292C98.0454 25.9788 98.3801 26.983 98.3801 28.1931Z" fill="#434343"/>
<path d="M107.597 22.606H104.534V28.7081C104.534 30.2529 105.074 31.0253 106.156 31.0253C106.645 31.0253 107.057 30.9738 107.392 30.8966L107.469 33.0078C106.928 33.2138 106.207 33.3168 105.306 33.3168C104.199 33.3168 103.349 32.9821 102.731 32.3127C102.113 31.6432 101.804 30.5104 101.804 28.9398V22.606H99.9763V20.5204H101.804V18.2289L104.534 17.405V20.5204H107.597V22.606Z" fill="#434343"/>
<path d="M121.475 26.6995C121.475 28.6305 120.935 30.2011 119.828 31.437C118.669 32.7243 117.15 33.3423 115.219 33.3423C113.365 33.3423 111.897 32.7243 110.816 31.5142C109.735 30.3041 109.168 28.7593 109.168 26.8797C109.168 24.9487 109.735 23.3524 110.868 22.1165C112 20.8806 113.519 20.2627 115.425 20.2627C117.253 20.2627 118.746 20.8806 119.853 22.0907C120.935 23.2751 121.475 24.82 121.475 26.6995ZM118.566 26.7767C118.566 25.6181 118.308 24.6397 117.819 23.7901C117.227 22.7859 116.403 22.2967 115.322 22.2967C114.189 22.2967 113.339 22.7859 112.773 23.7901C112.284 24.614 112.026 25.6181 112.026 26.8282C112.026 27.9869 112.284 28.9653 112.773 29.8149C113.365 30.8191 114.215 31.3082 115.296 31.3082C116.352 31.3082 117.201 30.7933 117.794 29.7892C118.308 28.9395 118.566 27.9354 118.566 26.7767Z" fill="#434343"/>
<path d="M130.538 22.9662C130.255 22.9147 129.972 22.8889 129.663 22.8889C128.684 22.8889 127.938 23.2494 127.397 23.996C126.934 24.6397 126.702 25.4894 126.702 26.4678V33.0591H123.921L123.947 24.4595C123.947 23.0176 123.921 21.7045 123.844 20.5202H126.264L126.367 22.9147H126.444C126.728 22.0907 127.191 21.4213 127.835 20.9321C128.453 20.4944 129.122 20.2627 129.843 20.2627C130.101 20.2627 130.332 20.2884 130.538 20.3142V22.9662V22.9662Z" fill="#434343"/>
<path d="M143 26.185C143 26.6742 142.974 27.1119 142.897 27.4466H134.529C134.555 28.6825 134.967 29.6351 135.739 30.2788C136.434 30.871 137.361 31.1542 138.468 31.1542C139.704 31.1542 140.837 30.9483 141.841 30.562L142.279 32.4931C141.094 33.008 139.678 33.2655 138.082 33.2655C136.125 33.2655 134.606 32.6991 133.499 31.5404C132.392 30.4076 131.825 28.8627 131.825 26.9317C131.825 25.0264 132.34 23.4558 133.37 22.22C134.452 20.8811 135.919 20.2117 137.747 20.2117C139.55 20.2117 140.914 20.8811 141.841 22.22C142.639 23.3013 143 24.6402 143 26.185ZM140.348 25.4641C140.374 24.6402 140.193 23.9193 139.807 23.3271C139.318 22.5547 138.571 22.1685 137.593 22.1685C136.692 22.1685 135.945 22.5547 135.379 23.3013C134.915 23.8935 134.632 24.6144 134.555 25.4641H140.348Z" fill="#434343"/>
<path d="M47.4003 4.96879C47.4003 6.51362 46.9369 7.67224 46.01 8.44466C45.1603 9.16558 43.9502 9.52604 42.3796 9.52604C41.6072 9.52604 40.9378 9.5003 40.3713 9.42305V1.00372C41.0923 0.874981 41.8904 0.823486 42.7401 0.823486C44.2334 0.823486 45.3663 1.1582 46.1387 1.80188C46.9884 2.5228 47.4003 3.57844 47.4003 4.96879ZM45.9585 4.99453C45.9585 3.99039 45.701 3.24372 45.1603 2.70303C44.6196 2.16234 43.873 1.90487 42.8431 1.90487C42.4054 1.90487 42.0449 1.93062 41.7359 2.00786V8.39317C41.9162 8.41891 42.2251 8.41891 42.6628 8.41891C43.7185 8.41891 44.5166 8.13569 45.0831 7.54351C45.6753 6.95132 45.9585 6.10166 45.9585 4.99453Z" fill="#434343"/>
<path d="M55.0731 6.30791C55.0731 7.26055 54.7898 8.03297 54.2491 8.6509C53.6827 9.26884 52.936 9.5778 51.9834 9.5778C51.0822 9.5778 50.3613 9.26884 49.8206 8.67665C49.2799 8.08446 49.0225 7.31205 49.0225 6.4109C49.0225 5.45825 49.3057 4.68583 49.8464 4.0679C50.3871 3.44997 51.1337 3.16675 52.0864 3.16675C52.9875 3.16675 53.7085 3.47571 54.2749 4.0679C54.8156 4.63434 55.0731 5.38101 55.0731 6.30791ZM53.657 6.33365C53.657 5.76722 53.5282 5.27802 53.2965 4.86606C53.0133 4.37687 52.6013 4.11939 52.0606 4.11939C51.5199 4.11939 51.0822 4.37687 50.799 4.86606C50.5673 5.27802 50.4386 5.76722 50.4386 6.3594C50.4386 6.92584 50.5673 7.41504 50.799 7.82699C51.108 8.31619 51.5199 8.57366 52.0349 8.57366C52.5498 8.57366 52.9618 8.31619 53.2707 7.82699C53.5282 7.41504 53.657 6.92584 53.657 6.33365Z" fill="#434343"/>
<path d="M65.346 3.26978L63.415 9.42336H62.1534L61.3552 6.74565C61.1492 6.07622 60.9948 5.40679 60.866 4.76311H60.8403C60.7115 5.43254 60.5571 6.10197 60.3511 6.74565L59.5014 9.42336H58.2398L56.4375 3.26978H57.8536L58.5488 6.20496C58.729 6.90013 58.8577 7.56956 58.9607 8.18749H58.9865C59.0895 7.67255 59.2439 7.00312 59.5014 6.2307L60.3768 3.29552H61.484L62.3336 6.17921C62.5396 6.87439 62.6941 7.56956 62.8228 8.21324H62.8486C62.9515 7.56956 63.0803 6.90013 63.2605 6.17921L64.0072 3.29552H65.346V3.26978Z" fill="#434343"/>
<path d="M72.4526 9.44907H71.0622V5.89595C71.0622 4.81457 70.6503 4.27388 69.8264 4.27388C69.4144 4.27388 69.0797 4.42836 68.848 4.71158C68.6162 4.9948 68.4617 5.35526 68.4617 5.76722V9.42332H67.0971V5.04629C67.0971 4.5056 67.0714 3.91342 67.0457 3.29548H68.2558L68.3073 4.24813H68.333C68.4875 3.93916 68.7192 3.70744 69.0539 3.50146C69.4144 3.26974 69.8263 3.16675 70.2898 3.16675C70.8562 3.16675 71.3454 3.34698 71.7316 3.73319C72.1951 4.19664 72.4526 4.86606 72.4526 5.76722V9.44907V9.44907Z" fill="#434343"/>
<path d="M76.2113 9.44902H74.8467V0.4375H76.2113V9.44902Z" fill="#434343"/>
<path d="M84.296 6.30791C84.296 7.26055 84.0127 8.03297 83.472 8.6509C82.9056 9.26884 82.1589 9.5778 81.2063 9.5778C80.3051 9.5778 79.5842 9.26884 79.0435 8.67665C78.5028 8.08446 78.2454 7.31205 78.2454 6.4109C78.2454 5.45825 78.5286 4.68583 79.0693 4.0679C79.61 3.44997 80.3566 3.16675 81.3093 3.16675C82.2104 3.16675 82.9313 3.47571 83.4978 4.0679C84.0385 4.63434 84.296 5.38101 84.296 6.30791ZM82.8798 6.33365C82.8798 5.76722 82.7511 5.27802 82.5194 4.86606C82.2362 4.37687 81.8242 4.11939 81.2835 4.11939C80.7428 4.11939 80.3051 4.37687 80.0219 4.86606C79.7644 5.27802 79.6615 5.76722 79.6615 6.3594C79.6615 6.92584 79.7902 7.41504 80.0219 7.82699C80.3051 8.31619 80.7428 8.57366 81.2578 8.57366C81.7727 8.57366 82.1847 8.31619 82.4936 7.82699C82.7511 7.41504 82.8798 6.92584 82.8798 6.33365Z" fill="#434343"/>
<path d="M90.9129 9.44918H89.6771L89.5998 8.72826H89.5741C89.1621 9.2947 88.5442 9.57792 87.7718 9.57792C87.1796 9.57792 86.7161 9.39768 86.3557 9.01148C86.0467 8.67676 85.8665 8.26481 85.8665 7.74986C85.8665 7.00319 86.1754 6.41101 86.8191 6.0248C87.4628 5.63859 88.3382 5.43261 89.4711 5.43261V5.32963C89.4711 4.50572 89.0334 4.11951 88.1837 4.11951C87.5658 4.11951 87.0508 4.27399 86.5874 4.58296L86.3042 3.6818C86.8706 3.32134 87.5915 3.14111 88.4154 3.14111C90.0375 3.14111 90.8357 3.99077 90.8357 5.69009V7.95584C90.8357 8.57377 90.8614 9.06297 90.9129 9.44918ZM89.4968 7.31216V6.35951C87.9777 6.33377 87.2311 6.74572 87.2311 7.59538C87.2311 7.90435 87.3083 8.16182 87.4885 8.3163C87.6688 8.47079 87.9005 8.54803 88.158 8.54803C88.4669 8.54803 88.7501 8.44504 89.0076 8.26481C89.2651 8.08458 89.4196 7.82711 89.4711 7.54389C89.4968 7.49239 89.4968 7.41515 89.4968 7.31216Z" fill="#434343"/>
<path d="M98.7147 9.44902H97.5046L97.4274 8.47063H97.4016C97.0154 9.2173 96.346 9.60351 95.4191 9.60351C94.6724 9.60351 94.0545 9.32029 93.5653 8.7281C93.0761 8.13592 92.8186 7.38925 92.8186 6.46235C92.8186 5.45821 93.0761 4.66004 93.6168 4.04211C94.1317 3.47567 94.7754 3.1667 95.5221 3.1667C96.346 3.1667 96.9382 3.44992 97.2471 4.01636H97.2729V0.4375H98.6375V7.77545C98.6632 8.36764 98.689 8.93408 98.7147 9.44902ZM97.2986 6.84856V5.81867C97.2986 5.63844 97.2986 5.5097 97.2471 5.38096C97.1699 5.04625 97.0154 4.76303 96.7579 4.55705C96.5005 4.32533 96.1915 4.22234 95.831 4.22234C95.3161 4.22234 94.9299 4.42832 94.6209 4.84027C94.3377 5.25223 94.1832 5.76717 94.1832 6.41085C94.1832 7.02879 94.3119 7.51798 94.5952 7.90419C94.9041 8.31615 95.2903 8.52212 95.8053 8.52212C96.243 8.52212 96.6035 8.34189 96.8867 8.00718C97.1699 7.64672 97.2986 7.28626 97.2986 6.84856Z" fill="#434343"/>
<path d="M110.43 6.30791C110.43 7.26055 110.172 8.03297 109.606 8.6509C109.039 9.26884 108.293 9.5778 107.34 9.5778C106.439 9.5778 105.718 9.26884 105.177 8.67665C104.637 8.08446 104.379 7.31205 104.379 6.4109C104.379 5.45825 104.662 4.68583 105.203 4.0679C105.769 3.44997 106.49 3.16675 107.443 3.16675C108.344 3.16675 109.065 3.47571 109.632 4.0679C110.172 4.63434 110.43 5.38101 110.43 6.30791ZM109.014 6.33365C109.014 5.76722 108.885 5.27802 108.653 4.86606C108.37 4.37687 107.958 4.11939 107.417 4.11939C106.877 4.11939 106.439 4.37687 106.156 4.86606C105.924 5.27802 105.795 5.76722 105.795 6.3594C105.795 6.92584 105.924 7.41504 106.156 7.82699C106.465 8.31619 106.877 8.57366 107.392 8.57366C107.907 8.57366 108.318 8.31619 108.627 7.82699C108.885 7.41504 109.014 6.92584 109.014 6.33365Z" fill="#434343"/>
<path d="M117.793 9.44907H116.429V5.89595C116.429 4.81457 116.017 4.27388 115.193 4.27388C114.781 4.27388 114.446 4.42836 114.214 4.71158C113.957 5.02055 113.828 5.35526 113.828 5.76722V9.42332H112.464V5.04629C112.464 4.5056 112.438 3.91342 112.412 3.29548H113.622L113.674 4.24813H113.699C113.854 3.93916 114.111 3.70744 114.42 3.50146C114.781 3.26974 115.219 3.16675 115.656 3.16675C116.223 3.16675 116.712 3.34698 117.098 3.73319C117.562 4.19664 117.819 4.86606 117.819 5.76722V9.44907H117.793Z" fill="#434343"/>
<path d="M127.011 4.29957H125.491V7.28625C125.491 8.05867 125.749 8.41913 126.29 8.41913C126.521 8.41913 126.727 8.39338 126.908 8.36763L126.933 9.39752C126.65 9.50051 126.315 9.55201 125.878 9.55201C125.337 9.55201 124.925 9.39752 124.616 9.06281C124.307 8.72809 124.153 8.1874 124.153 7.41499V4.29957H123.251V3.26969H124.153V2.13681L125.491 1.72485V3.26969H127.011V4.29957V4.29957Z" fill="#434343"/>
<path d="M134.271 9.44902H132.907V5.92166C132.907 4.81453 132.495 4.27383 131.671 4.27383C131.027 4.27383 130.589 4.5828 130.358 5.22648C130.306 5.35522 130.28 5.53545 130.28 5.71568V9.42328H128.916V0.4375H130.28V4.1451H130.306C130.744 3.47567 131.362 3.14096 132.16 3.14096C132.726 3.14096 133.19 3.32119 133.576 3.7074C134.039 4.17085 134.271 4.86602 134.271 5.76717V9.44902Z" fill="#434343"/>
<path d="M141.764 6.05055C141.764 6.28227 141.738 6.514 141.712 6.66848H137.593C137.619 7.28641 137.799 7.74986 138.185 8.05883C138.52 8.34205 138.983 8.49653 139.524 8.49653C140.142 8.49653 140.683 8.39354 141.198 8.21331L141.403 9.16596C140.811 9.42343 140.142 9.55217 139.344 9.55217C138.391 9.55217 137.644 9.26895 137.104 8.70251C136.563 8.13607 136.28 7.3894 136.28 6.43676C136.28 5.50986 136.537 4.73744 137.052 4.11951C137.593 3.45008 138.288 3.14111 139.215 3.14111C140.09 3.14111 140.786 3.47583 141.223 4.11951C141.584 4.63445 141.764 5.30388 141.764 6.05055ZM140.451 5.71583C140.451 5.30388 140.374 4.96916 140.193 4.6602C139.962 4.27399 139.601 4.09376 139.112 4.09376C138.674 4.09376 138.288 4.27399 138.031 4.6602C137.799 4.96916 137.67 5.30388 137.619 5.71583H140.451Z" fill="#434343"/>
</g>
<defs>
<clipPath id="clip0">
<rect width="143" height="38.1831" fill="white"/>
</clipPath>
</defs>
</svg>
