<?xml version="1.0" encoding="utf-8"?>
<!-- Generator: Adobe Illustrator 25.1.0, SVG Export Plug-In . SVG Version: 6.00 Build 0)  -->
<svg version="1.1" id="레이어_1" xmlns="http://www.w3.org/2000/svg" xmlns:xlink="http://www.w3.org/1999/xlink" x="0px"
	 y="0px" viewBox="0 0 60.88 16.09" style="enable-background:new 0 0 60.88 16.09;" xml:space="preserve">
<style type="text/css">
	.st0{fill:#434343;}
	.st1{fill:#5AC9F4;}
	.st2{clip-path:url(#SVGID_2_);}
	.st3{clip-path:url(#SVGID_4_);fill:#FEE000;}
	.st4{clip-path:url(#SVGID_4_);fill:#FEDF00;}
	.st5{clip-path:url(#SVGID_4_);fill:#FEDE00;}
	.st6{clip-path:url(#SVGID_4_);fill:#FEDD00;}
	.st7{clip-path:url(#SVGID_4_);fill:#FEDC00;}
	.st8{clip-path:url(#SVGID_4_);fill:#FDDB00;}
	.st9{clip-path:url(#SVGID_4_);fill:#FDDA00;}
	.st10{clip-path:url(#SVGID_4_);fill:#FDD900;}
	.st11{clip-path:url(#SVGID_4_);fill:#FDD800;}
	.st12{clip-path:url(#SVGID_4_);fill:#FDD701;}
	.st13{clip-path:url(#SVGID_4_);fill:#FDD602;}
	.st14{clip-path:url(#SVGID_4_);fill:#FDD603;}
	.st15{clip-path:url(#SVGID_4_);fill:#FDD504;}
	.st16{clip-path:url(#SVGID_4_);fill:#FDD404;}
	.st17{clip-path:url(#SVGID_4_);fill:#FDD305;}
	.st18{clip-path:url(#SVGID_4_);fill:#FDD206;}
	.st19{clip-path:url(#SVGID_4_);fill:#FDD107;}
	.st20{clip-path:url(#SVGID_4_);fill:#FCD007;}
	.st21{clip-path:url(#SVGID_4_);fill:#FCCF08;}
	.st22{clip-path:url(#SVGID_4_);fill:#FCCF09;}
	.st23{clip-path:url(#SVGID_4_);fill:#FCCE0A;}
	.st24{clip-path:url(#SVGID_4_);fill:#FCCD0A;}
	.st25{clip-path:url(#SVGID_4_);fill:#FCCC0B;}
	.st26{clip-path:url(#SVGID_4_);fill:#FCCB0C;}
	.st27{clip-path:url(#SVGID_4_);fill:#FCCA0C;}
	.st28{clip-path:url(#SVGID_4_);fill:#FCC90D;}
	.st29{clip-path:url(#SVGID_4_);fill:#FCC80E;}
	.st30{clip-path:url(#SVGID_4_);fill:#FBC70F;}
	.st31{clip-path:url(#SVGID_4_);fill:#FBC60F;}
	.st32{clip-path:url(#SVGID_4_);fill:#FBC510;}
	.st33{clip-path:url(#SVGID_4_);fill:#FBC410;}
	.st34{clip-path:url(#SVGID_4_);fill:#FBC411;}
	.st35{clip-path:url(#SVGID_4_);fill:#FBC311;}
	.st36{clip-path:url(#SVGID_6_);}
	.st37{clip-path:url(#SVGID_8_);fill:#EF4547;}
	.st38{clip-path:url(#SVGID_8_);fill:#EF4447;}
	.st39{clip-path:url(#SVGID_8_);fill:#EE4448;}
	.st40{clip-path:url(#SVGID_8_);fill:#ED4349;}
	.st41{clip-path:url(#SVGID_8_);fill:#EC4349;}
	.st42{clip-path:url(#SVGID_8_);fill:#EB434A;}
	.st43{clip-path:url(#SVGID_8_);fill:#EB424A;}
	.st44{clip-path:url(#SVGID_8_);fill:#EA424B;}
	.st45{clip-path:url(#SVGID_8_);fill:#E9414B;}
	.st46{clip-path:url(#SVGID_8_);fill:#E9414C;}
	.st47{clip-path:url(#SVGID_8_);fill:#E8414C;}
	.st48{clip-path:url(#SVGID_8_);fill:#E8404D;}
	.st49{clip-path:url(#SVGID_8_);fill:#E7404D;}
	.st50{clip-path:url(#SVGID_8_);fill:#E7404E;}
	.st51{clip-path:url(#SVGID_8_);fill:#E63F4E;}
	.st52{clip-path:url(#SVGID_8_);fill:#E63F4F;}
	.st53{clip-path:url(#SVGID_8_);fill:#E53F4F;}
	.st54{clip-path:url(#SVGID_8_);fill:#E53E4F;}
	.st55{clip-path:url(#SVGID_8_);fill:#E53E50;}
	.st56{clip-path:url(#SVGID_8_);fill:#E43E50;}
	.st57{clip-path:url(#SVGID_8_);fill:#E43D50;}
	.st58{clip-path:url(#SVGID_8_);fill:#E43D51;}
	.st59{clip-path:url(#SVGID_8_);fill:#E33D51;}
	.st60{clip-path:url(#SVGID_8_);fill:#E23C52;}
	.st61{clip-path:url(#SVGID_8_);fill:#E23C53;}
	.st62{clip-path:url(#SVGID_8_);fill:#E13B53;}
	.st63{clip-path:url(#SVGID_8_);fill:#E13B54;}
	.st64{clip-path:url(#SVGID_8_);fill:#E03A54;}
	.st65{clip-path:url(#SVGID_8_);fill:#E03A55;}
	.st66{clip-path:url(#SVGID_8_);fill:#DF3A55;}
	.st67{clip-path:url(#SVGID_8_);fill:#DF3955;}
	.st68{clip-path:url(#SVGID_8_);fill:#DE3956;}
	.st69{clip-path:url(#SVGID_8_);fill:#DE3856;}
	.st70{clip-path:url(#SVGID_8_);fill:#DD3857;}
	.st71{clip-path:url(#SVGID_8_);fill:#DD3757;}
	.st72{clip-path:url(#SVGID_8_);fill:#DD3758;}
	.st73{clip-path:url(#SVGID_8_);fill:#DC3758;}
	.st74{clip-path:url(#SVGID_8_);fill:#DC3658;}
	.st75{clip-path:url(#SVGID_8_);fill:#DB3659;}
	.st76{clip-path:url(#SVGID_8_);fill:#DB3559;}
	.st77{clip-path:url(#SVGID_8_);fill:#DB355A;}
	.st78{clip-path:url(#SVGID_8_);fill:#DA345A;}
	.st79{clip-path:url(#SVGID_8_);fill:#D9345B;}
	.st80{clip-path:url(#SVGID_8_);fill:#D9335B;}
	.st81{clip-path:url(#SVGID_8_);fill:#D9335C;}
	.st82{clip-path:url(#SVGID_8_);fill:#D8325C;}
	.st83{clip-path:url(#SVGID_8_);fill:#D7315D;}
	.st84{clip-path:url(#SVGID_8_);fill:#D7305D;}
	.st85{clip-path:url(#SVGID_8_);fill:#D6305E;}
	.st86{clip-path:url(#SVGID_8_);fill:#D62F5E;}
	.st87{clip-path:url(#SVGID_8_);fill:#D62F5F;}
	.st88{clip-path:url(#SVGID_8_);fill:#D52F5F;}
	.st89{clip-path:url(#SVGID_8_);fill:#D52E5F;}
	.st90{clip-path:url(#SVGID_8_);fill:#D42E60;}
	.st91{clip-path:url(#SVGID_8_);fill:#D42D60;}
	.st92{clip-path:url(#SVGID_8_);fill:#D32C61;}
	.st93{clip-path:url(#SVGID_8_);fill:#D32B62;}
	.st94{clip-path:url(#SVGID_8_);fill:#D22B62;}
	.st95{clip-path:url(#SVGID_8_);fill:#D22A62;}
	.st96{clip-path:url(#SVGID_8_);fill:#D12A63;}
	.st97{clip-path:url(#SVGID_8_);fill:#D12963;}
	.st98{clip-path:url(#SVGID_8_);fill:#D02864;}
	.st99{clip-path:url(#SVGID_8_);fill:#D02764;}
	.st100{clip-path:url(#SVGID_8_);fill:#CF2765;}
	.st101{clip-path:url(#SVGID_8_);fill:#CF2665;}
	.st102{clip-path:url(#SVGID_8_);fill:#CF2565;}
	.st103{clip-path:url(#SVGID_8_);fill:#CE2566;}
	.st104{clip-path:url(#SVGID_8_);fill:#CE2466;}
	.st105{clip-path:url(#SVGID_8_);fill:#CD2466;}
	.st106{clip-path:url(#SVGID_8_);fill:#CD2367;}
	.st107{clip-path:url(#SVGID_8_);fill:#CC2267;}
	.st108{clip-path:url(#SVGID_8_);fill:#CC2268;}
	.st109{clip-path:url(#SVGID_8_);fill:#CC2168;}
	.st110{clip-path:url(#SVGID_8_);fill:#CB2068;}
	.st111{clip-path:url(#SVGID_8_);fill:#CB2069;}
	.st112{clip-path:url(#SVGID_8_);fill:#CB1F69;}
	.st113{clip-path:url(#SVGID_10_);}
	.st114{clip-path:url(#SVGID_12_);fill:#3AA46E;}
	.st115{clip-path:url(#SVGID_12_);fill:#3CA56E;}
	.st116{clip-path:url(#SVGID_12_);fill:#3FA56E;}
	.st117{clip-path:url(#SVGID_12_);fill:#41A66E;}
	.st118{clip-path:url(#SVGID_12_);fill:#43A76E;}
	.st119{clip-path:url(#SVGID_12_);fill:#45A86E;}
	.st120{clip-path:url(#SVGID_12_);fill:#47A86D;}
	.st121{clip-path:url(#SVGID_12_);fill:#48A96D;}
	.st122{clip-path:url(#SVGID_12_);fill:#4AAA6D;}
	.st123{clip-path:url(#SVGID_12_);fill:#4CAA6D;}
	.st124{clip-path:url(#SVGID_12_);fill:#4EAB6D;}
	.st125{clip-path:url(#SVGID_12_);fill:#4FAC6D;}
	.st126{clip-path:url(#SVGID_12_);fill:#51AC6D;}
	.st127{clip-path:url(#SVGID_12_);fill:#52AD6C;}
	.st128{clip-path:url(#SVGID_12_);fill:#54AE6C;}
	.st129{clip-path:url(#SVGID_12_);fill:#55AF6C;}
	.st130{clip-path:url(#SVGID_12_);fill:#56AF6C;}
	.st131{clip-path:url(#SVGID_12_);fill:#58B06C;}
	.st132{clip-path:url(#SVGID_12_);fill:#59B16C;}
	.st133{clip-path:url(#SVGID_12_);fill:#5AB16B;}
	.st134{clip-path:url(#SVGID_12_);fill:#5CB26B;}
	.st135{clip-path:url(#SVGID_12_);fill:#5DB36B;}
	.st136{clip-path:url(#SVGID_12_);fill:#5EB36B;}
	.st137{clip-path:url(#SVGID_12_);fill:#5FB46B;}
	.st138{clip-path:url(#SVGID_12_);fill:#61B56B;}
	.st139{clip-path:url(#SVGID_12_);fill:#62B56B;}
	.st140{clip-path:url(#SVGID_12_);fill:#63B66A;}
	.st141{clip-path:url(#SVGID_12_);fill:#64B66A;}
	.st142{clip-path:url(#SVGID_12_);fill:#65B76A;}
	.st143{clip-path:url(#SVGID_12_);fill:#66B86A;}
	.st144{clip-path:url(#SVGID_12_);fill:#67B86A;}
	.st145{clip-path:url(#SVGID_12_);fill:#68B96A;}
	.st146{clip-path:url(#SVGID_12_);fill:#69BA6A;}
	.st147{clip-path:url(#SVGID_12_);fill:#6ABA6A;}
	.st148{clip-path:url(#SVGID_12_);fill:#6BBB69;}
	.st149{clip-path:url(#SVGID_12_);fill:#6CBB69;}
	.st150{clip-path:url(#SVGID_12_);fill:#6DBC69;}
	.st151{clip-path:url(#SVGID_12_);fill:#6EBD69;}
	.st152{clip-path:url(#SVGID_12_);fill:#6FBD69;}
	.st153{clip-path:url(#SVGID_12_);fill:#6FBE69;}
	.st154{clip-path:url(#SVGID_12_);fill:#70BE69;}
	.st155{clip-path:url(#SVGID_12_);fill:#71BF69;}
	.st156{clip-path:url(#SVGID_12_);fill:#72BF69;}
	.st157{clip-path:url(#SVGID_12_);fill:#72C069;}
	.st158{clip-path:url(#SVGID_12_);fill:#73C069;}
	.st159{clip-path:url(#SVGID_12_);fill:#73C169;}
	.st160{clip-path:url(#SVGID_12_);fill:#73C168;}
	.st161{clip-path:url(#SVGID_12_);fill:#74C168;}
</style>
<g>
	<g>
		<path class="st0" d="M20.04,2.88c0,0.43-0.13,0.76-0.38,1.02c-0.29,0.3-0.66,0.45-1.12,0.45c-0.44,0-0.81-0.15-1.12-0.46
			c-0.31-0.31-0.46-0.68-0.46-1.13c0-0.45,0.15-0.83,0.46-1.13c0.31-0.31,0.68-0.46,1.12-0.46c0.22,0,0.43,0.04,0.63,0.13
			c0.2,0.09,0.36,0.2,0.48,0.34L19.38,1.9c-0.2-0.24-0.48-0.36-0.84-0.36c-0.32,0-0.6,0.11-0.83,0.34
			c-0.23,0.23-0.35,0.52-0.35,0.88c0,0.36,0.12,0.65,0.35,0.88c0.23,0.23,0.51,0.34,0.83,0.34c0.34,0,0.62-0.11,0.85-0.34
			c0.15-0.15,0.23-0.35,0.26-0.62h-1.11V2.65h1.48C20.04,2.73,20.04,2.8,20.04,2.88"/>
	</g>
	<g>
		<path class="st0" d="M20.04,2.88h-0.05c0,0.42-0.12,0.74-0.36,0.98v0l0,0c-0.28,0.29-0.63,0.43-1.08,0.44
			c-0.43,0-0.79-0.15-1.08-0.44c-0.3-0.3-0.45-0.66-0.45-1.1c0-0.44,0.15-0.8,0.45-1.1c0.3-0.3,0.66-0.44,1.08-0.44
			c0.21,0,0.41,0.04,0.61,0.12c0.19,0.08,0.34,0.19,0.46,0.33l0.04-0.03l-0.04-0.04l-0.27,0.27l0.04,0.04l0.04-0.03
			c-0.21-0.25-0.51-0.38-0.87-0.38c-0.33,0-0.62,0.12-0.87,0.35c-0.24,0.23-0.37,0.54-0.37,0.92c0,0.37,0.12,0.68,0.37,0.91
			c0.24,0.23,0.54,0.35,0.87,0.35c0.35,0,0.65-0.12,0.89-0.36c0.16-0.16,0.25-0.38,0.27-0.65l0-0.06h-1.11V2.7h1.43V2.65l-0.05,0.01
			c0.01,0.08,0.02,0.15,0.02,0.22h0.1c0-0.08-0.01-0.16-0.02-0.24L20.06,2.6h-1.57v0.47h1.16V3.01l-0.05,0
			c-0.02,0.26-0.1,0.45-0.24,0.59c-0.22,0.22-0.49,0.33-0.82,0.33c-0.31,0-0.57-0.11-0.8-0.32c-0.22-0.22-0.34-0.49-0.34-0.84
			s0.11-0.63,0.34-0.84c0.23-0.22,0.49-0.32,0.8-0.32c0.34,0,0.6,0.11,0.8,0.34l0.04,0.04l0.31-0.31l0.03-0.03L19.69,1.6
			c-0.12-0.15-0.29-0.27-0.5-0.35c-0.2-0.09-0.42-0.13-0.65-0.13c-0.45,0-0.84,0.16-1.16,0.47c-0.32,0.31-0.48,0.71-0.48,1.17
			c0,0.46,0.16,0.86,0.48,1.17c0.32,0.31,0.71,0.47,1.16,0.47c0.47,0,0.86-0.16,1.16-0.47l-0.04-0.04l0.04,0.04
			c0.26-0.26,0.39-0.62,0.39-1.05H20.04"/>
	</g>
	<g>
		<polyline class="st0" points="22.38,1.6 21,1.6 21,2.57 22.25,2.57 22.25,2.93 21,2.93 21,3.9 22.38,3.9 22.38,4.28 20.6,4.28 
			20.6,1.23 22.38,1.23 22.38,1.6 		"/>
	</g>
	<g>
		<polyline class="st0" points="22.38,1.6 22.38,1.55 20.94,1.55 20.94,2.62 22.2,2.62 22.2,2.88 20.94,2.88 20.94,3.95 22.33,3.95 
			22.33,4.22 20.66,4.22 20.66,1.28 22.33,1.28 22.33,1.6 22.38,1.6 22.38,1.55 22.38,1.6 22.43,1.6 22.43,1.18 20.55,1.18 
			20.55,4.33 22.43,4.33 22.43,3.85 21.05,3.85 21.05,2.99 22.3,2.99 22.3,2.52 21.05,2.52 21.05,1.65 22.43,1.65 22.43,1.6 
			22.38,1.6 		"/>
	</g>
	<g>
		<polyline class="st0" points="24.03,4.28 23.64,4.28 23.64,1.6 22.79,1.6 22.79,1.23 24.89,1.23 24.89,1.6 24.03,1.6 24.03,4.28 
					"/>
	</g>
	<g>
		<polyline class="st0" points="24.03,4.28 24.03,4.22 23.69,4.22 23.69,1.55 22.84,1.55 22.84,1.28 24.84,1.28 24.84,1.55 
			23.98,1.55 23.98,4.28 24.03,4.28 24.03,4.22 24.03,4.28 24.09,4.28 24.09,1.65 24.94,1.65 24.94,1.18 22.74,1.18 22.74,1.65 
			23.59,1.65 23.59,4.33 24.09,4.33 24.09,4.28 24.03,4.28 		"/>
	</g>
	<g>
		<rect x="26.4" y="1.23" class="st0" width="0.39" height="3.05"/>
	</g>
	<g>
		<polyline class="st0" points="26.4,4.28 26.45,4.28 26.45,1.28 26.74,1.28 26.74,4.22 26.4,4.22 26.4,4.28 26.45,4.28 26.4,4.28 
			26.4,4.33 26.84,4.33 26.84,1.18 26.35,1.18 26.35,4.33 26.4,4.33 26.4,4.28 		"/>
	</g>
	<g>
		<polyline class="st0" points="28.53,4.28 28.14,4.28 28.14,1.6 27.29,1.6 27.29,1.23 29.38,1.23 29.38,1.6 28.53,1.6 28.53,4.28 
					"/>
	</g>
	<g>
		<polyline class="st0" points="28.53,4.28 28.53,4.22 28.19,4.22 28.19,1.55 27.34,1.55 27.34,1.28 29.33,1.28 29.33,1.55 
			28.48,1.55 28.48,4.28 28.53,4.28 28.53,4.22 28.53,4.28 28.58,4.28 28.58,1.65 29.43,1.65 29.43,1.18 27.23,1.18 27.23,1.65 
			28.09,1.65 28.09,4.33 28.58,4.33 28.58,4.28 28.53,4.28 		"/>
	</g>
	<g>
		<path class="st0" d="M33.34,3.88c-0.3,0.31-0.67,0.46-1.12,0.46c-0.45,0-0.82-0.15-1.12-0.46c-0.3-0.31-0.45-0.68-0.45-1.13
			s0.15-0.82,0.45-1.13c0.3-0.31,0.67-0.46,1.12-0.46c0.44,0,0.81,0.15,1.11,0.46c0.3,0.31,0.45,0.69,0.45,1.13
			C33.79,3.2,33.64,3.57,33.34,3.88 M31.4,3.63c0.23,0.23,0.5,0.34,0.83,0.34c0.33,0,0.6-0.11,0.83-0.34
			c0.23-0.23,0.34-0.52,0.34-0.87s-0.11-0.65-0.34-0.87c-0.22-0.23-0.5-0.34-0.83-0.34c-0.33,0-0.6,0.11-0.83,0.34
			c-0.22,0.23-0.34,0.52-0.34,0.87S31.17,3.4,31.4,3.63z"/>
	</g>
	<g>
		<path class="st0" d="M33.34,3.88l-0.04-0.04c-0.29,0.3-0.65,0.45-1.08,0.45c-0.43,0-0.79-0.15-1.08-0.45l0,0l0,0
			c-0.29-0.3-0.43-0.66-0.43-1.09s0.14-0.8,0.43-1.09c0.29-0.3,0.65-0.45,1.08-0.45c0.43,0,0.79,0.15,1.08,0.45
			c0.29,0.3,0.44,0.66,0.44,1.09c0,0.43-0.14,0.8-0.43,1.09l0.07,0.07c0.31-0.32,0.46-0.71,0.46-1.16c0-0.45-0.16-0.85-0.46-1.16
			c-0.31-0.32-0.7-0.48-1.15-0.48c-0.46,0-0.85,0.16-1.15,0.48c-0.31,0.32-0.46,0.71-0.46,1.17c0,0.46,0.15,0.85,0.46,1.16l0,0l0,0
			c0.31,0.32,0.7,0.48,1.15,0.48c0.46,0,0.85-0.16,1.15-0.48L33.34,3.88 M31.4,3.63l-0.04,0.04c0.23,0.24,0.53,0.36,0.86,0.36
			c0.34,0,0.63-0.12,0.86-0.36c0.23-0.24,0.35-0.54,0.35-0.91c0-0.37-0.12-0.67-0.35-0.91c-0.23-0.24-0.53-0.36-0.86-0.36
			c-0.34,0-0.63,0.12-0.86,0.36s-0.35,0.54-0.35,0.91c0,0.37,0.12,0.67,0.35,0.91l0.07-0.07c-0.22-0.22-0.32-0.5-0.32-0.84
			c0-0.34,0.11-0.62,0.32-0.84h0c0.22-0.22,0.48-0.33,0.79-0.33c0.31,0,0.58,0.11,0.79,0.33c0.21,0.22,0.32,0.5,0.32,0.84
			c0,0.34-0.11,0.62-0.32,0.84c-0.22,0.22-0.48,0.33-0.79,0.33c-0.31,0-0.57-0.11-0.79-0.33L31.4,3.63z"/>
	</g>
	<g>
		<polyline class="st0" points="34.34,4.28 34.34,1.23 34.82,1.23 36.3,3.6 36.32,3.6 36.3,3.01 36.3,1.23 36.69,1.23 36.69,4.28 
			36.28,4.28 34.73,1.79 34.72,1.79 34.73,2.38 34.73,4.28 34.34,4.28 		"/>
	</g>
	<g>
		<polyline class="st0" points="34.34,4.28 34.39,4.28 34.39,1.28 34.79,1.28 36.27,3.65 36.37,3.65 36.35,3.01 36.35,1.28 
			36.64,1.28 36.64,4.22 36.31,4.22 34.76,1.74 34.66,1.74 34.68,2.38 34.68,4.22 34.34,4.22 34.34,4.28 34.39,4.28 34.34,4.28 
			34.34,4.33 34.78,4.33 34.78,2.38 34.77,1.79 34.72,1.79 34.72,1.84 34.73,1.84 34.73,1.79 34.69,1.82 36.25,4.33 36.74,4.33 
			36.74,1.18 36.25,1.18 36.25,3.01 36.26,3.6 36.32,3.6 36.32,3.55 36.3,3.55 36.3,3.6 36.34,3.57 34.85,1.18 34.29,1.18 
			34.29,4.33 34.34,4.33 34.34,4.28 		"/>
	</g>
	<g>
		<path class="st0" d="M30.56,8.72c-1.19,0-2.17,0.91-2.17,2.16c0,1.24,0.97,2.16,2.17,2.16c1.19,0,2.17-0.92,2.17-2.16
			C32.73,9.63,31.76,8.72,30.56,8.72 M30.56,12.19c-0.65,0-1.22-0.54-1.22-1.31c0-0.78,0.57-1.31,1.22-1.31
			c0.65,0,1.22,0.53,1.22,1.31C31.78,11.65,31.22,12.19,30.56,12.19z M25.83,8.72c-1.2,0-2.17,0.91-2.17,2.16
			c0,1.24,0.97,2.16,2.17,2.16c1.19,0,2.17-0.92,2.17-2.16C28,9.63,27.03,8.72,25.83,8.72z M25.83,12.19
			c-0.65,0-1.22-0.54-1.22-1.31c0-0.78,0.57-1.31,1.22-1.31c0.65,0,1.22,0.53,1.22,1.31C27.05,11.65,26.49,12.19,25.83,12.19z
			 M20.21,9.38v0.92h2.19c-0.07,0.52-0.24,0.89-0.5,1.15c-0.32,0.32-0.82,0.67-1.69,0.67c-1.35,0-2.41-1.09-2.41-2.44
			c0-1.35,1.06-2.44,2.41-2.44c0.73,0,1.26,0.29,1.65,0.65l0.65-0.65c-0.55-0.52-1.28-0.92-2.3-0.92c-1.85,0-3.4,1.51-3.4,3.36
			c0,1.85,1.55,3.35,3.4,3.35c1,0,1.75-0.33,2.34-0.94c0.61-0.61,0.79-1.46,0.79-2.14c0-0.21-0.02-0.41-0.05-0.57H20.21z
			 M43.22,10.09c-0.18-0.48-0.73-1.37-1.85-1.37c-1.11,0-2.04,0.88-2.04,2.16c0,1.21,0.92,2.16,2.14,2.16c0.99,0,1.56-0.61,1.8-0.96
			l-0.74-0.49c-0.24,0.36-0.58,0.6-1.06,0.6c-0.48,0-0.83-0.22-1.05-0.65l2.89-1.19L43.22,10.09z M40.27,10.81
			c-0.03-0.83,0.65-1.26,1.13-1.26c0.38,0,0.7,0.19,0.8,0.46L40.27,10.81z M37.92,12.91h0.95V6.56h-0.95V12.91z M36.37,9.2h-0.03
			c-0.21-0.25-0.62-0.48-1.14-0.48c-1.08,0-2.07,0.95-2.07,2.17c0,1.21,0.99,2.15,2.07,2.15c0.52,0,0.92-0.23,1.14-0.49h0.03v0.31
			c0,0.83-0.44,1.27-1.15,1.27c-0.58,0-0.94-0.42-1.09-0.77L33.3,13.7c0.24,0.57,0.87,1.28,1.91,1.28c1.11,0,2.05-0.65,2.05-2.25
			V8.85h-0.9V9.2z M35.28,12.19c-0.65,0-1.2-0.55-1.2-1.3c0-0.76,0.55-1.32,1.2-1.32c0.65,0,1.15,0.56,1.15,1.32
			C36.43,11.64,35.93,12.19,35.28,12.19z M47.66,6.56h-2.27v6.35h0.95V10.5h1.32c1.05,0,2.08-0.76,2.08-1.97
			C49.74,7.32,48.71,6.56,47.66,6.56z M47.69,9.62h-1.35V7.44h1.35c0.71,0,1.11,0.59,1.11,1.09C48.8,9.02,48.39,9.62,47.69,9.62z
			 M53.54,8.71c-0.69,0-1.4,0.3-1.69,0.97l0.84,0.35c0.18-0.35,0.51-0.47,0.87-0.47c0.49,0,0.99,0.29,1,0.82v0.06
			c-0.17-0.1-0.54-0.24-0.99-0.24c-0.91,0-1.83,0.5-1.83,1.43c0,0.85,0.74,1.4,1.58,1.4c0.64,0,0.99-0.29,1.21-0.62h0.03v0.49h0.92
			v-2.43C55.47,9.34,54.63,8.71,53.54,8.71z M53.43,12.19c-0.31,0-0.74-0.15-0.74-0.54c0-0.49,0.54-0.68,1-0.68
			c0.42,0,0.61,0.09,0.87,0.21C54.48,11.77,53.98,12.19,53.43,12.19z M58.8,8.85l-1.09,2.75h-0.03l-1.13-2.75h-1.02l1.69,3.85
			l-0.96,2.14h0.99l2.61-5.99H58.8z M50.27,12.91h0.95V6.56h-0.95V12.91z"/>
	</g>
	<g>
		<path class="st1" d="M1.26,1.51c-0.15,0.16-0.23,0.4-0.23,0.71v11.22c0,0.31,0.09,0.56,0.23,0.71l0.04,0.04L7.59,7.9V7.76
			L1.3,1.47L1.26,1.51"/>
	</g>
	<g>
		<defs>
			<path id="SVGID_1_" d="M9.68,10L7.59,7.9V7.76l2.1-2.1l2.53,1.44c0.71,0.4,0.71,1.06,0,1.46L9.73,9.97L9.68,10"/>
		</defs>
		<clipPath id="SVGID_2_">
			<use xlink:href="#SVGID_1_"  style="overflow:visible;"/>
		</clipPath>
		<g class="st2">
			<g>
				<defs>
					<rect id="SVGID_3_" x="7.59" y="5.66" width="5.33" height="4.34"/>
				</defs>
				<clipPath id="SVGID_4_">
					<use xlink:href="#SVGID_3_"  style="overflow:visible;"/>
				</clipPath>
				<rect x="11.75" y="5.66" class="st3" width="1.17" height="4.34"/>
				<rect x="11.62" y="5.66" class="st3" width="0.13" height="4.34"/>
				<rect x="11.5" y="5.66" class="st4" width="0.13" height="4.34"/>
				<rect x="11.37" y="5.66" class="st5" width="0.13" height="4.34"/>
				<rect x="11.25" y="5.66" class="st6" width="0.13" height="4.34"/>
				<rect x="11.12" y="5.66" class="st7" width="0.13" height="4.34"/>
				<rect x="11" y="5.66" class="st8" width="0.13" height="4.34"/>
				<rect x="10.87" y="5.66" class="st9" width="0.13" height="4.34"/>
				<rect x="10.75" y="5.66" class="st10" width="0.13" height="4.34"/>
				<rect x="10.62" y="5.66" class="st11" width="0.13" height="4.34"/>
				<rect x="10.5" y="5.66" class="st12" width="0.13" height="4.34"/>
				<rect x="10.37" y="5.66" class="st13" width="0.13" height="4.34"/>
				<rect x="10.25" y="5.66" class="st14" width="0.13" height="4.34"/>
				<rect x="10.12" y="5.66" class="st15" width="0.13" height="4.34"/>
				<rect x="10" y="5.66" class="st16" width="0.13" height="4.34"/>
				<rect x="9.87" y="5.66" class="st17" width="0.13" height="4.34"/>
				<rect x="9.75" y="5.66" class="st18" width="0.13" height="4.34"/>
				<rect x="9.62" y="5.66" class="st19" width="0.13" height="4.34"/>
				<rect x="9.49" y="5.66" class="st20" width="0.13" height="4.34"/>
				<rect x="9.37" y="5.66" class="st21" width="0.13" height="4.34"/>
				<rect x="9.24" y="5.66" class="st22" width="0.13" height="4.34"/>
				<rect x="9.12" y="5.66" class="st23" width="0.13" height="4.34"/>
				<rect x="8.99" y="5.66" class="st24" width="0.13" height="4.34"/>
				<rect x="8.87" y="5.66" class="st25" width="0.13" height="4.34"/>
				<rect x="8.74" y="5.66" class="st26" width="0.13" height="4.34"/>
				<rect x="8.62" y="5.66" class="st27" width="0.13" height="4.34"/>
				<rect x="8.49" y="5.66" class="st28" width="0.13" height="4.34"/>
				<rect x="8.37" y="5.66" class="st28" width="0.13" height="4.34"/>
				<rect x="8.24" y="5.66" class="st29" width="0.13" height="4.34"/>
				<rect x="8.12" y="5.66" class="st30" width="0.13" height="4.34"/>
				<rect x="7.99" y="5.66" class="st31" width="0.13" height="4.34"/>
				<rect x="7.87" y="5.66" class="st32" width="0.13" height="4.34"/>
				<rect x="7.74" y="5.66" class="st33" width="0.13" height="4.34"/>
				<rect x="7.62" y="5.66" class="st34" width="0.13" height="4.34"/>
				<rect x="7.59" y="5.66" class="st35" width="0.03" height="4.34"/>
			</g>
		</g>
	</g>
	<g>
		<defs>
			<path id="SVGID_5_" d="M9.73,9.97L7.59,7.83l-6.32,6.32c0.23,0.25,0.62,0.28,1.05,0.03L9.73,9.97"/>
		</defs>
		<clipPath id="SVGID_6_">
			<use xlink:href="#SVGID_5_"  style="overflow:visible;"/>
		</clipPath>
		<g class="st36">
			<g>
				<defs>
					
						<rect id="SVGID_7_" x="0.17" y="5.8" transform="matrix(0.7071 -0.7071 0.7071 0.7071 -6.2621 7.1458)" width="10.66" height="10.66"/>
				</defs>
				<clipPath id="SVGID_8_">
					<use xlink:href="#SVGID_7_"  style="overflow:visible;"/>
				</clipPath>
				<polygon class="st37" points="13.03,13.46 3.17,3.6 13.03,3.6 				"/>
				<polygon class="st37" points="13.03,13.64 2.99,3.6 3.17,3.6 13.03,13.46 				"/>
				<polygon class="st38" points="13.03,13.81 2.81,3.6 2.99,3.6 13.03,13.64 				"/>
				<polygon class="st39" points="13.03,13.99 2.64,3.6 2.81,3.6 13.03,13.81 				"/>
				<polygon class="st39" points="13.03,14.17 2.46,3.6 2.64,3.6 13.03,13.99 				"/>
				<polygon class="st40" points="13.03,14.34 2.28,3.6 2.46,3.6 13.03,14.17 				"/>
				<polygon class="st40" points="13.03,14.52 2.11,3.6 2.28,3.6 13.03,14.34 				"/>
				<polygon class="st41" points="13.03,14.69 1.93,3.6 2.11,3.6 13.03,14.52 				"/>
				<polygon class="st42" points="13.03,14.87 1.75,3.6 1.93,3.6 13.03,14.69 				"/>
				<polygon class="st43" points="13.03,15.05 1.58,3.6 1.75,3.6 13.03,14.87 				"/>
				<polygon class="st44" points="13.03,15.22 1.4,3.6 1.58,3.6 13.03,15.05 				"/>
				<polygon class="st44" points="13.03,15.4 1.23,3.6 1.4,3.6 13.03,15.22 				"/>
				<polygon class="st45" points="13.03,15.58 1.05,3.6 1.23,3.6 13.03,15.4 				"/>
				<polygon class="st46" points="13.03,15.75 0.87,3.6 1.05,3.6 13.03,15.58 				"/>
				<polygon class="st46" points="13.03,15.93 0.7,3.6 0.87,3.6 13.03,15.75 				"/>
				<polygon class="st47" points="13.03,16.11 0.52,3.6 0.7,3.6 13.03,15.93 				"/>
				<polygon class="st48" points="13.03,16.28 0.34,3.6 0.52,3.6 13.03,16.11 				"/>
				<polygon class="st49" points="13.03,16.46 0.17,3.6 0.34,3.6 13.03,16.28 				"/>
				<polygon class="st50" points="13.03,16.63 -0.01,3.6 0.17,3.6 13.03,16.46 				"/>
				<polygon class="st51" points="13.03,16.81 -0.18,3.6 -0.01,3.6 13.03,16.63 				"/>
				<polygon class="st51" points="13.03,16.99 -0.36,3.6 -0.18,3.6 13.03,16.81 				"/>
				<polygon class="st52" points="13.03,17.16 -0.54,3.6 -0.36,3.6 13.03,16.99 				"/>
				<polygon class="st53" points="13.03,17.34 -0.71,3.6 -0.54,3.6 13.03,17.16 				"/>
				<polygon class="st54" points="13.03,17.52 -0.89,3.6 -0.71,3.6 13.03,17.34 				"/>
				<polygon class="st55" points="13.03,17.69 -1.07,3.6 -0.89,3.6 13.03,17.52 				"/>
				<polygon class="st56" points="13.03,17.87 -1.24,3.6 -1.07,3.6 13.03,17.69 				"/>
				<polygon class="st57" points="13.03,18.04 -1.42,3.6 -1.24,3.6 13.03,17.87 				"/>
				<polygon class="st58" points="13.03,18.22 -1.6,3.6 -1.42,3.6 13.03,18.04 				"/>
				<polygon class="st59" points="13.03,18.4 -1.77,3.6 -1.6,3.6 13.03,18.22 				"/>
				<polygon class="st59" points="13.03,18.57 -1.95,3.6 -1.77,3.6 13.03,18.4 				"/>
				<polygon class="st60" points="12.95,18.67 -2.04,3.68 -2.04,3.6 -1.95,3.6 13.03,18.57 13.03,18.67 				"/>
				<polygon class="st60" points="12.77,18.67 -2.04,3.86 -2.04,3.68 12.95,18.67 				"/>
				<polygon class="st60" points="12.59,18.67 -2.04,4.03 -2.04,3.86 12.77,18.67 				"/>
				<polygon class="st61" points="12.42,18.67 -2.04,4.21 -2.04,4.03 12.59,18.67 				"/>
				<polygon class="st62" points="12.24,18.67 -2.04,4.39 -2.04,4.21 12.42,18.67 				"/>
				<polygon class="st62" points="12.06,18.67 -2.04,4.56 -2.04,4.39 12.24,18.67 				"/>
				<polygon class="st63" points="11.89,18.67 -2.04,4.74 -2.04,4.56 12.06,18.67 				"/>
				<polygon class="st64" points="11.71,18.67 -2.04,4.92 -2.04,4.74 11.89,18.67 				"/>
				<polygon class="st64" points="11.53,18.67 -2.04,5.09 -2.04,4.92 11.71,18.67 				"/>
				<polygon class="st65" points="11.36,18.67 -2.04,5.27 -2.04,5.09 11.53,18.67 				"/>
				<polygon class="st66" points="11.18,18.67 -2.04,5.44 -2.04,5.27 11.36,18.67 				"/>
				<polygon class="st67" points="11.01,18.67 -2.04,5.62 -2.04,5.44 11.18,18.67 				"/>
				<polygon class="st67" points="10.83,18.67 -2.04,5.8 -2.04,5.62 11.01,18.67 				"/>
				<polygon class="st68" points="10.65,18.67 -2.04,5.97 -2.04,5.8 10.83,18.67 				"/>
				<polygon class="st69" points="10.48,18.67 -2.04,6.15 -2.04,5.97 10.65,18.67 				"/>
				<polygon class="st69" points="10.3,18.67 -2.04,6.33 -2.04,6.15 10.48,18.67 				"/>
				<polygon class="st70" points="10.12,18.67 -2.04,6.5 -2.04,6.33 10.3,18.67 				"/>
				<polygon class="st70" points="9.95,18.67 -2.04,6.68 -2.04,6.5 10.12,18.67 				"/>
				<polygon class="st71" points="9.77,18.67 -2.04,6.85 -2.04,6.68 9.95,18.67 				"/>
				<polygon class="st72" points="9.6,18.67 -2.04,7.03 -2.04,6.85 9.77,18.67 				"/>
				<polygon class="st73" points="9.42,18.67 -2.04,7.21 -2.04,7.03 9.6,18.67 				"/>
				<polygon class="st74" points="9.24,18.67 -2.04,7.38 -2.04,7.21 9.42,18.67 				"/>
				<polygon class="st74" points="9.07,18.67 -2.04,7.56 -2.04,7.38 9.24,18.67 				"/>
				<polygon class="st75" points="8.89,18.67 -2.04,7.74 -2.04,7.56 9.07,18.67 				"/>
				<polygon class="st76" points="8.71,18.67 -2.04,7.91 -2.04,7.74 8.89,18.67 				"/>
				<polygon class="st76" points="8.54,18.67 -2.04,8.09 -2.04,7.91 8.71,18.67 				"/>
				<polygon class="st77" points="8.36,18.67 -2.04,8.27 -2.04,8.09 8.54,18.67 				"/>
				<polygon class="st78" points="8.18,18.67 -2.04,8.44 -2.04,8.27 8.36,18.67 				"/>
				<polygon class="st78" points="8.01,18.67 -2.04,8.62 -2.04,8.44 8.18,18.67 				"/>
				<polygon class="st78" points="7.83,18.67 -2.04,8.79 -2.04,8.62 8.01,18.67 				"/>
				<polygon class="st79" points="7.66,18.67 -2.04,8.97 -2.04,8.79 7.83,18.67 				"/>
				<polygon class="st80" points="7.48,18.67 -2.04,9.15 -2.04,8.97 7.66,18.67 				"/>
				<polygon class="st80" points="7.3,18.67 -2.04,9.32 -2.04,9.15 7.48,18.67 				"/>
				<polygon class="st81" points="7.13,18.67 -2.04,9.5 -2.04,9.32 7.3,18.67 				"/>
				<polygon class="st82" points="6.95,18.67 -2.04,9.68 -2.04,9.5 7.13,18.67 				"/>
				<polygon class="st82" points="6.77,18.67 -2.04,9.85 -2.04,9.68 6.95,18.67 				"/>
				<polygon class="st82" points="6.6,18.67 -2.04,10.03 -2.04,9.85 6.77,18.67 				"/>
				<polygon class="st83" points="6.42,18.67 -2.04,10.2 -2.04,10.03 6.6,18.67 				"/>
				<polygon class="st83" points="6.25,18.67 -2.04,10.38 -2.04,10.2 6.42,18.67 				"/>
				<polygon class="st83" points="6.07,18.67 -2.04,10.56 -2.04,10.38 6.25,18.67 				"/>
				<polygon class="st84" points="5.89,18.67 -2.04,10.73 -2.04,10.56 6.07,18.67 				"/>
				<polygon class="st85" points="5.72,18.67 -2.04,10.91 -2.04,10.73 5.89,18.67 				"/>
				<polygon class="st85" points="5.54,18.67 -2.04,11.09 -2.04,10.91 5.72,18.67 				"/>
				<polygon class="st86" points="5.36,18.67 -2.04,11.26 -2.04,11.09 5.54,18.67 				"/>
				<polygon class="st87" points="5.19,18.67 -2.04,11.44 -2.04,11.26 5.36,18.67 				"/>
				<polygon class="st88" points="5.01,18.67 -2.04,11.62 -2.04,11.44 5.19,18.67 				"/>
				<polygon class="st89" points="4.84,18.67 -2.04,11.79 -2.04,11.62 5.01,18.67 				"/>
				<polygon class="st89" points="4.66,18.67 -2.04,11.97 -2.04,11.79 4.84,18.67 				"/>
				<polygon class="st90" points="4.48,18.67 -2.04,12.14 -2.04,11.97 4.66,18.67 				"/>
				<polygon class="st91" points="4.31,18.67 -2.04,12.32 -2.04,12.14 4.48,18.67 				"/>
				<polygon class="st91" points="4.13,18.67 -2.04,12.5 -2.04,12.32 4.31,18.67 				"/>
				<polygon class="st91" points="3.95,18.67 -2.04,12.67 -2.04,12.5 4.13,18.67 				"/>
				<polygon class="st92" points="3.78,18.67 -2.04,12.85 -2.04,12.67 3.95,18.67 				"/>
				<polygon class="st92" points="3.6,18.67 -2.04,13.03 -2.04,12.85 3.78,18.67 				"/>
				<polygon class="st92" points="3.42,18.67 -2.04,13.2 -2.04,13.03 3.6,18.67 				"/>
				<polygon class="st93" points="3.25,18.67 -2.04,13.38 -2.04,13.2 3.42,18.67 				"/>
				<polygon class="st94" points="3.07,18.67 -2.04,13.55 -2.04,13.38 3.25,18.67 				"/>
				<polygon class="st95" points="2.9,18.67 -2.04,13.73 -2.04,13.55 3.07,18.67 				"/>
				<polygon class="st95" points="2.72,18.67 -2.04,13.91 -2.04,13.73 2.9,18.67 				"/>
				<polygon class="st96" points="2.54,18.67 -2.04,14.08 -2.04,13.91 2.72,18.67 				"/>
				<polygon class="st97" points="2.37,18.67 -2.04,14.26 -2.04,14.08 2.54,18.67 				"/>
				<polygon class="st97" points="2.19,18.67 -2.04,14.44 -2.04,14.26 2.37,18.67 				"/>
				<polygon class="st97" points="2.01,18.67 -2.04,14.61 -2.04,14.44 2.19,18.67 				"/>
				<polygon class="st98" points="1.84,18.67 -2.04,14.79 -2.04,14.61 2.01,18.67 				"/>
				<polygon class="st98" points="1.66,18.67 -2.04,14.96 -2.04,14.79 1.84,18.67 				"/>
				<polygon class="st99" points="1.49,18.67 -2.04,15.14 -2.04,14.96 1.66,18.67 				"/>
				<polygon class="st99" points="1.31,18.67 -2.04,15.32 -2.04,15.14 1.49,18.67 				"/>
				<polygon class="st100" points="1.13,18.67 -2.04,15.49 -2.04,15.32 1.31,18.67 				"/>
				<polygon class="st101" points="0.96,18.67 -2.04,15.67 -2.04,15.49 1.13,18.67 				"/>
				<polygon class="st101" points="0.78,18.67 -2.04,15.85 -2.04,15.67 0.96,18.67 				"/>
				<polygon class="st102" points="0.6,18.67 -2.04,16.02 -2.04,15.85 0.78,18.67 				"/>
				<polygon class="st103" points="0.43,18.67 -2.04,16.2 -2.04,16.02 0.6,18.67 				"/>
				<polygon class="st103" points="0.25,18.67 -2.04,16.38 -2.04,16.2 0.43,18.67 				"/>
				<polygon class="st104" points="0.07,18.67 -2.04,16.55 -2.04,16.38 0.25,18.67 				"/>
				<polygon class="st105" points="-0.1,18.67 -2.04,16.73 -2.04,16.55 0.07,18.67 				"/>
				<polygon class="st106" points="-0.28,18.67 -2.04,16.9 -2.04,16.73 -0.1,18.67 				"/>
				<polygon class="st106" points="-0.45,18.67 -2.04,17.08 -2.04,16.9 -0.28,18.67 				"/>
				<polygon class="st106" points="-0.63,18.67 -2.04,17.26 -2.04,17.08 -0.45,18.67 				"/>
				<polygon class="st107" points="-0.81,18.67 -2.04,17.43 -2.04,17.26 -0.63,18.67 				"/>
				<polygon class="st108" points="-0.98,18.67 -2.04,17.61 -2.04,17.43 -0.81,18.67 				"/>
				<polygon class="st109" points="-1.16,18.67 -2.04,17.79 -2.04,17.61 -0.98,18.67 				"/>
				<polygon class="st109" points="-1.34,18.67 -2.04,17.96 -2.04,17.79 -1.16,18.67 				"/>
				<polygon class="st110" points="-1.51,18.67 -2.04,18.14 -2.04,17.96 -1.34,18.67 				"/>
				<polygon class="st111" points="-1.69,18.67 -2.04,18.31 -2.04,18.14 -1.51,18.67 				"/>
				<polygon class="st111" points="-1.86,18.67 -2.04,18.49 -2.04,18.31 -1.69,18.67 				"/>
				<polygon class="st112" points="-2.04,18.49 -1.86,18.67 -2.04,18.67 				"/>
			</g>
		</g>
	</g>
	<g>
		<defs>
			<path id="SVGID_9_" d="M9.73,5.69L2.32,1.48C1.88,1.23,1.49,1.26,1.26,1.51l6.32,6.32L9.73,5.69"/>
		</defs>
		<clipPath id="SVGID_10_">
			<use xlink:href="#SVGID_9_"  style="overflow:visible;"/>
		</clipPath>
		<g class="st113">
			<g>
				<defs>
					
						<rect id="SVGID_11_" x="0.17" y="-0.8" transform="matrix(0.7071 -0.7071 0.7071 0.7071 -1.5936 5.2115)" width="10.66" height="10.66"/>
				</defs>
				<clipPath id="SVGID_12_">
					<use xlink:href="#SVGID_11_"  style="overflow:visible;"/>
				</clipPath>
				<polygon class="st114" points="-1.93,-3.01 -2.04,-2.9 -2.04,-3.01 				"/>
				<polygon class="st115" points="-1.6,-3.01 -2.04,-2.56 -2.04,-2.9 -1.93,-3.01 				"/>
				<polygon class="st116" points="-1.26,-3.01 -2.04,-2.23 -2.04,-2.56 -1.6,-3.01 				"/>
				<polygon class="st117" points="-0.92,-3.01 -2.04,-1.89 -2.04,-2.23 -1.26,-3.01 				"/>
				<polygon class="st118" points="-0.59,-3.01 -2.04,-1.55 -2.04,-1.89 -0.92,-3.01 				"/>
				<polygon class="st119" points="-0.25,-3.01 -2.04,-1.22 -2.04,-1.55 -0.59,-3.01 				"/>
				<polygon class="st120" points="0.09,-3.01 -2.04,-0.88 -2.04,-1.22 -0.25,-3.01 				"/>
				<polygon class="st121" points="0.42,-3.01 -2.04,-0.54 -2.04,-0.88 0.09,-3.01 				"/>
				<polygon class="st122" points="0.76,-3.01 -2.04,-0.21 -2.04,-0.54 0.42,-3.01 				"/>
				<polygon class="st123" points="1.1,-3.01 -2.04,0.13 -2.04,-0.21 0.76,-3.01 				"/>
				<polygon class="st124" points="1.43,-3.01 -2.04,0.47 -2.04,0.13 1.1,-3.01 				"/>
				<polygon class="st125" points="1.77,-3.01 -2.04,0.8 -2.04,0.47 1.43,-3.01 				"/>
				<polygon class="st126" points="2.11,-3.01 -2.04,1.14 -2.04,0.8 1.77,-3.01 				"/>
				<polygon class="st127" points="2.44,-3.01 -2.04,1.48 -2.04,1.14 2.11,-3.01 				"/>
				<polygon class="st128" points="2.78,-3.01 -2.04,1.81 -2.04,1.48 2.44,-3.01 				"/>
				<polygon class="st129" points="3.12,-3.01 -2.04,2.15 -2.04,1.81 2.78,-3.01 				"/>
				<polygon class="st130" points="3.45,-3.01 -2.04,2.49 -2.04,2.15 3.12,-3.01 				"/>
				<polygon class="st131" points="3.79,-3.01 -2.04,2.82 -2.04,2.49 3.45,-3.01 				"/>
				<polygon class="st132" points="4.13,-3.01 -2.04,3.16 -2.04,2.82 3.79,-3.01 				"/>
				<polygon class="st133" points="4.46,-3.01 -2.04,3.5 -2.04,3.16 4.13,-3.01 				"/>
				<polygon class="st134" points="4.8,-3.01 -2.04,3.84 -2.04,3.5 4.46,-3.01 				"/>
				<polygon class="st135" points="5.14,-3.01 -2.04,4.17 -2.04,3.84 4.8,-3.01 				"/>
				<polygon class="st136" points="5.47,-3.01 -2.04,4.51 -2.04,4.17 5.14,-3.01 				"/>
				<polygon class="st137" points="5.81,-3.01 -2.04,4.85 -2.04,4.51 5.47,-3.01 				"/>
				<polygon class="st138" points="6.15,-3.01 -2.04,5.18 -2.04,4.85 5.81,-3.01 				"/>
				<polygon class="st139" points="6.48,-3.01 -2.04,5.52 -2.04,5.18 6.15,-3.01 				"/>
				<polygon class="st140" points="6.82,-3.01 -2.04,5.86 -2.04,5.52 6.48,-3.01 				"/>
				<polygon class="st141" points="7.16,-3.01 -2.04,6.19 -2.04,5.86 6.82,-3.01 				"/>
				<polygon class="st142" points="7.49,-3.01 -2.04,6.53 -2.04,6.19 7.16,-3.01 				"/>
				<polygon class="st143" points="7.83,-3.01 -2.04,6.87 -2.04,6.53 7.49,-3.01 				"/>
				<polygon class="st144" points="8.17,-3.01 -2.04,7.2 -2.04,6.87 7.83,-3.01 				"/>
				<polygon class="st145" points="8.5,-3.01 -2.04,7.54 -2.04,7.2 8.17,-3.01 				"/>
				<polygon class="st146" points="8.84,-3.01 -2.04,7.88 -2.04,7.54 8.5,-3.01 				"/>
				<polygon class="st147" points="9.18,-3.01 -2.04,8.21 -2.04,7.88 8.84,-3.01 				"/>
				<polygon class="st148" points="9.51,-3.01 -2.04,8.55 -2.04,8.21 9.18,-3.01 				"/>
				<polygon class="st149" points="9.85,-3.01 -2.04,8.89 -2.04,8.55 9.51,-3.01 				"/>
				<polygon class="st150" points="10.19,-3.01 -2.04,9.22 -2.04,8.89 9.85,-3.01 				"/>
				<polygon class="st151" points="10.53,-3.01 -2.04,9.56 -2.04,9.22 10.19,-3.01 				"/>
				<polygon class="st152" points="10.86,-3.01 -2.04,9.9 -2.04,9.56 10.53,-3.01 				"/>
				<polygon class="st153" points="11.2,-3.01 -2.04,10.23 -2.04,9.9 10.86,-3.01 				"/>
				<polygon class="st154" points="11.54,-3.01 -2.04,10.57 -2.04,10.23 11.2,-3.01 				"/>
				<polygon class="st155" points="11.87,-3.01 -2.04,10.91 -2.04,10.57 11.54,-3.01 				"/>
				<polygon class="st156" points="12.21,-3.01 -2.04,11.24 -2.04,10.91 11.87,-3.01 				"/>
				<polygon class="st157" points="12.55,-3.01 -2.04,11.58 -2.04,11.24 12.21,-3.01 				"/>
				<polygon class="st158" points="12.88,-3.01 -2.04,11.92 -2.04,11.58 12.55,-3.01 				"/>
				<polygon class="st159" points="13.03,-2.81 -1.85,12.06 -2.04,12.06 -2.04,11.92 12.88,-3.01 13.03,-3.01 				"/>
				<polygon class="st160" points="13.03,-2.48 -1.51,12.06 -1.85,12.06 13.03,-2.81 				"/>
				<polygon class="st161" points="13.03,-2.14 -1.18,12.06 -1.51,12.06 13.03,-2.48 				"/>
				<polygon class="st161" points="-1.18,12.06 13.03,-2.14 13.03,12.06 				"/>
			</g>
		</g>
	</g>
</g>
</svg>
