<svg width="1032" height="283" viewBox="0 0 1032 283" fill="none" xmlns="http://www.w3.org/2000/svg">
<g filter="url(#filter0_d)">
<circle cx="134.5" cy="136.5" r="111.5" fill="white"/>
</g>
<g filter="url(#filter1_d)">
<circle cx="465.5" cy="136.5" r="111.5" fill="white"/>
</g>
<rect x="0.5" y="2.5" width="600" height="268" rx="134" stroke="#00934B"/>
<path d="M119 132.22C119 130.46 120.32 129.22 122.08 129.22C123.84 129.22 125.16 130.46 125.16 132.22C125.16 133.98 123.84 135.22 122.08 135.22C120.32 135.22 119 133.98 119 132.22ZM126.76 132.22C126.76 129.62 124.76 127.8 122.08 127.8C119.4 127.8 117.4 129.62 117.4 132.22C117.4 134.82 119.4 136.64 122.08 136.64C124.76 136.64 126.76 134.82 126.76 132.22ZM121.46 138.4H119.82V144.08H131.78V142.74H121.46V138.4ZM130.98 132V126.54H129.34V139.74H130.98V133.36H133.62V132H130.98ZM144.978 131.5V132.84H148.578V139.7H150.238V126.56H148.578V131.5H144.978ZM146.038 135.72C143.438 134.8 141.678 132.56 141.678 130.22V129.34H145.618V128H136.038V129.34H140.038V130.24C140.038 132.78 138.178 135.16 135.518 136.12L136.378 137.4C138.478 136.64 140.118 134.98 140.898 132.94C141.678 134.78 143.218 136.28 145.218 137L146.038 135.72ZM140.418 142.74V138.54H138.758V144.08H150.738V142.74H140.418Z" fill="black"/>
<path d="M457 140.82V136.02H462.48V134.7H451.68V128.08H450.04V136.02H455.36V140.82H448.04V142.16H464.34V140.82H457ZM479.018 133.22H470.118V128.86H479.018V133.22ZM480.638 127.54H468.518V134.52H480.638V127.54ZM482.718 136.96H466.438V138.28H473.718V144.46H475.358V138.28H482.718V136.96Z" fill="black"/>
<g filter="url(#filter2_d)">
<circle cx="890.5" cy="136.5" r="111.5" fill="#00934B"/>
</g>
<path d="M854.974 122.06H847.394V120.16H854.974V122.06ZM857.574 116H854.974V118.1H847.394V116H844.774V124.16H857.574V116ZM859.554 125.9H842.874V128H849.834V133.74H852.474V128H859.554V125.9ZM872.292 124.04C869.312 123.08 868.072 120.76 868.072 118.42V116.42H865.392V118.4C865.392 120.92 864.092 123.38 860.992 124.38L862.392 126.44C864.492 125.74 865.952 124.3 866.772 122.46C867.572 124.12 868.932 125.44 870.932 126.1L872.292 124.04ZM866.552 127.5H863.912V133.4H876.412V131.3H866.552V127.5ZM875.772 120.64V115.3H873.132V128.78H875.772V122.82H878.212V120.64H875.772ZM887.371 121.16C887.371 119.66 888.411 118.76 889.791 118.76C891.151 118.76 892.211 119.66 892.211 121.16C892.211 122.66 891.151 123.56 889.791 123.56C888.411 123.56 887.371 122.66 887.371 121.16ZM894.771 121.16C894.771 118.44 892.591 116.48 889.791 116.48C886.971 116.48 884.791 118.44 884.791 121.16C884.791 123.86 886.971 125.84 889.791 125.84C892.591 125.84 894.771 123.86 894.771 121.16ZM889.911 127.32H887.271V133.4H899.811V131.3H889.911V127.32ZM899.151 120.58V115.3H896.511V128.7H899.151V122.74H901.591V120.58H899.151ZM912.929 120.06V122.2H915.809V128.74H918.449V115.3H915.809V120.06H912.929ZM914.149 124.3C911.249 123.32 909.989 121.06 909.989 118.88V118.64H913.569V116.54H903.669V118.64H907.289V118.9C907.289 121.22 905.969 123.64 902.949 124.62L904.289 126.72C906.429 126 907.869 124.54 908.689 122.72C909.489 124.38 910.849 125.7 912.869 126.36L914.149 124.3ZM908.949 131.3V127.62H906.309V133.4H918.869V131.3H908.949ZM930.848 126V127.8H934.308V129.26H936.948V115.3H934.308V126H930.848ZM927.308 117.84C928.528 117.84 929.388 118.32 929.388 119.22C929.388 120.12 928.528 120.58 927.308 120.58C926.068 120.58 925.208 120.12 925.208 119.22C925.208 118.32 926.068 117.84 927.308 117.84ZM927.308 122.5C929.988 122.5 931.888 121.18 931.888 119.22C931.888 117.26 929.988 115.92 927.308 115.92C924.608 115.92 922.728 117.26 922.728 119.22C922.728 121.18 924.608 122.5 927.308 122.5ZM926.328 131.3V128.78H928.868V125.3C930.348 125.18 931.828 125.02 933.268 124.78L933.088 122.9C929.208 123.4 924.728 123.44 921.368 123.46L921.708 125.56C923.088 125.56 924.628 125.54 926.248 125.46V127.92H923.688V133.4H937.348V131.3H926.328ZM869.211 149.219C869.211 147.728 869.41 146.309 869.807 144.961C870.204 143.613 870.79 142.422 871.564 141.387C872.339 140.345 873.179 139.622 874.084 139.219L874.631 140.742C873.68 141.445 872.938 142.533 872.404 144.004C871.87 145.475 871.604 147.194 871.604 149.16V149.463C871.604 151.436 871.867 153.161 872.395 154.639C872.922 156.117 873.667 157.22 874.631 157.949L874.084 159.443C873.199 159.046 872.372 158.343 871.604 157.334C870.842 156.331 870.259 155.173 869.855 153.857C869.452 152.542 869.237 151.169 869.211 149.736V149.219ZM876.301 155V140.781H881.281C883.007 140.781 884.315 141.113 885.207 141.777C886.099 142.435 886.545 143.402 886.545 144.678C886.545 145.374 886.366 145.99 886.008 146.523C885.65 147.051 885.152 147.438 884.514 147.686C885.243 147.868 885.816 148.236 886.232 148.789C886.656 149.342 886.867 150.02 886.867 150.82C886.867 152.188 886.431 153.223 885.559 153.926C884.686 154.629 883.443 154.987 881.828 155H876.301ZM879.23 148.809V152.646H881.74C882.43 152.646 882.967 152.484 883.352 152.158C883.742 151.826 883.938 151.37 883.938 150.791C883.938 149.489 883.264 148.828 881.916 148.809H879.23ZM879.23 146.738H881.398C882.876 146.712 883.615 146.123 883.615 144.971C883.615 144.326 883.426 143.864 883.049 143.584C882.678 143.298 882.089 143.154 881.281 143.154H879.23V146.738ZM896.447 151.27C896.447 150.716 896.252 150.293 895.861 150C895.471 149.701 894.768 149.388 893.752 149.062C892.736 148.73 891.932 148.405 891.34 148.086C889.725 147.214 888.918 146.038 888.918 144.561C888.918 143.792 889.133 143.109 889.562 142.51C889.999 141.904 890.62 141.432 891.428 141.094C892.242 140.755 893.153 140.586 894.162 140.586C895.178 140.586 896.083 140.771 896.877 141.143C897.671 141.507 898.286 142.025 898.723 142.695C899.165 143.366 899.387 144.128 899.387 144.98H896.457C896.457 144.329 896.252 143.825 895.842 143.467C895.432 143.102 894.855 142.92 894.113 142.92C893.397 142.92 892.84 143.073 892.443 143.379C892.046 143.678 891.848 144.076 891.848 144.57C891.848 145.033 892.079 145.42 892.541 145.732C893.01 146.045 893.697 146.338 894.602 146.611C896.268 147.113 897.482 147.734 898.244 148.477C899.006 149.219 899.387 150.143 899.387 151.25C899.387 152.48 898.921 153.447 897.99 154.15C897.059 154.847 895.806 155.195 894.23 155.195C893.137 155.195 892.141 154.997 891.242 154.6C890.344 154.196 889.657 153.646 889.182 152.949C888.713 152.253 888.479 151.445 888.479 150.527H891.418C891.418 152.096 892.355 152.881 894.23 152.881C894.927 152.881 895.471 152.741 895.861 152.461C896.252 152.174 896.447 151.777 896.447 151.27ZM904.494 155H901.564V140.781H904.494V155ZM911.896 149.443C911.896 150.915 911.685 152.331 911.262 153.691C910.839 155.052 910.23 156.253 909.436 157.295C908.641 158.337 907.792 159.053 906.887 159.443L906.34 157.949C907.264 157.253 907.993 156.178 908.527 154.727C909.061 153.275 909.338 151.605 909.357 149.717V149.199C909.357 147.253 909.09 145.537 908.557 144.053C908.029 142.568 907.29 141.455 906.34 140.713L906.887 139.219C907.772 139.603 908.605 140.299 909.387 141.309C910.174 142.318 910.783 143.493 911.213 144.834C911.649 146.175 911.877 147.565 911.896 149.004V149.443Z" fill="white"/>
<path d="M301.564 135.271H308.701V138.348H301.564V146.434H298.295V138.348H291.158V135.271H298.295V127.801H301.564V135.271Z" fill="black"/>
<path d="M685.453 134.691H670.793V131.861H685.453V134.691ZM685.453 141.986H670.793V139.174H685.453V141.986Z" fill="black"/>
<defs>
<filter id="filter0_d" x="3" y="10" width="263" height="263" filterUnits="userSpaceOnUse" color-interpolation-filters="sRGB">
<feFlood flood-opacity="0" result="BackgroundImageFix"/>
<feColorMatrix in="SourceAlpha" type="matrix" values="0 0 0 0 0 0 0 0 0 0 0 0 0 0 0 0 0 0 127 0"/>
<feOffset dy="5"/>
<feGaussianBlur stdDeviation="10"/>
<feColorMatrix type="matrix" values="0 0 0 0 0 0 0 0 0 0 0 0 0 0 0 0 0 0 0.1 0"/>
<feBlend mode="normal" in2="BackgroundImageFix" result="effect1_dropShadow"/>
<feBlend mode="normal" in="SourceGraphic" in2="effect1_dropShadow" result="shape"/>
</filter>
<filter id="filter1_d" x="334" y="10" width="263" height="263" filterUnits="userSpaceOnUse" color-interpolation-filters="sRGB">
<feFlood flood-opacity="0" result="BackgroundImageFix"/>
<feColorMatrix in="SourceAlpha" type="matrix" values="0 0 0 0 0 0 0 0 0 0 0 0 0 0 0 0 0 0 127 0"/>
<feOffset dy="5"/>
<feGaussianBlur stdDeviation="10"/>
<feColorMatrix type="matrix" values="0 0 0 0 0 0 0 0 0 0 0 0 0 0 0 0 0 0 0.1 0"/>
<feBlend mode="normal" in2="BackgroundImageFix" result="effect1_dropShadow"/>
<feBlend mode="normal" in="SourceGraphic" in2="effect1_dropShadow" result="shape"/>
</filter>
<filter id="filter2_d" x="749" y="0" width="283" height="283" filterUnits="userSpaceOnUse" color-interpolation-filters="sRGB">
<feFlood flood-opacity="0" result="BackgroundImageFix"/>
<feColorMatrix in="SourceAlpha" type="matrix" values="0 0 0 0 0 0 0 0 0 0 0 0 0 0 0 0 0 0 127 0"/>
<feOffset dy="5"/>
<feGaussianBlur stdDeviation="15"/>
<feColorMatrix type="matrix" values="0 0 0 0 0.27451 0 0 0 0 0.32549 0 0 0 0 0.635294 0 0 0 0.25 0"/>
<feBlend mode="normal" in2="BackgroundImageFix" result="effect1_dropShadow"/>
<feBlend mode="normal" in="SourceGraphic" in2="effect1_dropShadow" result="shape"/>
</filter>
</defs>
</svg>
