<svg width="1032" height="283" viewBox="0 0 1032 283" fill="none" xmlns="http://www.w3.org/2000/svg">
<g filter="url(#filter0_d)">
<circle cx="134.5" cy="136.5" r="111.5" fill="white"/>
</g>
<g filter="url(#filter1_d)">
<circle cx="465.5" cy="136.5" r="111.5" fill="white"/>
</g>
<rect x="1" y="3" width="599" height="267" rx="133.5" stroke="#00934B" stroke-width="2"/>
<path d="M110.5 130.83C110.5 128.19 112.48 126.33 115.12 126.33C117.76 126.33 119.74 128.19 119.74 130.83C119.74 133.47 117.76 135.33 115.12 135.33C112.48 135.33 110.5 133.47 110.5 130.83ZM122.14 130.83C122.14 126.93 119.14 124.2 115.12 124.2C111.1 124.2 108.1 126.93 108.1 130.83C108.1 134.73 111.1 137.46 115.12 137.46C119.14 137.46 122.14 134.73 122.14 130.83ZM114.19 140.1H111.73V148.62H129.67V146.61H114.19V140.1ZM128.47 130.5V122.31H126.01V142.11H128.47V132.54H132.43V130.5H128.47ZM149.468 129.75V131.76H154.868V142.05H157.358V122.34H154.868V129.75H149.468ZM151.058 136.08C147.158 134.7 144.518 131.34 144.518 127.83V126.51H150.428V124.5H136.058V126.51H142.058V127.86C142.058 131.67 139.268 135.24 135.278 136.68L136.568 138.6C139.718 137.46 142.178 134.97 143.348 131.91C144.518 134.67 146.828 136.92 149.828 138L151.058 136.08ZM142.628 146.61V140.31H140.138V148.62H158.108V146.61H142.628Z" fill="black"/>
<path d="M452 143.73V136.53H460.22V134.55H444.02V124.62H441.56V136.53H449.54V143.73H438.56V145.74H463.01V143.73H452ZM485.028 132.33H471.678V125.79H485.028V132.33ZM487.458 123.81H469.278V134.28H487.458V123.81ZM490.578 137.94H466.158V139.92H477.078V149.19H479.538V139.92H490.578V137.94Z" fill="black"/>
<g filter="url(#filter2_d)">
<path d="M1002 136.5C1002 198.08 952.08 248 890.5 248C828.92 248 779 198.08 779 136.5C779 74.9202 828.92 25 890.5 25C952.08 25 1002 74.9202 1002 136.5Z" fill="#00934B"/>
</g>
<path d="M836.711 115.09H825.341V112.24H836.711V115.09ZM840.611 106H836.711V109.15H825.341V106H821.411V118.24H840.611V106ZM843.581 120.85H818.561V124H829.001V132.61H832.961V124H843.581V120.85ZM862.688 118.06C858.218 116.62 856.358 113.14 856.358 109.63V106.63H852.338V109.6C852.338 113.38 850.388 117.07 845.738 118.57L847.838 121.66C850.988 120.61 853.178 118.45 854.408 115.69C855.608 118.18 857.648 120.16 860.648 121.15L862.688 118.06ZM854.078 123.25H850.118V132.1H868.868V128.95H854.078V123.25ZM867.908 112.96V104.95H863.948V125.17H867.908V116.23H871.568V112.96H867.908ZM885.307 113.74C885.307 111.49 886.867 110.14 888.937 110.14C890.977 110.14 892.567 111.49 892.567 113.74C892.567 115.99 890.977 117.34 888.937 117.34C886.867 117.34 885.307 115.99 885.307 113.74ZM896.407 113.74C896.407 109.66 893.137 106.72 888.937 106.72C884.707 106.72 881.437 109.66 881.437 113.74C881.437 117.79 884.707 120.76 888.937 120.76C893.137 120.76 896.407 117.79 896.407 113.74ZM889.117 122.98H885.157V132.1H903.967V128.95H889.117V122.98ZM902.977 112.87V104.95H899.017V125.05H902.977V116.11H906.637V112.87H902.977ZM923.644 112.09V115.3H927.964V125.11H931.924V104.95H927.964V112.09H923.644ZM925.474 118.45C921.124 116.98 919.234 113.59 919.234 110.32V109.96H924.604V106.81H909.754V109.96H915.184V110.35C915.184 113.83 913.204 117.46 908.674 118.93L910.684 122.08C913.894 121 916.054 118.81 917.284 116.08C918.484 118.57 920.524 120.55 923.554 121.54L925.474 118.45ZM917.674 128.95V123.43H913.714V132.1H932.554V128.95H917.674ZM950.522 121V123.7H955.712V125.89H959.672V104.95H955.712V121H950.522ZM945.212 108.76C947.042 108.76 948.332 109.48 948.332 110.83C948.332 112.18 947.042 112.87 945.212 112.87C943.352 112.87 942.062 112.18 942.062 110.83C942.062 109.48 943.352 108.76 945.212 108.76ZM945.212 115.75C949.232 115.75 952.082 113.77 952.082 110.83C952.082 107.89 949.232 105.88 945.212 105.88C941.162 105.88 938.342 107.89 938.342 110.83C938.342 113.77 941.162 115.75 945.212 115.75ZM943.742 128.95V125.17H947.552V119.95C949.772 119.77 951.992 119.53 954.152 119.17L953.882 116.35C948.062 117.1 941.342 117.16 936.302 117.19L936.812 120.34C938.882 120.34 941.192 120.31 943.622 120.19V123.88H939.782V132.1H960.272V128.95H943.742ZM858.066 156.328C858.066 154.092 858.364 151.963 858.96 149.941C859.556 147.92 860.435 146.133 861.597 144.58C862.759 143.018 864.019 141.934 865.376 141.328L866.196 143.613C864.771 144.668 863.657 146.299 862.856 148.506C862.056 150.713 861.655 153.291 861.655 156.24V156.694C861.655 159.653 862.051 162.241 862.842 164.458C863.633 166.675 864.751 168.33 866.196 169.424L865.376 171.665C864.048 171.069 862.808 170.015 861.655 168.501C860.513 166.997 859.639 165.259 859.033 163.286C858.428 161.313 858.105 159.253 858.066 157.104V156.328ZM868.701 165V143.672H876.172C878.76 143.672 880.723 144.17 882.061 145.166C883.398 146.152 884.067 147.603 884.067 149.517C884.067 150.562 883.799 151.484 883.262 152.285C882.725 153.076 881.978 153.657 881.021 154.028C882.114 154.302 882.974 154.854 883.599 155.684C884.233 156.514 884.551 157.529 884.551 158.73C884.551 160.781 883.896 162.334 882.588 163.389C881.279 164.443 879.414 164.98 876.992 165H868.701ZM873.096 155.713V161.47H876.86C877.896 161.47 878.701 161.226 879.277 160.737C879.863 160.239 880.156 159.556 880.156 158.687C880.156 156.733 879.146 155.742 877.124 155.713H873.096ZM873.096 152.607H876.348C878.564 152.568 879.673 151.685 879.673 149.956C879.673 148.989 879.39 148.296 878.823 147.876C878.267 147.446 877.383 147.231 876.172 147.231H873.096V152.607ZM898.921 159.404C898.921 158.574 898.628 157.939 898.042 157.5C897.456 157.051 896.401 156.582 894.878 156.094C893.354 155.596 892.148 155.107 891.26 154.629C888.838 153.32 887.627 151.558 887.627 149.341C887.627 148.188 887.949 147.163 888.594 146.265C889.248 145.356 890.181 144.648 891.392 144.141C892.612 143.633 893.979 143.379 895.493 143.379C897.017 143.379 898.374 143.657 899.565 144.214C900.757 144.761 901.68 145.537 902.334 146.543C902.998 147.549 903.33 148.691 903.33 149.971H898.936C898.936 148.994 898.628 148.237 898.013 147.7C897.397 147.153 896.533 146.88 895.42 146.88C894.346 146.88 893.511 147.109 892.915 147.568C892.319 148.018 892.021 148.613 892.021 149.355C892.021 150.049 892.368 150.63 893.062 151.099C893.765 151.567 894.795 152.007 896.152 152.417C898.652 153.169 900.474 154.102 901.616 155.215C902.759 156.328 903.33 157.715 903.33 159.375C903.33 161.221 902.632 162.671 901.235 163.726C899.839 164.771 897.959 165.293 895.596 165.293C893.955 165.293 892.461 164.995 891.113 164.399C889.766 163.794 888.735 162.969 888.022 161.924C887.319 160.879 886.968 159.668 886.968 158.291H891.377C891.377 160.645 892.783 161.821 895.596 161.821C896.641 161.821 897.456 161.611 898.042 161.191C898.628 160.762 898.921 160.166 898.921 159.404ZM910.991 165H906.597V143.672H910.991V165ZM922.095 156.665C922.095 158.872 921.777 160.996 921.143 163.037C920.508 165.078 919.595 166.88 918.403 168.442C917.212 170.005 915.938 171.079 914.58 171.665L913.76 169.424C915.146 168.379 916.24 166.768 917.041 164.59C917.842 162.412 918.257 159.907 918.286 157.075V156.299C918.286 153.379 917.886 150.806 917.085 148.579C916.294 146.353 915.186 144.683 913.76 143.569L914.58 141.328C915.908 141.904 917.158 142.949 918.33 144.463C919.512 145.977 920.425 147.739 921.069 149.751C921.724 151.763 922.065 153.848 922.095 156.006V156.665Z" fill="white"/>
<path d="M301.738 135.746H309.668V139.164H301.738V148.148H298.105V139.164H290.176V135.746H298.105V127.445H301.738V135.746Z" fill="black"/>
<path d="M698.281 135.102H681.992V131.957H698.281V135.102ZM698.281 143.207H681.992V140.082H698.281V143.207Z" fill="black"/>
<defs>
<filter id="filter0_d" x="3" y="10" width="263" height="263" filterUnits="userSpaceOnUse" color-interpolation-filters="sRGB">
<feFlood flood-opacity="0" result="BackgroundImageFix"/>
<feColorMatrix in="SourceAlpha" type="matrix" values="0 0 0 0 0 0 0 0 0 0 0 0 0 0 0 0 0 0 127 0"/>
<feOffset dy="5"/>
<feGaussianBlur stdDeviation="10"/>
<feColorMatrix type="matrix" values="0 0 0 0 0 0 0 0 0 0 0 0 0 0 0 0 0 0 0.1 0"/>
<feBlend mode="normal" in2="BackgroundImageFix" result="effect1_dropShadow"/>
<feBlend mode="normal" in="SourceGraphic" in2="effect1_dropShadow" result="shape"/>
</filter>
<filter id="filter1_d" x="334" y="10" width="263" height="263" filterUnits="userSpaceOnUse" color-interpolation-filters="sRGB">
<feFlood flood-opacity="0" result="BackgroundImageFix"/>
<feColorMatrix in="SourceAlpha" type="matrix" values="0 0 0 0 0 0 0 0 0 0 0 0 0 0 0 0 0 0 127 0"/>
<feOffset dy="5"/>
<feGaussianBlur stdDeviation="10"/>
<feColorMatrix type="matrix" values="0 0 0 0 0 0 0 0 0 0 0 0 0 0 0 0 0 0 0.1 0"/>
<feBlend mode="normal" in2="BackgroundImageFix" result="effect1_dropShadow"/>
<feBlend mode="normal" in="SourceGraphic" in2="effect1_dropShadow" result="shape"/>
</filter>
<filter id="filter2_d" x="749" y="0" width="283" height="283" filterUnits="userSpaceOnUse" color-interpolation-filters="sRGB">
<feFlood flood-opacity="0" result="BackgroundImageFix"/>
<feColorMatrix in="SourceAlpha" type="matrix" values="0 0 0 0 0 0 0 0 0 0 0 0 0 0 0 0 0 0 127 0"/>
<feOffset dy="5"/>
<feGaussianBlur stdDeviation="15"/>
<feColorMatrix type="matrix" values="0 0 0 0 0.27451 0 0 0 0 0.32549 0 0 0 0 0.635294 0 0 0 0.25 0"/>
<feBlend mode="normal" in2="BackgroundImageFix" result="effect1_dropShadow"/>
<feBlend mode="normal" in="SourceGraphic" in2="effect1_dropShadow" result="shape"/>
</filter>
</defs>
</svg>
