<svg width="68" height="69" viewBox="0 0 68 69" fill="none" xmlns="http://www.w3.org/2000/svg">
<path d="M2.71913 0H0V2.74629H2.71913V0Z" fill="black"/>
<path d="M5.43837 0H2.71924V2.74629H5.43837V0Z" fill="black"/>
<path d="M8.16005 0H5.44092V2.74629H8.16005V0Z" fill="black"/>
<path d="M10.8793 0H8.16016V2.74629H10.8793V0Z" fill="black"/>
<path d="M13.5983 0H10.8792V2.74629H13.5983V0Z" fill="black"/>
<path d="M16.3202 0H13.6011V2.74629H16.3202V0Z" fill="black"/>
<path d="M19.0394 0H16.3203V2.74629H19.0394V0Z" fill="black"/>
<path d="M24.4804 0H21.7612V2.74629H24.4804V0Z" fill="black"/>
<path d="M27.1996 0H24.4805V2.74629H27.1996V0Z" fill="black"/>
<path d="M29.9186 0H27.1995V2.74629H29.9186V0Z" fill="black"/>
<path d="M32.6405 0H29.9214V2.74629H32.6405V0Z" fill="black"/>
<path d="M51.6798 0H48.9607V2.74629H51.6798V0Z" fill="black"/>
<path d="M54.4018 0H51.6826V2.74629H54.4018V0Z" fill="black"/>
<path d="M57.1207 0H54.4016V2.74629H57.1207V0Z" fill="black"/>
<path d="M59.84 0H57.1208V2.74629H59.84V0Z" fill="black"/>
<path d="M62.5617 0H59.8425V2.74629H62.5617V0Z" fill="black"/>
<path d="M65.2809 0H62.5618V2.74629H65.2809V0Z" fill="black"/>
<path d="M67.9999 0H65.2808V2.74629H67.9999V0Z" fill="black"/>
<path d="M2.71913 2.74634H0V5.49263H2.71913V2.74634Z" fill="black"/>
<path d="M19.0394 2.74634H16.3203V5.49263H19.0394V2.74634Z" fill="black"/>
<path d="M32.6405 2.74634H29.9214V5.49263H32.6405V2.74634Z" fill="black"/>
<path d="M35.3595 2.74634H32.6404V5.49263H35.3595V2.74634Z" fill="black"/>
<path d="M38.0787 2.74634H35.3596V5.49263H38.0787V2.74634Z" fill="black"/>
<path d="M40.8004 2.74634H38.0813V5.49263H40.8004V2.74634Z" fill="black"/>
<path d="M46.2389 2.74634H43.5198V5.49263H46.2389V2.74634Z" fill="black"/>
<path d="M51.6798 2.74634H48.9607V5.49263H51.6798V2.74634Z" fill="black"/>
<path d="M67.9999 2.74634H65.2808V5.49263H67.9999V2.74634Z" fill="black"/>
<path d="M2.71913 5.49268H0V8.23897H2.71913V5.49268Z" fill="black"/>
<path d="M8.16005 5.49268H5.44092V8.23897H8.16005V5.49268Z" fill="black"/>
<path d="M10.8793 5.49268H8.16016V8.23897H10.8793V5.49268Z" fill="black"/>
<path d="M13.5983 5.49268H10.8792V8.23897H13.5983V5.49268Z" fill="black"/>
<path d="M19.0394 5.49268H16.3203V8.23897H19.0394V5.49268Z" fill="black"/>
<path d="M27.1996 5.49268H24.4805V8.23897H27.1996V5.49268Z" fill="black"/>
<path d="M32.6405 5.49268H29.9214V8.23897H32.6405V5.49268Z" fill="black"/>
<path d="M38.0787 5.49268H35.3596V8.23897H38.0787V5.49268Z" fill="black"/>
<path d="M43.5197 5.49268H40.8005V8.23897H43.5197V5.49268Z" fill="black"/>
<path d="M46.2389 5.49268H43.5198V8.23897H46.2389V5.49268Z" fill="black"/>
<path d="M51.6798 5.49268H48.9607V8.23897H51.6798V5.49268Z" fill="black"/>
<path d="M57.1207 5.49268H54.4016V8.23897H57.1207V5.49268Z" fill="black"/>
<path d="M59.84 5.49268H57.1208V8.23897H59.84V5.49268Z" fill="black"/>
<path d="M62.5617 5.49268H59.8425V8.23897H62.5617V5.49268Z" fill="black"/>
<path d="M67.9999 5.49268H65.2808V8.23897H67.9999V5.49268Z" fill="black"/>
<path d="M2.71913 8.23901H0V10.9853H2.71913V8.23901Z" fill="black"/>
<path d="M8.16005 8.23901H5.44092V10.9853H8.16005V8.23901Z" fill="black"/>
<path d="M10.8793 8.23901H8.16016V10.9853H10.8793V8.23901Z" fill="black"/>
<path d="M13.5983 8.23901H10.8792V10.9853H13.5983V8.23901Z" fill="black"/>
<path d="M19.0394 8.23901H16.3203V10.9853H19.0394V8.23901Z" fill="black"/>
<path d="M29.9186 8.23901H27.1995V10.9853H29.9186V8.23901Z" fill="black"/>
<path d="M32.6405 8.23901H29.9214V10.9853H32.6405V8.23901Z" fill="black"/>
<path d="M38.0787 8.23901H35.3596V10.9853H38.0787V8.23901Z" fill="black"/>
<path d="M43.5197 8.23901H40.8005V10.9853H43.5197V8.23901Z" fill="black"/>
<path d="M46.2389 8.23901H43.5198V10.9853H46.2389V8.23901Z" fill="black"/>
<path d="M51.6798 8.23901H48.9607V10.9853H51.6798V8.23901Z" fill="black"/>
<path d="M57.1207 8.23901H54.4016V10.9853H57.1207V8.23901Z" fill="black"/>
<path d="M59.84 8.23901H57.1208V10.9853H59.84V8.23901Z" fill="black"/>
<path d="M62.5617 8.23901H59.8425V10.9853H62.5617V8.23901Z" fill="black"/>
<path d="M67.9999 8.23901H65.2808V10.9853H67.9999V8.23901Z" fill="black"/>
<path d="M2.71913 10.9851H0V13.7314H2.71913V10.9851Z" fill="black"/>
<path d="M8.16005 10.9851H5.44092V13.7314H8.16005V10.9851Z" fill="black"/>
<path d="M10.8793 10.9851H8.16016V13.7314H10.8793V10.9851Z" fill="black"/>
<path d="M13.5983 10.9851H10.8792V13.7314H13.5983V10.9851Z" fill="black"/>
<path d="M19.0394 10.9851H16.3203V13.7314H19.0394V10.9851Z" fill="black"/>
<path d="M29.9186 10.9851H27.1995V13.7314H29.9186V10.9851Z" fill="black"/>
<path d="M32.6405 10.9851H29.9214V13.7314H32.6405V10.9851Z" fill="black"/>
<path d="M35.3595 10.9851H32.6404V13.7314H35.3595V10.9851Z" fill="black"/>
<path d="M40.8004 10.9851H38.0813V13.7314H40.8004V10.9851Z" fill="black"/>
<path d="M46.2389 10.9851H43.5198V13.7314H46.2389V10.9851Z" fill="black"/>
<path d="M51.6798 10.9851H48.9607V13.7314H51.6798V10.9851Z" fill="black"/>
<path d="M57.1207 10.9851H54.4016V13.7314H57.1207V10.9851Z" fill="black"/>
<path d="M59.84 10.9851H57.1208V13.7314H59.84V10.9851Z" fill="black"/>
<path d="M62.5617 10.9851H59.8425V13.7314H62.5617V10.9851Z" fill="black"/>
<path d="M67.9999 10.9851H65.2808V13.7314H67.9999V10.9851Z" fill="black"/>
<path d="M2.71913 13.7341H0V16.4804H2.71913V13.7341Z" fill="black"/>
<path d="M19.0394 13.7341H16.3203V16.4804H19.0394V13.7341Z" fill="black"/>
<path d="M27.1996 13.7341H24.4805V16.4804H27.1996V13.7341Z" fill="black"/>
<path d="M32.6405 13.7341H29.9214V16.4804H32.6405V13.7341Z" fill="black"/>
<path d="M40.8004 13.7341H38.0813V16.4804H40.8004V13.7341Z" fill="black"/>
<path d="M46.2389 13.7341H43.5198V16.4804H46.2389V13.7341Z" fill="black"/>
<path d="M51.6798 13.7341H48.9607V16.4804H51.6798V13.7341Z" fill="black"/>
<path d="M67.9999 13.7341H65.2808V16.4804H67.9999V13.7341Z" fill="black"/>
<path d="M2.71913 16.4805H0V19.2268H2.71913V16.4805Z" fill="black"/>
<path d="M5.43837 16.4805H2.71924V19.2268H5.43837V16.4805Z" fill="black"/>
<path d="M8.16005 16.4805H5.44092V19.2268H8.16005V16.4805Z" fill="black"/>
<path d="M10.8793 16.4805H8.16016V19.2268H10.8793V16.4805Z" fill="black"/>
<path d="M13.5983 16.4805H10.8792V19.2268H13.5983V16.4805Z" fill="black"/>
<path d="M16.3202 16.4805H13.6011V19.2268H16.3202V16.4805Z" fill="black"/>
<path d="M19.0394 16.4805H16.3203V19.2268H19.0394V16.4805Z" fill="black"/>
<path d="M24.4804 16.4805H21.7612V19.2268H24.4804V16.4805Z" fill="black"/>
<path d="M29.9186 16.4805H27.1995V19.2268H29.9186V16.4805Z" fill="black"/>
<path d="M35.3595 16.4805H32.6404V19.2268H35.3595V16.4805Z" fill="black"/>
<path d="M40.8004 16.4805H38.0813V19.2268H40.8004V16.4805Z" fill="black"/>
<path d="M46.2389 16.4805H43.5198V19.2268H46.2389V16.4805Z" fill="black"/>
<path d="M51.6798 16.4805H48.9607V19.2268H51.6798V16.4805Z" fill="black"/>
<path d="M54.4018 16.4805H51.6826V19.2268H54.4018V16.4805Z" fill="black"/>
<path d="M57.1207 16.4805H54.4016V19.2268H57.1207V16.4805Z" fill="black"/>
<path d="M59.84 16.4805H57.1208V19.2268H59.84V16.4805Z" fill="black"/>
<path d="M62.5617 16.4805H59.8425V19.2268H62.5617V16.4805Z" fill="black"/>
<path d="M65.2809 16.4805H62.5618V19.2268H65.2809V16.4805Z" fill="black"/>
<path d="M67.9999 16.4805H65.2808V19.2268H67.9999V16.4805Z" fill="black"/>
<path d="M24.4804 19.2268H21.7612V21.9731H24.4804V19.2268Z" fill="black"/>
<path d="M27.1996 19.2268H24.4805V21.9731H27.1996V19.2268Z" fill="black"/>
<path d="M35.3595 19.2268H32.6404V21.9731H35.3595V19.2268Z" fill="black"/>
<path d="M38.0787 19.2268H35.3596V21.9731H38.0787V19.2268Z" fill="black"/>
<path d="M2.71913 21.9731H0V24.7194H2.71913V21.9731Z" fill="black"/>
<path d="M5.43837 21.9731H2.71924V24.7194H5.43837V21.9731Z" fill="black"/>
<path d="M10.8793 21.9731H8.16016V24.7194H10.8793V21.9731Z" fill="black"/>
<path d="M13.5983 21.9731H10.8792V24.7194H13.5983V21.9731Z" fill="black"/>
<path d="M19.0394 21.9731H16.3203V24.7194H19.0394V21.9731Z" fill="black"/>
<path d="M27.1996 21.9731H24.4805V24.7194H27.1996V21.9731Z" fill="black"/>
<path d="M35.3595 21.9731H32.6404V24.7194H35.3595V21.9731Z" fill="black"/>
<path d="M40.8004 21.9731H38.0813V24.7194H40.8004V21.9731Z" fill="black"/>
<path d="M43.5197 21.9731H40.8005V24.7194H43.5197V21.9731Z" fill="black"/>
<path d="M51.6798 21.9731H48.9607V24.7194H51.6798V21.9731Z" fill="black"/>
<path d="M67.9999 21.9731H65.2808V24.7194H67.9999V21.9731Z" fill="black"/>
<path d="M2.71913 24.7195H0V27.4658H2.71913V24.7195Z" fill="black"/>
<path d="M5.43837 24.7195H2.71924V27.4658H5.43837V24.7195Z" fill="black"/>
<path d="M8.16005 24.7195H5.44092V27.4658H8.16005V24.7195Z" fill="black"/>
<path d="M13.5983 24.7195H10.8792V27.4658H13.5983V24.7195Z" fill="black"/>
<path d="M16.3202 24.7195H13.6011V27.4658H16.3202V24.7195Z" fill="black"/>
<path d="M21.7584 24.7195H19.0393V27.4658H21.7584V24.7195Z" fill="black"/>
<path d="M29.9186 24.7195H27.1995V27.4658H29.9186V24.7195Z" fill="black"/>
<path d="M38.0787 24.7195H35.3596V27.4658H38.0787V24.7195Z" fill="black"/>
<path d="M40.8004 24.7195H38.0813V27.4658H40.8004V24.7195Z" fill="black"/>
<path d="M43.5197 24.7195H40.8005V27.4658H43.5197V24.7195Z" fill="black"/>
<path d="M48.9606 24.7195H46.2415V27.4658H48.9606V24.7195Z" fill="black"/>
<path d="M54.4018 24.7195H51.6826V27.4658H54.4018V24.7195Z" fill="black"/>
<path d="M57.1207 24.7195H54.4016V27.4658H57.1207V24.7195Z" fill="black"/>
<path d="M59.84 24.7195H57.1208V27.4658H59.84V24.7195Z" fill="black"/>
<path d="M62.5617 24.7195H59.8425V27.4658H62.5617V24.7195Z" fill="black"/>
<path d="M65.2809 24.7195H62.5618V27.4658H65.2809V24.7195Z" fill="black"/>
<path d="M2.71913 27.4656H0V30.2119H2.71913V27.4656Z" fill="black"/>
<path d="M8.16005 27.4656H5.44092V30.2119H8.16005V27.4656Z" fill="black"/>
<path d="M13.5983 27.4656H10.8792V30.2119H13.5983V27.4656Z" fill="black"/>
<path d="M19.0394 27.4656H16.3203V30.2119H19.0394V27.4656Z" fill="black"/>
<path d="M21.7584 27.4656H19.0393V30.2119H21.7584V27.4656Z" fill="black"/>
<path d="M24.4804 27.4656H21.7612V30.2119H24.4804V27.4656Z" fill="black"/>
<path d="M27.1996 27.4656H24.4805V30.2119H27.1996V27.4656Z" fill="black"/>
<path d="M35.3595 27.4656H32.6404V30.2119H35.3595V27.4656Z" fill="black"/>
<path d="M43.5197 27.4656H40.8005V30.2119H43.5197V27.4656Z" fill="black"/>
<path d="M46.2389 27.4656H43.5198V30.2119H46.2389V27.4656Z" fill="black"/>
<path d="M51.6798 27.4656H48.9607V30.2119H51.6798V27.4656Z" fill="black"/>
<path d="M54.4018 27.4656H51.6826V30.2119H54.4018V27.4656Z" fill="black"/>
<path d="M59.84 27.4656H57.1208V30.2119H59.84V27.4656Z" fill="black"/>
<path d="M67.9999 27.4656H65.2808V30.2119H67.9999V27.4656Z" fill="black"/>
<path d="M2.71913 30.2119H0V32.9582H2.71913V30.2119Z" fill="black"/>
<path d="M5.43837 30.2119H2.71924V32.9582H5.43837V30.2119Z" fill="black"/>
<path d="M21.7584 30.2119H19.0393V32.9582H21.7584V30.2119Z" fill="black"/>
<path d="M24.4804 30.2119H21.7612V32.9582H24.4804V30.2119Z" fill="black"/>
<path d="M43.5197 30.2119H40.8005V32.9582H43.5197V30.2119Z" fill="black"/>
<path d="M54.4018 30.2119H51.6826V32.9582H54.4018V30.2119Z" fill="black"/>
<path d="M59.84 30.2119H57.1208V32.9582H59.84V30.2119Z" fill="black"/>
<path d="M62.5617 30.2119H59.8425V32.9582H62.5617V30.2119Z" fill="black"/>
<path d="M65.2809 30.2119H62.5618V32.9582H65.2809V30.2119Z" fill="black"/>
<path d="M67.9999 30.2119H65.2808V32.9582H67.9999V30.2119Z" fill="black"/>
<path d="M8.16005 32.9583H5.44092V35.7045H8.16005V32.9583Z" fill="black"/>
<path d="M10.8793 32.9583H8.16016V35.7045H10.8793V32.9583Z" fill="black"/>
<path d="M19.0394 32.9583H16.3203V35.7045H19.0394V32.9583Z" fill="black"/>
<path d="M24.4804 32.9583H21.7612V35.7045H24.4804V32.9583Z" fill="black"/>
<path d="M27.1996 32.9583H24.4805V35.7045H27.1996V32.9583Z" fill="black"/>
<path d="M29.9186 32.9583H27.1995V35.7045H29.9186V32.9583Z" fill="black"/>
<path d="M40.8004 32.9583H38.0813V35.7045H40.8004V32.9583Z" fill="black"/>
<path d="M43.5197 32.9583H40.8005V35.7045H43.5197V32.9583Z" fill="black"/>
<path d="M51.6798 32.9583H48.9607V35.7045H51.6798V32.9583Z" fill="black"/>
<path d="M67.9999 32.9583H65.2808V35.7045H67.9999V32.9583Z" fill="black"/>
<path d="M2.71913 35.7073H0V38.4536H2.71913V35.7073Z" fill="black"/>
<path d="M8.16005 35.7073H5.44092V38.4536H8.16005V35.7073Z" fill="black"/>
<path d="M10.8793 35.7073H8.16016V38.4536H10.8793V35.7073Z" fill="black"/>
<path d="M16.3202 35.7073H13.6011V38.4536H16.3202V35.7073Z" fill="black"/>
<path d="M21.7584 35.7073H19.0393V38.4536H21.7584V35.7073Z" fill="black"/>
<path d="M29.9186 35.7073H27.1995V38.4536H29.9186V35.7073Z" fill="black"/>
<path d="M35.3595 35.7073H32.6404V38.4536H35.3595V35.7073Z" fill="black"/>
<path d="M40.8004 35.7073H38.0813V38.4536H40.8004V35.7073Z" fill="black"/>
<path d="M43.5197 35.7073H40.8005V38.4536H43.5197V35.7073Z" fill="black"/>
<path d="M46.2389 35.7073H43.5198V38.4536H46.2389V35.7073Z" fill="black"/>
<path d="M48.9606 35.7073H46.2415V38.4536H48.9606V35.7073Z" fill="black"/>
<path d="M57.1207 35.7073H54.4016V38.4536H57.1207V35.7073Z" fill="black"/>
<path d="M65.2809 35.7073H62.5618V38.4536H65.2809V35.7073Z" fill="black"/>
<path d="M2.71913 38.4536H0V41.1999H2.71913V38.4536Z" fill="black"/>
<path d="M5.43837 38.4536H2.71924V41.1999H5.43837V38.4536Z" fill="black"/>
<path d="M10.8793 38.4536H8.16016V41.1999H10.8793V38.4536Z" fill="black"/>
<path d="M13.5983 38.4536H10.8792V41.1999H13.5983V38.4536Z" fill="black"/>
<path d="M16.3202 38.4536H13.6011V41.1999H16.3202V38.4536Z" fill="black"/>
<path d="M19.0394 38.4536H16.3203V41.1999H19.0394V38.4536Z" fill="black"/>
<path d="M21.7584 38.4536H19.0393V41.1999H21.7584V38.4536Z" fill="black"/>
<path d="M27.1996 38.4536H24.4805V41.1999H27.1996V38.4536Z" fill="black"/>
<path d="M40.8004 38.4536H38.0813V41.1999H40.8004V38.4536Z" fill="black"/>
<path d="M43.5197 38.4536H40.8005V41.1999H43.5197V38.4536Z" fill="black"/>
<path d="M48.9606 38.4536H46.2415V41.1999H48.9606V38.4536Z" fill="black"/>
<path d="M51.6798 38.4536H48.9607V41.1999H51.6798V38.4536Z" fill="black"/>
<path d="M57.1207 38.4536H54.4016V41.1999H57.1207V38.4536Z" fill="black"/>
<path d="M59.84 38.4536H57.1208V41.1999H59.84V38.4536Z" fill="black"/>
<path d="M62.5617 38.4536H59.8425V41.1999H62.5617V38.4536Z" fill="black"/>
<path d="M65.2809 38.4536H62.5618V41.1999H65.2809V38.4536Z" fill="black"/>
<path d="M67.9999 38.4536H65.2808V41.1999H67.9999V38.4536Z" fill="black"/>
<path d="M2.71913 41.2H0V43.9462H2.71913V41.2Z" fill="black"/>
<path d="M16.3202 41.2H13.6011V43.9462H16.3202V41.2Z" fill="black"/>
<path d="M21.7584 41.2H19.0393V43.9462H21.7584V41.2Z" fill="black"/>
<path d="M27.1996 41.2H24.4805V43.9462H27.1996V41.2Z" fill="black"/>
<path d="M35.3595 41.2H32.6404V43.9462H35.3595V41.2Z" fill="black"/>
<path d="M40.8004 41.2H38.0813V43.9462H40.8004V41.2Z" fill="black"/>
<path d="M46.2389 41.2H43.5198V43.9462H46.2389V41.2Z" fill="black"/>
<path d="M48.9606 41.2H46.2415V43.9462H48.9606V41.2Z" fill="black"/>
<path d="M54.4018 41.2H51.6826V43.9462H54.4018V41.2Z" fill="black"/>
<path d="M59.84 41.2H57.1208V43.9462H59.84V41.2Z" fill="black"/>
<path d="M62.5617 41.2H59.8425V43.9462H62.5617V41.2Z" fill="black"/>
<path d="M67.9999 41.2H65.2808V43.9462H67.9999V41.2Z" fill="black"/>
<path d="M2.71913 43.946H0V46.6923H2.71913V43.946Z" fill="black"/>
<path d="M8.16005 43.946H5.44092V46.6923H8.16005V43.946Z" fill="black"/>
<path d="M10.8793 43.946H8.16016V46.6923H10.8793V43.946Z" fill="black"/>
<path d="M13.5983 43.946H10.8792V46.6923H13.5983V43.946Z" fill="black"/>
<path d="M19.0394 43.946H16.3203V46.6923H19.0394V43.946Z" fill="black"/>
<path d="M21.7584 43.946H19.0393V46.6923H21.7584V43.946Z" fill="black"/>
<path d="M29.9186 43.946H27.1995V46.6923H29.9186V43.946Z" fill="black"/>
<path d="M32.6405 43.946H29.9214V46.6923H32.6405V43.946Z" fill="black"/>
<path d="M35.3595 43.946H32.6404V46.6923H35.3595V43.946Z" fill="black"/>
<path d="M38.0787 43.946H35.3596V46.6923H38.0787V43.946Z" fill="black"/>
<path d="M43.5197 43.946H40.8005V46.6923H43.5197V43.946Z" fill="black"/>
<path d="M46.2389 43.946H43.5198V46.6923H46.2389V43.946Z" fill="black"/>
<path d="M48.9606 43.946H46.2415V46.6923H48.9606V43.946Z" fill="black"/>
<path d="M51.6798 43.946H48.9607V46.6923H51.6798V43.946Z" fill="black"/>
<path d="M54.4018 43.946H51.6826V46.6923H54.4018V43.946Z" fill="black"/>
<path d="M57.1207 43.946H54.4016V46.6923H57.1207V43.946Z" fill="black"/>
<path d="M62.5617 43.946H59.8425V46.6923H62.5617V43.946Z" fill="black"/>
<path d="M65.2809 43.946H62.5618V46.6923H65.2809V43.946Z" fill="black"/>
<path d="M24.4804 46.6924H21.7612V49.4387H24.4804V46.6924Z" fill="black"/>
<path d="M27.1996 46.6924H24.4805V49.4387H27.1996V46.6924Z" fill="black"/>
<path d="M32.6405 46.6924H29.9214V49.4387H32.6405V46.6924Z" fill="black"/>
<path d="M46.2389 46.6924H43.5198V49.4387H46.2389V46.6924Z" fill="black"/>
<path d="M57.1207 46.6924H54.4016V49.4387H57.1207V46.6924Z" fill="black"/>
<path d="M62.5617 46.6924H59.8425V49.4387H62.5617V46.6924Z" fill="black"/>
<path d="M65.2809 46.6924H62.5618V49.4387H65.2809V46.6924Z" fill="black"/>
<path d="M2.71913 49.4387H0V52.185H2.71913V49.4387Z" fill="black"/>
<path d="M5.43837 49.4387H2.71924V52.185H5.43837V49.4387Z" fill="black"/>
<path d="M8.16005 49.4387H5.44092V52.185H8.16005V49.4387Z" fill="black"/>
<path d="M10.8793 49.4387H8.16016V52.185H10.8793V49.4387Z" fill="black"/>
<path d="M13.5983 49.4387H10.8792V52.185H13.5983V49.4387Z" fill="black"/>
<path d="M16.3202 49.4387H13.6011V52.185H16.3202V49.4387Z" fill="black"/>
<path d="M19.0394 49.4387H16.3203V52.185H19.0394V49.4387Z" fill="black"/>
<path d="M29.9186 49.4387H27.1995V52.185H29.9186V49.4387Z" fill="black"/>
<path d="M35.3595 49.4387H32.6404V52.185H35.3595V49.4387Z" fill="black"/>
<path d="M40.8004 49.4387H38.0813V52.185H40.8004V49.4387Z" fill="black"/>
<path d="M46.2389 49.4387H43.5198V52.185H46.2389V49.4387Z" fill="black"/>
<path d="M51.6798 49.4387H48.9607V52.185H51.6798V49.4387Z" fill="black"/>
<path d="M57.1207 49.4387H54.4016V52.185H57.1207V49.4387Z" fill="black"/>
<path d="M67.9999 49.4387H65.2808V52.185H67.9999V49.4387Z" fill="black"/>
<path d="M2.71913 52.1851H0V54.9314H2.71913V52.1851Z" fill="black"/>
<path d="M19.0394 52.1851H16.3203V54.9314H19.0394V52.1851Z" fill="black"/>
<path d="M32.6405 52.1851H29.9214V54.9314H32.6405V52.1851Z" fill="black"/>
<path d="M38.0787 52.1851H35.3596V54.9314H38.0787V52.1851Z" fill="black"/>
<path d="M43.5197 52.1851H40.8005V54.9314H43.5197V52.1851Z" fill="black"/>
<path d="M46.2389 52.1851H43.5198V54.9314H46.2389V52.1851Z" fill="black"/>
<path d="M57.1207 52.1851H54.4016V54.9314H57.1207V52.1851Z" fill="black"/>
<path d="M67.9999 52.1851H65.2808V54.9314H67.9999V52.1851Z" fill="black"/>
<path d="M2.71913 54.9314H0V57.6777H2.71913V54.9314Z" fill="black"/>
<path d="M8.16005 54.9314H5.44092V57.6777H8.16005V54.9314Z" fill="black"/>
<path d="M10.8793 54.9314H8.16016V57.6777H10.8793V54.9314Z" fill="black"/>
<path d="M13.5983 54.9314H10.8792V57.6777H13.5983V54.9314Z" fill="black"/>
<path d="M19.0394 54.9314H16.3203V57.6777H19.0394V54.9314Z" fill="black"/>
<path d="M24.4804 54.9314H21.7612V57.6777H24.4804V54.9314Z" fill="black"/>
<path d="M29.9186 54.9314H27.1995V57.6777H29.9186V54.9314Z" fill="black"/>
<path d="M32.6405 54.9314H29.9214V57.6777H32.6405V54.9314Z" fill="black"/>
<path d="M35.3595 54.9314H32.6404V57.6777H35.3595V54.9314Z" fill="black"/>
<path d="M40.8004 54.9314H38.0813V57.6777H40.8004V54.9314Z" fill="black"/>
<path d="M43.5197 54.9314H40.8005V57.6777H43.5197V54.9314Z" fill="black"/>
<path d="M46.2389 54.9314H43.5198V57.6777H46.2389V54.9314Z" fill="black"/>
<path d="M48.9606 54.9314H46.2415V57.6777H48.9606V54.9314Z" fill="black"/>
<path d="M51.6798 54.9314H48.9607V57.6777H51.6798V54.9314Z" fill="black"/>
<path d="M54.4018 54.9314H51.6826V57.6777H54.4018V54.9314Z" fill="black"/>
<path d="M57.1207 54.9314H54.4016V57.6777H57.1207V54.9314Z" fill="black"/>
<path d="M2.71913 57.6777H0V60.424H2.71913V57.6777Z" fill="black"/>
<path d="M8.16005 57.6777H5.44092V60.424H8.16005V57.6777Z" fill="black"/>
<path d="M10.8793 57.6777H8.16016V60.424H10.8793V57.6777Z" fill="black"/>
<path d="M13.5983 57.6777H10.8792V60.424H13.5983V57.6777Z" fill="black"/>
<path d="M19.0394 57.6777H16.3203V60.424H19.0394V57.6777Z" fill="black"/>
<path d="M24.4804 57.6777H21.7612V60.424H24.4804V57.6777Z" fill="black"/>
<path d="M27.1996 57.6777H24.4805V60.424H27.1996V57.6777Z" fill="black"/>
<path d="M35.3595 57.6777H32.6404V60.424H35.3595V57.6777Z" fill="black"/>
<path d="M38.0787 57.6777H35.3596V60.424H38.0787V57.6777Z" fill="black"/>
<path d="M40.8004 57.6777H38.0813V60.424H40.8004V57.6777Z" fill="black"/>
<path d="M51.6798 57.6777H48.9607V60.424H51.6798V57.6777Z" fill="black"/>
<path d="M65.2809 57.6777H62.5618V60.424H65.2809V57.6777Z" fill="black"/>
<path d="M67.9999 57.6777H65.2808V60.424H67.9999V57.6777Z" fill="black"/>
<path d="M2.71913 60.4265H0V63.1728H2.71913V60.4265Z" fill="black"/>
<path d="M8.16005 60.4265H5.44092V63.1728H8.16005V60.4265Z" fill="black"/>
<path d="M10.8793 60.4265H8.16016V63.1728H10.8793V60.4265Z" fill="black"/>
<path d="M13.5983 60.4265H10.8792V63.1728H13.5983V60.4265Z" fill="black"/>
<path d="M19.0394 60.4265H16.3203V63.1728H19.0394V60.4265Z" fill="black"/>
<path d="M27.1996 60.4265H24.4805V63.1728H27.1996V60.4265Z" fill="black"/>
<path d="M32.6405 60.4265H29.9214V63.1728H32.6405V60.4265Z" fill="black"/>
<path d="M38.0787 60.4265H35.3596V63.1728H38.0787V60.4265Z" fill="black"/>
<path d="M43.5197 60.4265H40.8005V63.1728H43.5197V60.4265Z" fill="black"/>
<path d="M48.9606 60.4265H46.2415V63.1728H48.9606V60.4265Z" fill="black"/>
<path d="M57.1207 60.4265H54.4016V63.1728H57.1207V60.4265Z" fill="black"/>
<path d="M59.84 60.4265H57.1208V63.1728H59.84V60.4265Z" fill="black"/>
<path d="M62.5617 60.4265H59.8425V63.1728H62.5617V60.4265Z" fill="black"/>
<path d="M65.2809 60.4265H62.5618V63.1728H65.2809V60.4265Z" fill="black"/>
<path d="M67.9999 60.4265H65.2808V63.1728H67.9999V60.4265Z" fill="black"/>
<path d="M2.71913 63.1729H0V65.9191H2.71913V63.1729Z" fill="black"/>
<path d="M19.0394 63.1729H16.3203V65.9191H19.0394V63.1729Z" fill="black"/>
<path d="M24.4804 63.1729H21.7612V65.9191H24.4804V63.1729Z" fill="black"/>
<path d="M29.9186 63.1729H27.1995V65.9191H29.9186V63.1729Z" fill="black"/>
<path d="M32.6405 63.1729H29.9214V65.9191H32.6405V63.1729Z" fill="black"/>
<path d="M40.8004 63.1729H38.0813V65.9191H40.8004V63.1729Z" fill="black"/>
<path d="M43.5197 63.1729H40.8005V65.9191H43.5197V63.1729Z" fill="black"/>
<path d="M54.4018 63.1729H51.6826V65.9191H54.4018V63.1729Z" fill="black"/>
<path d="M57.1207 63.1729H54.4016V65.9191H57.1207V63.1729Z" fill="black"/>
<path d="M62.5617 63.1729H59.8425V65.9191H62.5617V63.1729Z" fill="black"/>
<path d="M65.2809 63.1729H62.5618V65.9191H65.2809V63.1729Z" fill="black"/>
<path d="M67.9999 63.1729H65.2808V65.9191H67.9999V63.1729Z" fill="black"/>
<path d="M2.71913 65.9192H0V68.6655H2.71913V65.9192Z" fill="black"/>
<path d="M5.43837 65.9192H2.71924V68.6655H5.43837V65.9192Z" fill="black"/>
<path d="M8.16005 65.9192H5.44092V68.6655H8.16005V65.9192Z" fill="black"/>
<path d="M10.8793 65.9192H8.16016V68.6655H10.8793V65.9192Z" fill="black"/>
<path d="M13.5983 65.9192H10.8792V68.6655H13.5983V65.9192Z" fill="black"/>
<path d="M16.3202 65.9192H13.6011V68.6655H16.3202V65.9192Z" fill="black"/>
<path d="M19.0394 65.9192H16.3203V68.6655H19.0394V65.9192Z" fill="black"/>
<path d="M24.4804 65.9192H21.7612V68.6655H24.4804V65.9192Z" fill="black"/>
<path d="M27.1996 65.9192H24.4805V68.6655H27.1996V65.9192Z" fill="black"/>
<path d="M29.9186 65.9192H27.1995V68.6655H29.9186V65.9192Z" fill="black"/>
<path d="M35.3595 65.9192H32.6404V68.6655H35.3595V65.9192Z" fill="black"/>
<path d="M46.2389 65.9192H43.5198V68.6655H46.2389V65.9192Z" fill="black"/>
<path d="M48.9606 65.9192H46.2415V68.6655H48.9606V65.9192Z" fill="black"/>
<path d="M59.84 65.9192H57.1208V68.6655H59.84V65.9192Z" fill="black"/>
<path d="M67.9999 65.9192H65.2808V68.6655H67.9999V65.9192Z" fill="black"/>
</svg>
