<svg version="1.0" xmlns="http://www.w3.org/2000/svg"
 width="111.000000pt" height="110.000000pt" viewBox="0 0 111.000000 110.000000"
 preserveAspectRatio="xMidYMid meet">

<g transform="translate(0.000000,110.000000) scale(0.100000,-0.100000)"
fill="#000000" stroke="none">
<path d="M120 885 l0 -105 105 0 105 0 0 105 0 105 -105 0 -105 0 0 -105z
m180 0 l0 -75 -75 0 -75 0 0 75 0 75 75 0 75 0 0 -75z"/>
<path d="M180 885 l0 -45 45 0 45 0 0 45 0 45 -45 0 -45 0 0 -45z"/>
<path d="M360 915 l0 -75 30 0 c20 0 30 5 30 15 0 8 -7 15 -15 15 -10 0 -15
10 -15 30 0 20 5 30 15 30 8 0 15 7 15 15 0 8 -7 15 -15 15 -8 0 -15 7 -15 15
0 8 -7 15 -15 15 -12 0 -15 -15 -15 -75z"/>
<path d="M450 975 c0 -10 10 -15 30 -15 20 0 30 -5 30 -15 0 -10 -10 -15 -30
-15 -20 0 -30 -5 -30 -15 0 -11 12 -15 45 -15 33 0 45 -4 45 -15 0 -8 -7 -15
-15 -15 -10 0 -15 -10 -15 -30 0 -20 -5 -30 -15 -30 -8 0 -15 -7 -15 -15 0 -8
-7 -15 -15 -15 -8 0 -15 7 -15 15 0 8 -7 15 -15 15 -8 0 -15 -7 -15 -15 0 -8
7 -15 15 -15 8 0 15 -7 15 -15 0 -8 7 -15 15 -15 8 0 15 -7 15 -15 0 -10 10
-15 30 -15 20 0 30 5 30 15 0 10 -10 15 -30 15 -20 0 -30 5 -30 15 0 8 7 15
15 15 8 0 15 7 15 15 0 8 7 15 15 15 8 0 15 -7 15 -15 0 -8 7 -15 15 -15 10 0
15 -10 15 -30 0 -20 -5 -30 -15 -30 -8 0 -15 -7 -15 -15 0 -8 7 -15 15 -15 8
0 15 -7 15 -15 0 -8 -7 -15 -15 -15 -8 0 -15 -7 -15 -15 0 -10 -10 -15 -30
-15 -20 0 -30 -5 -30 -15 0 -8 -7 -15 -15 -15 -8 0 -15 7 -15 15 0 8 7 15 15
15 8 0 15 7 15 15 0 10 10 15 30 15 20 0 30 5 30 15 0 10 -10 15 -30 15 -20 0
-30 5 -30 15 0 8 -7 15 -15 15 -8 0 -15 7 -15 15 0 8 -7 15 -15 15 -8 0 -15 7
-15 15 0 8 -7 15 -15 15 -8 0 -15 7 -15 15 0 8 -7 15 -15 15 -10 0 -15 -10
-15 -30 0 -20 5 -30 15 -30 8 0 15 -7 15 -15 0 -8 7 -15 15 -15 10 0 15 -10
15 -30 0 -20 5 -30 15 -30 8 0 15 -7 15 -15 0 -8 -7 -15 -15 -15 -8 0 -15 -7
-15 -15 0 -8 7 -15 15 -15 8 0 15 -7 15 -15 0 -10 -10 -15 -30 -15 -20 0 -30
5 -30 15 0 8 -7 15 -15 15 -8 0 -15 7 -15 15 0 8 7 15 15 15 8 0 15 7 15 15 0
10 -10 15 -30 15 -20 0 -30 -5 -30 -15 0 -10 -10 -15 -30 -15 -20 0 -30 5 -30
15 0 10 10 15 30 15 20 0 30 5 30 15 0 8 -7 15 -15 15 -8 0 -15 7 -15 15 0 8
-7 15 -15 15 -8 0 -15 7 -15 15 0 8 -7 15 -15 15 -12 0 -15 -13 -15 -60 l0
-60 -30 0 c-20 0 -30 5 -30 15 0 8 -7 15 -15 15 -8 0 -15 7 -15 15 0 8 -7 15
-15 15 -8 0 -15 -7 -15 -15 0 -8 7 -15 15 -15 8 0 15 -7 15 -15 0 -8 7 -15 15
-15 8 0 15 -7 15 -15 0 -8 -7 -15 -15 -15 -8 0 -15 -7 -15 -15 0 -8 7 -15 15
-15 8 0 15 -7 15 -15 0 -8 7 -15 15 -15 8 0 15 -7 15 -15 0 -10 -10 -15 -30
-15 -20 0 -30 5 -30 15 0 8 -7 15 -15 15 -10 0 -15 -10 -15 -30 0 -29 2 -30
45 -30 43 0 45 -1 45 -30 0 -20 5 -30 15 -30 8 0 15 7 15 15 0 10 10 15 30 15
20 0 30 5 30 15 0 8 7 15 15 15 8 0 15 7 15 15 0 8 -7 15 -15 15 -8 0 -15 7
-15 15 0 8 7 15 15 15 8 0 15 7 15 15 0 10 10 15 30 15 20 0 30 -5 30 -15 0
-8 -7 -15 -15 -15 -8 0 -15 -7 -15 -15 0 -10 10 -15 30 -15 20 0 30 5 30 15 0
8 7 15 15 15 8 0 15 7 15 15 0 8 7 15 15 15 8 0 15 7 15 15 0 10 10 15 30 15
20 0 30 -5 30 -15 0 -8 7 -15 15 -15 8 0 15 -7 15 -15 0 -8 -7 -15 -15 -15 -8
0 -15 7 -15 15 0 10 -10 15 -30 15 -27 0 -30 -3 -30 -30 0 -20 -5 -30 -15 -30
-10 0 -15 -10 -15 -30 0 -20 5 -30 15 -30 10 0 15 10 15 30 l0 30 60 0 c47 0
60 -3 60 -15 0 -8 -7 -15 -15 -15 -8 0 -15 -7 -15 -15 0 -11 -12 -15 -45 -15
-33 0 -45 -4 -45 -15 0 -8 -7 -15 -15 -15 -11 0 -15 -12 -15 -45 0 -33 4 -45
15 -45 8 0 15 -7 15 -15 0 -8 -7 -15 -15 -15 -8 0 -15 -7 -15 -15 0 -11 -12
-15 -45 -15 -33 0 -45 -4 -45 -15 0 -8 7 -15 15 -15 8 0 15 -7 15 -15 0 -10
10 -15 30 -15 27 0 30 3 30 30 0 20 5 30 15 30 8 0 15 7 15 15 0 10 10 15 30
15 20 0 30 5 30 15 0 8 7 15 15 15 8 0 15 7 15 15 0 8 -7 15 -15 15 -8 0 -15
7 -15 15 0 8 -7 15 -15 15 -8 0 -15 7 -15 15 0 8 7 15 15 15 8 0 15 -7 15 -15
0 -8 7 -15 15 -15 8 0 15 7 15 15 0 8 7 15 15 15 8 0 15 -7 15 -15 0 -8 -7
-15 -15 -15 -8 0 -15 -7 -15 -15 0 -8 7 -15 15 -15 11 0 15 -12 15 -45 0 -43
-1 -45 -30 -45 -27 0 -30 -3 -30 -30 0 -20 -5 -30 -15 -30 -10 0 -15 -10 -15
-30 0 -20 -5 -30 -15 -30 -10 0 -15 10 -15 30 0 20 5 30 15 30 8 0 15 7 15 15
0 8 -7 15 -15 15 -8 0 -15 -7 -15 -15 0 -8 -7 -15 -15 -15 -8 0 -15 -7 -15
-15 0 -10 -10 -15 -30 -15 -20 0 -30 5 -30 15 0 8 -7 15 -15 15 -10 0 -15 -10
-15 -30 0 -29 2 -30 45 -30 33 0 45 -4 45 -15 0 -10 10 -15 30 -15 20 0 30 5
30 15 0 11 12 15 45 15 33 0 45 -4 45 -15 0 -10 10 -15 30 -15 29 0 30 2 30
45 0 33 -4 45 -15 45 -10 0 -15 -10 -15 -30 0 -20 -5 -30 -15 -30 -8 0 -15 7
-15 15 0 8 -7 15 -15 15 -8 0 -15 7 -15 15 0 8 7 15 15 15 10 0 15 10 15 30 0
20 5 30 15 30 8 0 15 7 15 15 0 8 7 15 15 15 8 0 15 7 15 15 0 8 -7 15 -15 15
-8 0 -15 7 -15 15 0 10 10 15 30 15 20 0 30 5 30 15 0 8 7 15 15 15 8 0 15 7
15 15 0 11 -12 15 -45 15 -33 0 -45 4 -45 15 0 8 7 15 15 15 8 0 15 7 15 15 0
8 -7 15 -15 15 -8 0 -15 7 -15 15 0 8 7 15 15 15 8 0 15 7 15 15 0 8 7 15 15
15 8 0 15 7 15 15 0 8 -7 15 -15 15 -11 0 -15 12 -15 45 0 33 -4 45 -15 45
-11 0 -15 -12 -15 -45 0 -33 4 -45 15 -45 8 0 15 -7 15 -15 0 -8 -7 -15 -15
-15 -8 0 -15 7 -15 15 0 8 -7 15 -15 15 -11 0 -15 12 -15 45 0 33 4 45 15 45
8 0 15 7 15 15 0 8 -7 15 -15 15 -11 0 -15 12 -15 45 0 33 -4 45 -15 45 -8 0
-15 7 -15 15 0 8 -7 15 -15 15 -10 0 -15 10 -15 30 0 20 5 30 15 30 8 0 15 7
15 15 0 8 -7 15 -15 15 -10 0 -15 10 -15 30 0 20 5 30 15 30 8 0 15 7 15 15 0
8 -7 15 -15 15 -8 0 -15 -7 -15 -15 0 -8 -7 -15 -15 -15 -8 0 -15 7 -15 15 0
10 -10 15 -30 15 -20 0 -30 -5 -30 -15z m-120 -390 c0 -8 -7 -15 -15 -15 -8 0
-15 -7 -15 -15 0 -8 -7 -15 -15 -15 -8 0 -15 -7 -15 -15 0 -8 -7 -15 -15 -15
-8 0 -15 7 -15 15 0 8 -7 15 -15 15 -8 0 -15 7 -15 15 0 8 -7 15 -15 15 -8 0
-15 7 -15 15 0 12 15 15 75 15 60 0 75 -3 75 -15z m210 -240 c0 -10 -10 -15
-30 -15 -20 0 -30 5 -30 15 0 10 10 15 30 15 20 0 30 -5 30 -15z"/>
<path d="M240 555 c0 -8 7 -15 15 -15 8 0 15 7 15 15 0 8 -7 15 -15 15 -8 0
-15 -7 -15 -15z"/>
<path d="M600 960 c0 -20 -5 -30 -15 -30 -8 0 -15 -7 -15 -15 0 -8 7 -15 15
-15 8 0 15 -7 15 -15 0 -8 -7 -15 -15 -15 -10 0 -15 -10 -15 -30 0 -20 5 -30
15 -30 8 0 15 -7 15 -15 0 -8 7 -15 15 -15 8 0 15 7 15 15 0 8 7 15 15 15 8 0
15 -7 15 -15 0 -8 -7 -15 -15 -15 -11 0 -15 -12 -15 -45 l0 -45 45 0 c33 0 45
-4 45 -15 0 -8 -7 -15 -15 -15 -8 0 -15 -7 -15 -15 0 -8 7 -15 15 -15 8 0 15
7 15 15 0 10 10 15 30 15 20 0 30 5 30 15 0 8 7 15 15 15 8 0 15 -7 15 -15 0
-8 -7 -15 -15 -15 -10 0 -15 -10 -15 -30 0 -27 -3 -30 -30 -30 -29 0 -30 -2
-30 -45 0 -43 -1 -45 -30 -45 -20 0 -30 -5 -30 -15 0 -8 7 -15 15 -15 8 0 15
-7 15 -15 0 -8 7 -15 15 -15 8 0 15 -7 15 -15 0 -10 10 -15 30 -15 20 0 30 5
30 15 0 8 7 15 15 15 10 0 15 10 15 30 0 27 3 30 30 30 27 0 30 -3 30 -30 0
-20 5 -30 15 -30 10 0 15 10 15 30 0 20 -5 30 -15 30 -8 0 -15 7 -15 15 0 10
-10 15 -30 15 -20 0 -30 -5 -30 -15 0 -8 -7 -15 -15 -15 -8 0 -15 -7 -15 -15
0 -10 -10 -15 -30 -15 -20 0 -30 5 -30 15 0 8 7 15 15 15 8 0 15 7 15 15 0 8
7 15 15 15 8 0 15 7 15 15 0 10 10 15 30 15 20 0 30 5 30 15 0 8 -7 15 -15 15
-10 0 -15 10 -15 30 0 20 5 30 15 30 8 0 15 -7 15 -15 0 -8 7 -15 15 -15 8 0
15 -7 15 -15 0 -8 7 -15 15 -15 8 0 15 7 15 15 0 8 -7 15 -15 15 -8 0 -15 7
-15 15 0 10 10 15 30 15 20 0 30 -5 30 -15 0 -8 7 -15 15 -15 8 0 15 7 15 15
0 8 7 15 15 15 11 0 15 12 15 45 l0 45 -75 0 c-60 0 -75 -3 -75 -15 0 -12 13
-15 60 -15 47 0 60 -3 60 -15 0 -11 -12 -15 -45 -15 -33 0 -45 -4 -45 -15 0
-8 -7 -15 -15 -15 -8 0 -15 7 -15 15 0 8 -7 15 -15 15 -10 0 -15 10 -15 30 0
20 -5 30 -15 30 -8 0 -15 -7 -15 -15 0 -12 -13 -15 -60 -15 -47 0 -60 3 -60
15 0 8 7 15 15 15 10 0 15 10 15 30 0 20 5 30 15 30 8 0 15 -7 15 -15 0 -8 7
-15 15 -15 10 0 15 10 15 30 0 20 -5 30 -15 30 -8 0 -15 7 -15 15 0 8 -7 15
-15 15 -8 0 -15 7 -15 15 0 8 -7 15 -15 15 -8 0 -15 -7 -15 -15 0 -8 7 -15 15
-15 8 0 15 -7 15 -15 0 -11 -12 -15 -45 -15 -33 0 -45 4 -45 15 0 8 7 15 15
15 10 0 15 10 15 30 0 20 5 30 15 30 10 0 15 10 15 30 0 27 -3 30 -30 30 -27
0 -30 -3 -30 -30z"/>
<path d="M780 885 l0 -105 105 0 105 0 0 105 0 105 -105 0 -105 0 0 -105z
m180 0 l0 -75 -75 0 -75 0 0 75 0 75 75 0 75 0 0 -75z"/>
<path d="M840 885 l0 -45 45 0 45 0 0 45 0 45 -45 0 -45 0 0 -45z"/>
<path d="M690 945 c0 -8 7 -15 15 -15 8 0 15 -7 15 -15 0 -8 7 -15 15 -15 8 0
15 7 15 15 0 8 -7 15 -15 15 -8 0 -15 7 -15 15 0 8 -7 15 -15 15 -8 0 -15 -7
-15 -15z"/>
<path d="M450 855 c0 -8 7 -15 15 -15 8 0 15 7 15 15 0 8 -7 15 -15 15 -8 0
-15 -7 -15 -15z"/>
<path d="M150 735 c0 -10 10 -15 30 -15 20 0 30 5 30 15 0 10 -10 15 -30 15
-20 0 -30 -5 -30 -15z"/>
<path d="M300 735 c0 -8 7 -15 15 -15 8 0 15 -7 15 -15 0 -8 7 -15 15 -15 10
0 15 10 15 30 0 27 -3 30 -30 30 -20 0 -30 -5 -30 -15z"/>
<path d="M930 585 c0 -8 -7 -15 -15 -15 -8 0 -15 -7 -15 -15 0 -8 7 -15 15
-15 12 0 15 -13 15 -60 l0 -60 30 0 30 0 0 90 0 90 -30 0 c-20 0 -30 -5 -30
-15z"/>
<path d="M360 465 c0 -10 -10 -15 -30 -15 -20 0 -30 -5 -30 -15 0 -10 -10 -15
-30 -15 -27 0 -30 -3 -30 -30 l0 -30 60 0 60 0 0 -30 c0 -20 5 -30 15 -30 10
0 15 10 15 30 0 20 5 30 15 30 10 0 15 10 15 30 0 20 5 30 15 30 8 0 15 7 15
15 0 8 -7 15 -15 15 -8 0 -15 7 -15 15 0 10 -10 15 -30 15 -20 0 -30 -5 -30
-15z m30 -60 c0 -11 -12 -15 -45 -15 -33 0 -45 4 -45 15 0 11 12 15 45 15 33
0 45 -4 45 -15z"/>
<path d="M120 435 c0 -8 7 -15 15 -15 8 0 15 -7 15 -15 0 -8 -7 -15 -15 -15
-8 0 -15 -7 -15 -15 0 -8 7 -15 15 -15 8 0 15 7 15 15 0 8 7 15 15 15 8 0 15
-7 15 -15 0 -8 7 -15 15 -15 8 0 15 7 15 15 0 8 -7 15 -15 15 -8 0 -15 7 -15
15 0 8 -7 15 -15 15 -8 0 -15 7 -15 15 0 8 -7 15 -15 15 -8 0 -15 -7 -15 -15z"/>
<path d="M810 435 c0 -8 -7 -15 -15 -15 -8 0 -15 -7 -15 -15 0 -10 -10 -15
-30 -15 -20 0 -30 -5 -30 -15 0 -8 -7 -15 -15 -15 -11 0 -15 -12 -15 -45 0
-33 4 -45 15 -45 8 0 15 -7 15 -15 0 -12 13 -15 60 -15 l60 0 0 -30 c0 -27 -3
-30 -30 -30 -20 0 -30 -5 -30 -15 0 -8 -7 -15 -15 -15 -8 0 -15 7 -15 15 0 8
-7 15 -15 15 -8 0 -15 7 -15 15 0 8 -7 15 -15 15 -8 0 -15 -7 -15 -15 0 -8 7
-15 15 -15 10 0 15 -10 15 -30 0 -27 3 -30 30 -30 20 0 30 5 30 15 0 10 10 15
30 15 20 0 30 -5 30 -15 0 -8 7 -15 15 -15 8 0 15 7 15 15 0 8 -7 15 -15 15
-8 0 -15 7 -15 15 0 8 7 15 15 15 10 0 15 10 15 30 0 20 5 30 15 30 8 0 15 -7
15 -15 0 -8 7 -15 15 -15 8 0 15 7 15 15 0 8 -7 15 -15 15 -8 0 -15 7 -15 15
0 8 -7 15 -15 15 -12 0 -15 13 -15 60 0 47 3 60 15 60 8 0 15 7 15 15 0 8 -7
15 -15 15 -8 0 -15 -7 -15 -15 0 -8 -7 -15 -15 -15 -10 0 -15 10 -15 30 0 20
-5 30 -15 30 -8 0 -15 -7 -15 -15z m30 -120 l0 -45 -45 0 -45 0 0 45 0 45 45
0 45 0 0 -45z"/>
<path d="M780 315 c0 -8 7 -15 15 -15 8 0 15 7 15 15 0 8 -7 15 -15 15 -8 0
-15 -7 -15 -15z"/>
<path d="M930 375 c0 -8 7 -15 15 -15 8 0 15 -7 15 -15 0 -10 -10 -15 -30 -15
-20 0 -30 -5 -30 -15 0 -11 12 -15 45 -15 43 0 45 1 45 30 0 20 -5 30 -15 30
-8 0 -15 7 -15 15 0 8 -7 15 -15 15 -8 0 -15 -7 -15 -15z"/>
<path d="M120 225 l0 -105 105 0 105 0 0 105 0 105 -105 0 -105 0 0 -105z
m180 0 l0 -75 -75 0 -75 0 0 75 0 75 75 0 75 0 0 -75z"/>
<path d="M180 225 l0 -45 45 0 45 0 0 45 0 45 -45 0 -45 0 0 -45z"/>
<path d="M960 255 c0 -8 7 -15 15 -15 8 0 15 7 15 15 0 8 -7 15 -15 15 -8 0
-15 -7 -15 -15z"/>
<path d="M960 195 c0 -8 -7 -15 -15 -15 -10 0 -15 -10 -15 -30 0 -27 3 -30 30
-30 20 0 30 5 30 15 0 8 -7 15 -15 15 -8 0 -15 7 -15 15 0 8 7 15 15 15 8 0
15 7 15 15 0 8 -7 15 -15 15 -8 0 -15 -7 -15 -15z"/>
</g>
</svg>
