<svg width="280" height="47" viewBox="0 0 280 47" fill="none" xmlns="http://www.w3.org/2000/svg">
<path d="M189.563 35.8916H146.734V43.1549H189.563V35.8916Z" fill="#DA2128"/>
<path d="M96.3862 35.8916H53.5117V43.1549H96.3862V35.8916Z" fill="#DA2128"/>
<path d="M71.3242 4.33089L55.7091 24.8809C54.4071 26.5927 54.7395 29.0354 56.4479 30.34L59.1165 32.3756L75.0825 11.3629L91.0577 32.3848L93.6987 30.3677C95.4162 29.0539 95.7394 26.5834 94.4189 24.8717L78.453 4.29388C76.6431 1.96222 73.1156 1.98073 71.3242 4.33089Z" fill="#DA2128"/>
<path d="M136.616 0.222656C134.612 0.222656 132.996 1.85112 132.996 3.84968V43.2103H140.245V24.2887H144.077V20.6987C144.077 18.6724 142.433 17.0254 140.411 17.0254H140.245V3.85893C140.245 1.85112 138.62 0.222656 136.616 0.222656Z" fill="#DA2128"/>
<path d="M226.733 0.222656C224.729 0.222656 223.113 1.85112 223.113 3.84968V27.5364H230.362V18.0062H234.287V14.6752C234.287 12.5101 232.532 10.7521 230.371 10.7521V3.85893C230.362 1.85112 228.737 0.222656 226.733 0.222656Z" fill="#00934B"/>
<path d="M242.397 27.1939L252.619 9.44741H252.896L263.137 27.2217L265.03 26.1299C267.449 24.7327 268.281 21.6238 266.886 19.1997L261.272 9.44741H264.707C266.711 9.44741 268.327 7.81895 268.327 5.82038C268.327 3.81257 266.701 2.19336 264.707 2.19336H240.799C238.796 2.19336 237.18 3.82182 237.18 5.82038C237.18 7.8282 238.805 9.44741 240.799 9.44741H244.272L238.676 19.1626C237.281 21.5868 238.103 24.6957 240.532 26.0929L242.397 27.1939Z" fill="#00934B"/>
<path d="M101.23 6.40345V41.7022L128.49 41.7947V6.42195C128.49 4.1273 126.634 2.26753 124.353 2.26753L105.377 2.24902C103.096 2.24902 101.23 4.1088 101.23 6.40345ZM108.479 34.4389V9.45681H121.25V34.4481H108.479V34.4389Z" fill="#DA2128"/>
<path d="M196.946 29.4697H194.047V43.1358L232.341 43.1636V35.9003H201.296V33.837C201.296 31.422 199.347 29.4697 196.946 29.4697Z" fill="#00934B"/>
<path d="M239.978 29.4883H237.078V43.1544H279.99V35.8911H244.336V33.8463C244.336 31.4406 242.388 29.4883 239.978 29.4883Z" fill="#00934B"/>
<path d="M272.752 3.9239V10.7431C270.665 10.7431 268.984 12.4363 268.984 14.5181V17.9971H272.752V27.5273H280.001V3.9239C280.001 1.91608 278.376 0.296875 276.381 0.296875C274.368 0.296875 272.752 1.92533 272.752 3.9239Z" fill="#00934B"/>
<path d="M148.793 31.6902H187.623V28.1742C187.623 26.1016 185.951 24.4269 183.883 24.4269H155.959V20.4113H187.623V16.7657C187.623 14.7672 186.007 13.148 184.012 13.148H155.959V9.18785H187.623V5.57008C187.623 3.56226 185.988 1.9338 183.985 1.9523L152.847 2.14661C150.603 2.15586 148.793 3.98788 148.793 6.23626V31.6902Z" fill="#DA2128"/>
<path d="M204.677 27.6657C212.923 28.1838 219.71 21.3832 219.193 13.1206C218.759 6.31068 213.247 0.786869 206.45 0.351996C198.204 -0.16615 191.417 6.63452 191.934 14.8971C192.359 21.707 197.881 27.2401 204.677 27.6657ZM204.788 8.10568C208.676 7.6153 211.945 10.8907 211.455 14.7861C211.123 17.4416 208.98 19.5882 206.33 19.9213C202.443 20.4117 199.174 17.1362 199.663 13.2409C199.995 10.5854 202.138 8.43878 204.788 8.10568Z" fill="#00934B"/>
<path d="M4.36687 14.2959C3.38804 14.2959 2.42769 14.3514 1.47656 14.4439V14.518V18.8852C2.42769 18.7742 3.38804 18.7094 4.36687 18.7094C17.9504 18.7094 28.9576 29.7385 28.9576 43.3491C28.9576 44.0708 28.9206 44.7833 28.856 45.4864H33.1868H33.2607C33.3161 44.7833 33.3531 44.0708 33.3531 43.3491C33.3531 27.2958 20.3698 14.2959 4.36687 14.2959Z" fill="#55AB47"/>
<path d="M41.1283 45.0044C41.156 44.4492 41.1652 43.8941 41.1652 43.3297C41.1652 22.9647 24.6914 6.45801 4.36687 6.45801C3.46192 6.45801 2.5662 6.49502 1.67972 6.55979C1.55044 7.07793 1.47656 7.61458 1.47656 8.16974V8.45657V11.4452C2.43692 11.3619 3.39728 11.3064 4.36687 11.3064C12.8993 11.3064 20.9238 14.6373 26.963 20.6793C33.0022 26.7305 36.3172 34.7617 36.3172 43.3204C36.3172 44.0421 36.2803 44.7546 36.2341 45.4578H38.4042H38.6997C39.5584 45.467 40.3711 45.3005 41.1283 45.0044Z" fill="#55AB47"/>
<path d="M32.4851 15.1553C39.8356 22.5204 43.954 32.2726 44.1202 42.6633C44.9052 41.5623 45.3761 40.2206 45.3761 38.7772V8.16959C45.3761 4.48705 42.3657 1.4707 38.6905 1.4707H8.15299C6.28768 1.4707 4.59782 2.24792 3.37891 3.49702C3.7021 3.48777 4.03453 3.48777 4.35773 3.48777C14.9863 3.48777 24.9777 7.63294 32.4851 15.1553Z" fill="#55AB47"/>
<path d="M26.9552 20.6981C20.916 14.6561 12.9007 11.3252 4.35906 11.3252C3.38947 11.3252 2.41987 11.3715 1.46875 11.464V11.5565V14.4526C2.41987 14.3601 3.38947 14.3045 4.35906 14.3045C20.3619 14.3045 33.3452 27.3045 33.3452 43.3485C33.3452 44.0702 33.3083 44.7826 33.2529 45.4858H36.134H36.2263C36.2725 44.7734 36.3094 44.0609 36.3094 43.3485C36.3187 34.7806 32.9943 26.74 26.9552 20.6981Z" fill="#A4CF5A"/>
<path d="M41.1652 43.33C41.1652 43.8944 41.1467 44.4496 41.1282 45.0047C42.3379 44.5236 43.3721 43.7094 44.1201 42.6638C43.9539 32.2732 39.8354 22.5302 32.485 15.1558C24.9776 7.63345 14.9862 3.48828 4.36684 3.48828C4.04365 3.48828 3.71121 3.49753 3.38802 3.49753C2.56617 4.33952 1.97518 5.38507 1.67969 6.5509C2.56617 6.48613 3.46189 6.44912 4.36684 6.44912C24.6913 6.45837 41.1652 22.965 41.1652 43.33Z" fill="#8FC73F"/>
<path d="M38.7006 0H8.15381C3.65675 0 0 3.66403 0 8.17005V38.7684C0 43.2745 3.65675 46.9385 8.15381 46.9385H38.6913C43.1884 46.9385 46.8451 43.2745 46.8451 38.7684V8.17005C46.8544 3.66403 43.1976 0 38.7006 0ZM38.4051 45.4673H36.235H36.1427H33.2616H33.1878H28.8569H28.8107H8.4493H8.15381C4.47859 45.4673 1.46824 42.451 1.46824 38.7684V38.4816V18.9216V18.8753V14.5081V14.4341V11.538V11.4455V8.46614V8.17005C1.46824 7.6149 1.54211 7.06899 1.67139 6.55085C1.96689 5.38502 2.55788 4.33022 3.37972 3.49749C4.59864 2.25764 6.2885 1.48042 8.15381 1.48042H38.6913C42.3666 1.48042 45.3769 4.49677 45.3769 8.17931V38.7777C45.3769 40.2304 44.906 41.5627 44.1211 42.6638C43.3731 43.7093 42.3389 44.5236 41.1292 45.0047C40.372 45.3008 39.5594 45.4766 38.7006 45.4766H38.4051V45.4673Z" fill="#82B941"/>
<path d="M4.36687 18.6992C3.38804 18.6992 2.42769 18.764 1.47656 18.875V18.9213V38.4813V38.7681C1.47656 42.4507 4.48692 45.467 8.16213 45.467H8.45763H28.8098H28.856C28.9206 44.7638 28.9576 44.0514 28.9576 43.3297C28.9576 29.7283 17.9412 18.6992 4.36687 18.6992Z" fill="url(#paint0_radial)"/>
<path d="M16.5743 30.2563V26.4072H9.04846H8.53135C6.69374 26.4072 5.20703 27.8969 5.20703 29.7382V32.6527C5.20703 34.494 6.69374 35.9837 8.53135 35.9837H12.4374V37.8712H5.20703V41.7203H13.2408C15.0784 41.7203 16.5651 40.2306 16.5651 38.3894V35.4748C16.5651 33.6335 15.0784 32.1438 13.2408 32.1438H9.33472V30.2563H16.5743Z" fill="#00944B"/>
<defs>
<radialGradient id="paint0_radial" cx="0" cy="0" r="1" gradientUnits="userSpaceOnUse" gradientTransform="translate(4.36595 43.3322) scale(24.5877 24.6367)">
<stop stop-color="#E2EDBC"/>
<stop offset="0.2584" stop-color="#E0ECBA"/>
<stop offset="0.4589" stop-color="#DBEAB2"/>
<stop offset="0.6398" stop-color="#D4E6A6"/>
<stop offset="0.8093" stop-color="#C8E095"/>
<stop offset="0.9694" stop-color="#BAD980"/>
<stop offset="1" stop-color="#B7D87B"/>
</radialGradient>
</defs>
</svg>
