<svg width="186" height="26" viewBox="0 0 186 26" fill="none" xmlns="http://www.w3.org/2000/svg">
<g opacity="0.5">
<path d="M88.0095 19.6636H68.125V23.0358H88.0095V19.6636Z" fill="white"/>
<path d="M44.7497 19.6636H24.8438V23.0358H44.7497V19.6636Z" fill="white"/>
<path d="M33.1151 5.01028L25.8652 14.5514C25.2607 15.3461 25.4151 16.4802 26.2082 17.0859L27.4472 18.031L34.86 8.27513L42.277 18.0353L43.5032 17.0988C44.3007 16.4888 44.4507 15.3418 43.8376 14.5471L36.4249 4.9931C35.5846 3.91054 33.9468 3.91914 33.1151 5.01028Z" fill="white"/>
<path d="M63.4306 3.10303C62.5003 3.10303 61.75 3.8591 61.75 4.787V23.0616H65.1155V14.2765H66.8948V12.6097C66.8948 11.669 66.1316 10.9043 65.1927 10.9043H65.1155V4.7913C65.1155 3.8591 64.361 3.10303 63.4306 3.10303Z" fill="white"/>
<path d="M105.267 3.10303C104.336 3.10303 103.586 3.8591 103.586 4.787V15.7844H106.951V11.3597H108.774V9.81315C108.774 8.80792 107.959 7.99171 106.956 7.99171V4.7913C106.951 3.8591 106.197 3.10303 105.267 3.10303Z" fill="white"/>
<path d="M112.54 15.6255L117.286 7.38601H117.414L122.169 15.6383L123.048 15.1314C124.171 14.4828 124.557 13.0394 123.909 11.9138L121.303 7.38601H122.898C123.828 7.38601 124.578 6.62994 124.578 5.70204C124.578 4.76984 123.824 4.01807 122.898 4.01807H111.798C110.867 4.01807 110.117 4.77414 110.117 5.70204C110.117 6.63424 110.872 7.38601 111.798 7.38601H113.41L110.812 11.8967C110.164 13.0222 110.546 14.4656 111.673 15.1143L112.54 15.6255Z" fill="white"/>
<path d="M47 5.97278V22.3615L59.6561 22.4044V5.98137C59.6561 4.916 58.7944 4.05254 57.7354 4.05254L48.925 4.04395C47.866 4.04395 47 4.90741 47 5.97278ZM50.3655 18.9892V7.39041H56.2949V18.9935H50.3655V18.9892Z" fill="white"/>
<path d="M91.4361 16.6821H90.0898V23.0271L107.869 23.04V19.6677H93.4554V18.7098C93.4554 17.5886 92.5508 16.6821 91.4361 16.6821Z" fill="white"/>
<path d="M111.417 16.6909H110.07V23.0359H129.993V19.6636H113.44V18.7143C113.44 17.5973 112.536 16.6909 111.417 16.6909Z" fill="white"/>
<path d="M126.632 4.82118V7.98722C125.663 7.98722 124.883 8.77336 124.883 9.73993V11.3552H126.632V15.7799H129.998V4.82118C129.998 3.88898 129.243 3.13721 128.317 3.13721C127.382 3.13721 126.632 3.89328 126.632 4.82118Z" fill="white"/>
<path d="M69.082 17.7132H87.1102V16.0808C87.1102 15.1185 86.3342 14.3409 85.3738 14.3409H72.409V12.4765H87.1102V10.784C87.1102 9.85608 86.3599 9.1043 85.4338 9.1043H72.409V7.26568H87.1102V5.586C87.1102 4.6538 86.3513 3.89773 85.421 3.90632L70.9642 3.99654C69.9223 4.00083 69.082 4.85141 69.082 5.8953V17.7132Z" fill="white"/>
<path d="M95.027 15.8446C98.8556 16.0852 102.007 12.9278 101.767 9.09156C101.565 5.92982 99.0056 3.36519 95.8502 3.16329C92.0216 2.92272 88.8704 6.08017 89.1105 9.91637C89.3077 13.0781 91.8716 15.647 95.027 15.8446ZM95.0785 6.76321C96.8834 6.53553 98.4011 8.05626 98.1739 9.86482C98.0196 11.0977 97.0249 12.0944 95.7944 12.249C93.9895 12.4767 92.4718 10.956 92.699 9.14741C92.8533 7.9145 93.848 6.91786 95.0785 6.76321Z" fill="white"/>
<path d="M2.02552 9.63721C1.57107 9.63721 1.12519 9.66298 0.683594 9.70594V9.74031V11.7679C1.12519 11.7164 1.57107 11.6863 2.02552 11.6863C8.33215 11.6863 13.4426 16.807 13.4426 23.1262C13.4426 23.4613 13.4255 23.792 13.3955 24.1185H15.4062H15.4405C15.4662 23.792 15.4834 23.4613 15.4834 23.1262C15.4834 15.6729 9.45543 9.63721 2.02552 9.63721Z" fill="white"/>
<path d="M19.0933 23.8951C19.1062 23.6373 19.1104 23.3795 19.1104 23.1175C19.1104 13.6623 11.4619 5.99854 2.02552 5.99854C1.60537 5.99854 1.1895 6.01572 0.777915 6.04579C0.717892 6.28636 0.683594 6.53552 0.683594 6.79327V6.92644V8.314C1.12947 8.27534 1.57535 8.24956 2.02552 8.24956C5.98699 8.24956 9.71267 9.79607 12.5166 12.6013C15.3205 15.4107 16.8596 19.1395 16.8596 23.1132C16.8596 23.4483 16.8425 23.7791 16.821 24.1055H17.8285H17.9657C18.3645 24.1098 18.7417 24.0325 19.0933 23.8951Z" fill="white"/>
<path d="M15.0839 10.0367C18.4966 13.4562 20.4087 17.984 20.4859 22.8082C20.8503 22.297 21.069 21.6741 21.069 21.004V6.7933C21.069 5.08355 19.6713 3.68311 17.965 3.68311H3.78685C2.92081 3.68311 2.13624 4.04396 1.57031 4.6239C1.72037 4.6196 1.87471 4.6196 2.02477 4.6196C6.95946 4.6196 11.5983 6.54414 15.0839 10.0367Z" fill="white"/>
<path d="M12.5166 12.61C9.71266 9.80481 5.99128 8.2583 2.02552 8.2583C1.57535 8.2583 1.12519 8.27978 0.683594 8.32274V8.3657V9.7103C1.12519 9.66734 1.57535 9.64156 2.02552 9.64156C9.45543 9.64156 15.4834 15.6772 15.4834 23.1262C15.4834 23.4613 15.4662 23.7921 15.4405 24.1186H16.7781H16.821C16.8425 23.7878 16.8596 23.457 16.8596 23.1262C16.8639 19.1483 15.3205 15.4152 12.5166 12.61Z" fill="#A4CF5A"/>
<path d="M19.1138 23.1176C19.1138 23.3796 19.1052 23.6374 19.0966 23.8951C19.6583 23.6717 20.1384 23.2937 20.4857 22.8083C20.4085 17.984 18.4964 13.4605 15.0837 10.0367C11.5981 6.54417 6.95926 4.61963 2.02886 4.61963C1.8788 4.61963 1.72446 4.62392 1.5744 4.62392C1.19283 5.01485 0.918444 5.50028 0.78125 6.04156C1.19283 6.01148 1.6087 5.9943 2.02886 5.9943C11.4652 5.9986 19.1138 13.6624 19.1138 23.1176Z" fill="#8FC73F"/>
<path d="M17.9681 3H3.78569C1.69777 3 0 4.70116 0 6.79324V20.9996C0 23.0917 1.69777 24.7929 3.78569 24.7929H17.9638C20.0517 24.7929 21.7495 23.0917 21.7495 20.9996V6.79324C21.7538 4.70116 20.056 3 17.9681 3ZM17.8309 24.1098H16.8234H16.7805H15.4429H15.4086H13.3978H13.3764H3.92289H3.78569C2.07934 24.1098 0.681682 22.7094 0.681682 20.9996V20.8664V11.785V11.7635V9.73589V9.70153V8.35693V8.31397V6.9307V6.79324C0.681682 6.53549 0.71598 6.28203 0.776003 6.04146C0.913197 5.50019 1.18758 5.01046 1.56915 4.62383C2.13508 4.04819 2.91966 3.68734 3.78569 3.68734H17.9638C19.6702 3.68734 21.0678 5.08778 21.0678 6.79753V21.0039C21.0678 21.6784 20.8492 22.297 20.4848 22.8082C20.1375 23.2936 19.6573 23.6716 19.0957 23.895C18.7441 24.0325 18.3668 24.1141 17.9681 24.1141H17.8309V24.1098Z" fill="#82B941"/>
<path d="M2.02552 11.6816C1.57107 11.6816 1.12519 11.7117 0.683594 11.7633V11.7847V20.8662V20.9993C0.683594 22.7091 2.08126 24.1095 3.78761 24.1095H3.9248H13.374H13.3955C13.4255 23.7831 13.4426 23.4523 13.4426 23.1172C13.4426 16.8023 8.32786 11.6816 2.02552 11.6816Z" fill="url(#paint0_radial)"/>
<path d="M7.69565 17.0473V15.2603H4.20149H3.9614C3.10823 15.2603 2.41797 15.9519 2.41797 16.8068V18.16C2.41797 19.0148 3.10823 19.7065 3.9614 19.7065H5.77493V20.5828H2.41797V22.3699H6.14793C7.0011 22.3699 7.69136 21.6783 7.69136 20.8234V19.4702C7.69136 18.6153 7.0011 17.9237 6.14793 17.9237H4.3344V17.0473H7.69565Z" fill="#00944B"/>
</g>
<path d="M145.432 13.08C145.846 10.956 145.846 9.354 145.846 8.292V7.446H137.818V8.652H144.406C144.406 9.678 144.352 11.064 143.974 12.918L145.432 13.08ZM146.962 14.052C145.324 14.268 143.488 14.412 141.724 14.484V11.046H140.266V14.538C139.042 14.556 137.872 14.574 136.846 14.574L136.99 15.78C139.852 15.78 143.722 15.69 147.07 15.132L146.962 14.052ZM140.788 17.238H139.312V21.972H150.04V20.766H140.788V17.238ZM149.518 11.442V6.186H148.042V18.354H149.518V12.666H151.822V11.442H149.518ZM155.925 13.44H161.883V7.68H154.395V8.886H160.389V12.252H154.449V18.444H155.781C158.553 18.444 161.001 18.336 163.917 17.85L163.773 16.644C160.947 17.094 158.571 17.22 155.925 17.22V13.44ZM165.285 6.168V22.35H166.761V6.168H165.285ZM175.507 9.066H179.089V7.842H170.359V9.066H174.049V11.118C174.049 13.854 172.105 16.914 169.801 18.066L170.665 19.236C172.483 18.3 174.049 16.248 174.787 13.89C175.525 16.05 177.037 17.94 178.837 18.84L179.683 17.652C177.343 16.554 175.507 13.692 175.507 11.118V9.066ZM185.155 12.702H182.491V6.204H181.015V22.332H182.491V13.944H185.155V12.702Z" fill="white" fill-opacity="0.6"/>
<defs>
<radialGradient id="paint0_radial" cx="0" cy="0" r="1" gradientUnits="userSpaceOnUse" gradientTransform="translate(2.02509 23.1184) scale(11.4157 11.4385)">
<stop stop-color="#E2EDBC"/>
<stop offset="0.2584" stop-color="#E0ECBA"/>
<stop offset="0.4589" stop-color="#DBEAB2"/>
<stop offset="0.6398" stop-color="#D4E6A6"/>
<stop offset="0.8093" stop-color="#C8E095"/>
<stop offset="0.9694" stop-color="#BAD980"/>
<stop offset="1" stop-color="#B7D87B"/>
</radialGradient>
</defs>
</svg>
