<svg width="996" height="168" viewBox="0 0 996 168" fill="none" xmlns="http://www.w3.org/2000/svg">
<g clip-path="url(#clip0)">
<path d="M674.294 128.114H521.947V153.951H674.294V128.114Z" fill="#DA2128"/>
<path d="M342.862 128.114H190.352V153.951H342.862V128.114Z" fill="#DA2128"/>
<path d="M253.713 15.8489L198.168 88.9484C193.537 95.0373 194.719 103.726 200.796 108.367L210.289 115.608L267.082 40.8627L323.908 115.641L333.302 108.466C339.412 103.792 340.562 95.0044 335.864 88.9155L279.071 15.7172C272.633 7.42316 260.085 7.48899 253.713 15.8489Z" fill="#DA2128"/>
<path d="M485.979 1.2356C478.851 1.2356 473.103 7.02826 473.103 14.1374V154.149H498.888V86.842H512.519V74.0718C512.519 66.8639 506.673 61.0054 499.479 61.0054H498.888V14.1704C498.888 7.02826 493.107 1.2356 485.979 1.2356Z" fill="#DA2128"/>
<path d="M806.536 1.2356C799.408 1.2356 793.66 7.02826 793.66 14.1374V98.3944H819.445V64.4942H833.406V52.6455C833.406 44.9439 827.164 38.6905 819.478 38.6905V14.1704C819.445 7.02826 813.664 1.2356 806.536 1.2356Z" fill="#00934B"/>
<path d="M862.246 97.1765L898.608 34.0496H899.594L936.022 97.2752L942.755 93.3915C951.361 88.4216 954.318 77.3629 949.358 68.7397L929.386 34.0496H941.606C948.734 34.0496 954.482 28.2569 954.482 21.1477C954.482 14.0056 948.701 8.24585 941.606 8.24585H856.564C849.436 8.24585 843.688 14.0385 843.688 21.1477C843.688 28.2898 849.469 34.0496 856.564 34.0496H868.914L849.009 68.6081C844.049 77.2313 846.972 88.29 855.611 93.2598L862.246 97.1765Z" fill="#00934B"/>
<path d="M360.106 23.2212V148.784L457.072 149.113V23.2871C457.072 15.1247 450.47 8.50919 442.356 8.50919L374.855 8.44336C366.742 8.44336 360.106 15.0588 360.106 23.2212ZM385.892 122.947V34.0825H431.32V122.98H385.892V122.947Z" fill="#DA2128"/>
<path d="M700.572 105.273H690.258V153.885L826.476 153.984V128.147H716.043V120.808C716.043 112.218 709.112 105.273 700.572 105.273Z" fill="#00934B"/>
<path d="M853.64 105.339H843.326V153.951H995.968V128.115H869.144V120.841C869.144 112.283 862.214 105.339 853.64 105.339Z" fill="#00934B"/>
<path d="M970.215 14.4009V38.6577C962.792 38.6577 956.813 44.6807 956.813 52.0861V64.4614H970.215V98.3616H996V14.4009C996 7.25878 990.219 1.49902 983.124 1.49902C975.963 1.49902 970.215 7.29169 970.215 14.4009Z" fill="#00934B"/>
<path d="M529.271 113.172H667.394V100.665C667.394 93.2926 661.449 87.3354 654.091 87.3354H554.76V73.0512H667.394V60.0835C667.394 52.9743 661.646 47.2146 654.551 47.2146H554.76V33.1278H667.394V20.2589C667.394 13.1168 661.58 7.32413 654.452 7.38996L543.691 8.08113C535.709 8.11404 529.271 14.6308 529.271 22.6286V113.172Z" fill="#DA2128"/>
<path d="M728.065 98.8551C757.398 100.698 781.54 76.5072 779.701 47.116C778.157 22.8921 758.547 3.24313 734.372 1.69622C705.039 -0.146901 680.896 24.0441 682.735 53.4353C684.246 77.6592 703.889 97.3411 728.065 98.8551ZM728.459 29.2772C742.288 27.5328 753.916 39.184 752.175 53.0403C750.992 62.4863 743.372 70.1221 733.945 71.307C720.116 73.0514 708.488 61.4002 710.229 47.5439C711.411 38.0979 719.032 30.4621 728.459 29.2772Z" fill="#00934B"/>
<path d="M15.5361 51.2959C12.0543 51.2959 8.63817 51.4934 5.25488 51.8225V52.0858V67.6207C8.63817 67.2257 12.0543 66.9953 15.5361 66.9953C63.8547 66.9953 103.009 106.228 103.009 154.642C103.009 157.21 102.877 159.744 102.648 162.245H118.053H118.316C118.513 159.744 118.644 157.21 118.644 154.642C118.644 97.5385 72.4607 51.2959 15.5361 51.2959Z" fill="#55AB47"/>
<path d="M146.302 160.533C146.4 158.559 146.433 156.584 146.433 154.576C146.433 82.1348 87.8333 23.4182 15.5361 23.4182C12.3171 23.4182 9.13088 23.5499 5.97753 23.7803C5.51766 25.6234 5.25488 27.5323 5.25488 29.5071V30.5274V41.1583C8.67102 40.862 12.0872 40.6646 15.5361 40.6646C45.8872 40.6646 74.4316 52.5132 95.9138 74.0053C117.396 95.5304 129.188 124.099 129.188 154.543C129.188 157.11 129.057 159.645 128.893 162.146H136.612H137.663C140.718 162.179 143.608 161.587 146.302 160.533Z" fill="#55AB47"/>
<path d="M115.558 54.3561C141.704 80.5548 156.354 115.245 156.945 152.206C159.737 148.29 161.413 143.517 161.413 138.383V29.5069C161.413 16.4076 150.704 5.67798 137.631 5.67798H29.0046C22.3694 5.67798 16.3583 8.44266 12.0225 12.8859C13.1721 12.853 14.3546 12.853 15.5043 12.853C53.3117 12.853 88.8526 27.598 115.558 54.3561Z" fill="#55AB47"/>
<path d="M95.8816 74.0717C74.3994 52.5796 45.8878 40.731 15.5039 40.731C12.0549 40.731 8.60594 40.8955 5.22266 41.2247V41.5538V51.8555C8.60594 51.5264 12.0549 51.3289 15.5039 51.3289C72.4285 51.3289 118.612 97.5715 118.612 154.642C118.612 157.21 118.481 159.744 118.284 162.245H128.532H128.86C129.025 159.711 129.156 157.177 129.156 154.642C129.189 124.165 117.364 95.5638 95.8816 74.0717Z" fill="#A4CF5A"/>
<path d="M146.434 154.576C146.434 156.584 146.368 158.559 146.303 160.533C150.606 158.822 154.285 155.926 156.945 152.206C156.354 115.245 141.704 80.588 115.558 54.3564C88.8526 27.5982 53.3117 12.8533 15.5371 12.8533C14.3875 12.8533 13.205 12.8862 12.0553 12.8862C9.13187 15.8813 7.02963 19.6004 5.97852 23.7474C9.13187 23.517 12.3181 23.3854 15.5371 23.3854C87.8343 23.4183 146.434 82.1349 146.434 154.576Z" fill="#8FC73F"/>
<path d="M137.664 0.445068H29.0043C13.0076 0.445068 0 13.4786 0 29.5071V138.35C0 154.379 13.0076 167.412 29.0043 167.412H137.631C153.627 167.412 166.635 154.379 166.635 138.35V29.5071C166.668 13.4786 153.66 0.445068 137.664 0.445068ZM136.612 162.179H128.893H128.565H118.316H118.054H102.648H102.484H30.0554H29.0043C15.931 162.179 5.22274 151.449 5.22274 138.35V137.33V67.7519V67.5874V52.0525V51.7892V41.4874V41.1583V30.5604V29.5071C5.22274 27.5324 5.48552 25.5905 5.94539 23.7474C6.9965 19.6004 9.09874 15.8483 12.0222 12.8861C16.358 8.47581 22.3691 5.71113 29.0043 5.71113H137.631C150.704 5.71113 161.412 16.4407 161.412 29.5401V138.383C161.412 143.55 159.737 148.29 156.945 152.206C154.284 155.926 150.605 158.822 146.302 160.533C143.609 161.587 140.718 162.212 137.664 162.212H136.612V162.179Z" fill="#82B941"/>
<path d="M15.5361 66.9619C12.0543 66.9619 8.63817 67.1923 5.25488 67.5873V67.7518V137.33V138.35C5.25488 151.449 15.9631 162.179 29.0364 162.179H30.0875H102.483H102.648C102.877 159.678 103.009 157.143 103.009 154.576C103.009 106.194 63.8219 66.9619 15.5361 66.9619Z" fill="url(#paint0_radial)"/>
<path d="M58.9606 108.07V94.3784H32.1899H30.3505C23.8138 94.3784 18.5254 99.6774 18.5254 106.227V116.595C18.5254 123.144 23.8138 128.443 30.3505 128.443H44.2449V135.157H18.5254V148.849H47.1027C53.6393 148.849 58.9277 143.55 58.9277 137.001V126.633C58.9277 120.083 53.6393 114.784 47.1027 114.784H33.2082V108.07H58.9606Z" fill="#00944B"/>
</g>
<defs>
<radialGradient id="paint0_radial" cx="0" cy="0" r="1" gradientUnits="userSpaceOnUse" gradientTransform="translate(15.5328 154.585) scale(87.4622 87.6365)">
<stop stop-color="#E2EDBC"/>
<stop offset="0.2584" stop-color="#E0ECBA"/>
<stop offset="0.4589" stop-color="#DBEAB2"/>
<stop offset="0.6398" stop-color="#D4E6A6"/>
<stop offset="0.8093" stop-color="#C8E095"/>
<stop offset="0.9694" stop-color="#BAD980"/>
<stop offset="1" stop-color="#B7D87B"/>
</radialGradient>
<clipPath id="clip0">
<rect width="996" height="167" fill="white" transform="translate(0 0.445068)"/>
</clipPath>
</defs>
</svg>
