<svg width="120" height="131" viewBox="0 0 120 131" fill="none" xmlns="http://www.w3.org/2000/svg">
<path d="M23.8665 116.958C49.7543 116.958 67.5332 130.368 80.0069 130.368C92.4806 130.368 118.681 123.197 118.681 65.8105C118.681 8.42456 83.435 0 69.7157 0C5.46654 0 -21.9791 116.958 23.8665 116.958Z" fill="#F9F9F9"/>
<path d="M88.4912 18.8352L91.1368 16.1896L96.4281 21.4808L93.7824 24.1264L88.4912 18.8352Z" fill="#A4AFC1"/>
<path d="M103.705 34.0526L106.351 31.407L111.642 36.6982L108.997 39.3438L103.705 34.0526Z" fill="#A4AFC1"/>
<path d="M103.042 21.4808L108.333 16.1896L110.979 18.8352L105.684 24.1264L103.042 21.4808Z" fill="#A4AFC1"/>
<path d="M83.2772 45.5369H36.4912V107.291H83.2772V45.5369Z" fill="#F3F3F1"/>
<path d="M75.7895 34.3087H43.979V45.5368H75.7895V34.3087Z" fill="#1DD375"/>
<path d="M44.9123 45.5369H36.4912V107.291H44.9123V45.5369Z" fill="#D5DBE1"/>
<path d="M52.4001 34.3087H43.979V45.5368H52.4001V34.3087Z" fill="#00B871"/>
<path d="M119.768 104.484H0V110.098H119.768V104.484Z" fill="black"/>
<path d="M78.5964 45.5368H72.9824V37.1157H46.7859V45.5368H41.1719V34.3087C41.1719 32.7614 42.428 31.5017 43.9789 31.5017H75.7894C77.3403 31.5017 78.5964 32.7614 78.5964 34.3087V45.5368Z" fill="black"/>
<path d="M62.6912 20.2737H57.0771V37.1158H62.6912V20.2737Z" fill="black"/>
<path d="M50.5264 57.7018H44.9124V110.098H50.5264V57.7018Z" fill="black"/>
<path d="M62.6912 57.7018H57.0771V110.098H62.6912V57.7018Z" fill="black"/>
<path d="M74.856 57.7018H69.2419V110.098H74.856V57.7018Z" fill="black"/>
<path d="M86.0843 107.291H80.4703V48.3439H39.2984V107.291H33.6843V45.5369C33.6843 43.9895 34.944 42.7299 36.4913 42.7299H83.2773C84.8247 42.7299 86.0843 43.9895 86.0843 45.5369V107.291V107.291Z" fill="black"/>
</svg>
