<svg width="120" height="109" viewBox="0 0 120 109" fill="none" xmlns="http://www.w3.org/2000/svg">
<path d="M107.656 87.2733C107.656 63.4445 120 47.0795 120 35.5979C120 24.1163 113.398 0 60.5765 0C7.75454 0 0 32.4457 0 45.0739C0 104.213 107.656 129.476 107.656 87.2733Z" fill="#F9F9F9"/>
<path d="M30.7178 19.6721C27.8692 19.6721 25.5503 17.3532 25.5503 14.5046C25.5503 11.656 27.8692 9.33704 30.7178 9.33704C33.5664 9.33704 35.8854 11.656 35.8854 14.5046C35.8854 17.3564 33.5697 19.6721 30.7178 19.6721ZM30.7178 12.7831C29.7683 12.7831 28.9964 13.5583 28.9964 14.5046C28.9964 15.4509 29.7683 16.2292 30.7178 16.2292C31.6674 16.2292 32.4425 15.4541 32.4425 14.5046C32.4425 13.555 31.6706 12.7831 30.7178 12.7831Z" fill="#A4AFC1"/>
<path d="M85.8394 92.8801H21.2451V36.0371L57.4179 49.8183V36.0371L85.8394 45.5099V92.8801Z" fill="#F3F3F1"/>
<path d="M98.7582 92.8801H83.2556L86.7017 15.3669H95.3121L98.7582 92.8801Z" fill="#1DD375"/>
<path d="M65.1693 49.8183V38.6209L57.418 36.0371V46.8631L65.1693 49.8183Z" fill="#D5DBE1"/>
<path d="M21.2451 36.0371V92.8801H28.9964V38.9891L21.2451 36.0371Z" fill="#D5DBE1"/>
<path d="M86.7017 15.3669L83.2556 92.8801H91.0069L94.453 15.3669H86.7017Z" fill="#00B871"/>
<path d="M23.8289 92.8801H18.6614V36.0371C18.6614 35.1877 19.078 34.3899 19.7789 33.9119C20.4829 33.421 21.3743 33.3306 22.1656 33.6213L54.8342 46.0686V36.0371C54.8342 35.2006 55.2411 34.4093 55.9258 33.9281C56.6105 33.4469 57.4825 33.3144 58.2803 33.5987L86.2173 43.4525L84.4991 48.3229L60.0017 39.6899V49.8183C60.0017 50.6677 59.5851 51.4654 58.8842 51.9434C58.1801 52.4311 57.2887 52.5312 56.4975 52.2341L23.8289 39.7836V92.8801Z" fill="black"/>
<path d="M95.5543 23.1183H87.3218V28.2858H95.5543V23.1183Z" fill="black"/>
<path d="M39.3314 57.5696H28.9963V62.7371H39.3314V57.5696Z" fill="black"/>
<path d="M56.5555 57.5696H46.2205V62.7371H56.5555V57.5696Z" fill="black"/>
<path d="M74.6419 57.5696H63.4478V62.7371H74.6419V57.5696Z" fill="black"/>
<path d="M39.3314 67.9048H28.9963V73.0723H39.3314V67.9048Z" fill="black"/>
<path d="M56.5555 67.9048H46.2205V73.0723H56.5555V67.9048Z" fill="black"/>
<path d="M74.6419 67.9048H63.4478V73.0723H74.6419V67.9048Z" fill="black"/>
<path d="M39.3314 78.2397H28.9963V83.4073H39.3314V78.2397Z" fill="black"/>
<path d="M56.5555 78.2397H46.2205V83.4073H56.5555V78.2397Z" fill="black"/>
<path d="M74.6419 78.2397H63.4478V83.4073H74.6419V78.2397Z" fill="black"/>
<path d="M115.123 90.2963H4.88013V95.4638H115.123V90.2963Z" fill="black"/>
<path d="M96.1776 92.9931L92.8413 17.9507H89.1724L85.8393 92.9931L80.6782 92.7671L84.1243 15.2539C84.1825 13.8684 85.3193 12.7832 86.7016 12.7832H95.312C96.6944 12.7832 97.8312 13.8684 97.8926 15.2539L101.335 92.7671L96.1776 92.9931Z" fill="black"/>
<path d="M46.8516 18.875L47.5469 13.0625H54.1953V15.1094H49.6875L49.4297 17.3672C49.6172 17.2578 49.862 17.1615 50.1641 17.0781C50.4714 16.9948 50.7708 16.9531 51.0625 16.9531C52.1927 16.9531 53.0599 17.2891 53.6641 17.9609C54.2734 18.6276 54.5781 19.5651 54.5781 20.7734C54.5781 21.5026 54.4141 22.1641 54.0859 22.7578C53.763 23.3464 53.3073 23.7995 52.7188 24.1172C52.1302 24.4349 51.4349 24.5938 50.6328 24.5938C49.9193 24.5938 49.25 24.4479 48.625 24.1562C48 23.8594 47.5104 23.4557 47.1562 22.9453C46.8021 22.4297 46.6276 21.849 46.6328 21.2031H49.2734C49.2995 21.6198 49.4323 21.9505 49.6719 22.1953C49.9115 22.4401 50.2266 22.5625 50.6172 22.5625C51.5026 22.5625 51.9453 21.9062 51.9453 20.5938C51.9453 19.3802 51.4036 18.7734 50.3203 18.7734C49.7057 18.7734 49.2474 18.9714 48.9453 19.3672L46.8516 18.875ZM63.8594 19.7891C63.8594 21.3255 63.513 22.5104 62.8203 23.3438C62.1328 24.1771 61.1615 24.5938 59.9062 24.5938C58.6406 24.5938 57.6615 24.1745 56.9688 23.3359C56.276 22.4974 55.9297 21.3151 55.9297 19.7891V17.7109C55.9297 16.1745 56.2734 14.9896 56.9609 14.1562C57.6536 13.3229 58.6302 12.9062 59.8906 12.9062C61.151 12.9062 62.1276 13.3255 62.8203 14.1641C63.513 15.0026 63.8594 16.1875 63.8594 17.7188V19.7891ZM61.2266 17.375C61.2266 16.5573 61.1198 15.9479 60.9062 15.5469C60.6927 15.1406 60.3542 14.9375 59.8906 14.9375C59.4375 14.9375 59.1068 15.125 58.8984 15.5C58.6953 15.875 58.5859 16.4427 58.5703 17.2031V20.1094C58.5703 20.9583 58.6771 21.5807 58.8906 21.9766C59.1042 22.3672 59.4427 22.5625 59.9062 22.5625C60.3542 22.5625 60.6849 22.3724 60.8984 21.9922C61.112 21.6068 61.2214 21.0052 61.2266 20.1875V17.375Z" fill="black"/>
<path d="M73.7071 7.29289C73.3166 6.90237 72.6834 6.90237 72.2929 7.29289L65.9289 13.6569C65.5384 14.0474 65.5384 14.6805 65.9289 15.0711C66.3195 15.4616 66.9526 15.4616 67.3431 15.0711L73 9.41421L78.6569 15.0711C79.0474 15.4616 79.6805 15.4616 80.0711 15.0711C80.4616 14.6805 80.4616 14.0474 80.0711 13.6569L73.7071 7.29289ZM74 24L74 8L72 8L72 24L74 24Z" fill="#1DD375"/>
</svg>
