<svg width="120" height="109" viewBox="0 0 120 109" fill="none" xmlns="http://www.w3.org/2000/svg">
<path d="M107.656 87.2733C107.656 63.4445 120 47.0795 120 35.5979C120 24.1163 113.398 0 60.5765 0C7.75454 0 0 32.4457 0 45.0739C0 104.213 107.656 129.476 107.656 87.2733Z" fill="#F9F9F9"/>
<path d="M30.7178 19.6722C27.8692 19.6722 25.5503 17.3533 25.5503 14.5047C25.5503 11.6561 27.8692 9.33716 30.7178 9.33716C33.5664 9.33716 35.8854 11.6561 35.8854 14.5047C35.8854 17.3565 33.5697 19.6722 30.7178 19.6722ZM30.7178 12.7833C29.7683 12.7833 28.9964 13.5584 28.9964 14.5047C28.9964 15.451 29.7683 16.2294 30.7178 16.2294C31.6674 16.2294 32.4425 15.4542 32.4425 14.5047C32.4425 13.5552 31.6706 12.7833 30.7178 12.7833Z" fill="#A4AFC1"/>
<path d="M85.8394 92.8801H21.2451V36.0371L57.4179 49.8183V36.0371L85.8394 45.5099V92.8801Z" fill="#F3F3F1"/>
<path d="M98.7582 92.8801H83.2556L86.7017 15.3669H95.3121L98.7582 92.8801Z" fill="#1DD375"/>
<path d="M65.1693 49.8183V38.6209L57.418 36.0371V46.8631L65.1693 49.8183Z" fill="#D5DBE1"/>
<path d="M21.2451 36.0371V92.8801H28.9964V38.9891L21.2451 36.0371Z" fill="#D5DBE1"/>
<path d="M86.7017 15.3669L83.2556 92.8801H91.0069L94.453 15.3669H86.7017Z" fill="#00B871"/>
<path d="M23.8289 92.8801H18.6614V36.0371C18.6614 35.1877 19.078 34.3899 19.7789 33.9119C20.4829 33.421 21.3743 33.3306 22.1656 33.6213L54.8342 46.0686V36.0371C54.8342 35.2006 55.2411 34.4093 55.9258 33.9281C56.6105 33.4469 57.4825 33.3144 58.2803 33.5987L86.2173 43.4525L84.4991 48.3229L60.0017 39.6899V49.8183C60.0017 50.6677 59.5851 51.4654 58.8842 51.9434C58.1801 52.4311 57.2887 52.5312 56.4975 52.2341L23.8289 39.7836V92.8801Z" fill="black"/>
<path d="M95.5543 23.1184H87.3218V28.2859H95.5543V23.1184Z" fill="black"/>
<path d="M39.3314 57.5696H28.9963V62.7371H39.3314V57.5696Z" fill="black"/>
<path d="M56.5555 57.5696H46.2205V62.7371H56.5555V57.5696Z" fill="black"/>
<path d="M74.6419 57.5696H63.4478V62.7371H74.6419V57.5696Z" fill="black"/>
<path d="M39.3314 67.9048H28.9963V73.0723H39.3314V67.9048Z" fill="black"/>
<path d="M56.5555 67.9048H46.2205V73.0723H56.5555V67.9048Z" fill="black"/>
<path d="M74.6419 67.9048H63.4478V73.0723H74.6419V67.9048Z" fill="black"/>
<path d="M39.3314 78.2397H28.9963V83.4073H39.3314V78.2397Z" fill="black"/>
<path d="M56.5555 78.2397H46.2205V83.4073H56.5555V78.2397Z" fill="black"/>
<path d="M74.6419 78.2397H63.4478V83.4073H74.6419V78.2397Z" fill="black"/>
<path d="M115.123 90.2963H4.88013V95.4638H115.123V90.2963Z" fill="black"/>
<path d="M96.1776 92.9931L92.8413 17.9507H89.1724L85.8393 92.9931L80.6782 92.7671L84.1243 15.2539C84.1825 13.8684 85.3193 12.7832 86.7016 12.7832H95.312C96.6944 12.7832 97.8312 13.8684 97.8926 15.2539L101.335 92.7671L96.1776 92.9931Z" fill="black"/>
</svg>
