<svg width="120" height="109" viewBox="0 0 120 109" fill="none" xmlns="http://www.w3.org/2000/svg">
<path d="M12.3443 20.9709C12.3443 44.8004 0 61.1658 0 72.6477C0 84.1296 6.60171 108.247 59.4251 108.247C112.248 108.247 120 75.8032 120 63.1747C120.003 4.03059 12.3443 -21.2329 12.3443 20.9709Z" fill="#F9F9F9"/>
<path d="M93.1603 3.30713H89.7141V10.1963H93.1603V3.30713Z" fill="#A4AFC1"/>
<path d="M104.355 13.6423H97.4658V17.0853H104.355V13.6423Z" fill="#A4AFC1"/>
<path d="M64.3054 15.364H28.1316V92.8792H64.3054V15.364Z" fill="#F3F3F1"/>
<path d="M95.3115 32.5884H64.3054V92.8791H95.3115V32.5884Z" fill="#1DD375"/>
<path d="M35.8831 15.364H28.1316V92.8792H35.8831V15.364Z" fill="#D5DBE1"/>
<path d="M72.0569 32.5884H64.3054V92.8791H72.0569V32.5884Z" fill="#00B871"/>
<path d="M66.8893 92.8791H61.7216V17.9477H30.7155V92.8791H25.5479V15.3639C25.5479 13.9395 26.7073 12.78 28.1317 12.78H64.3055C65.733 12.78 66.8893 13.9395 66.8893 15.3639V92.8791Z" fill="black"/>
<path d="M97.8952 95.463H92.7275V35.1723H73.7815V30.0046H95.3113C96.7389 30.0046 97.8952 31.1641 97.8952 32.5885V95.463Z" fill="black"/>
<path d="M41.0507 40.34H35.8831V50.6753H41.0507V40.34Z" fill="black"/>
<path d="M56.5539 40.34H51.3862V50.6753H56.5539V40.34Z" fill="black"/>
<path d="M41.0507 23.1155H35.8831V33.4508H41.0507V23.1155Z" fill="black"/>
<path d="M56.5539 23.1155H51.3862V33.4508H56.5539V23.1155Z" fill="black"/>
<path d="M41.0507 57.5677H35.8831V67.9031H41.0507V57.5677Z" fill="black"/>
<path d="M56.5539 57.5677H51.3862V67.9031H56.5539V57.5677Z" fill="black"/>
<path d="M41.0507 74.7922H35.8831V85.1276H41.0507V74.7922Z" fill="black"/>
<path d="M56.5539 74.7922H51.3862V85.1276H56.5539V74.7922Z" fill="black"/>
<path d="M77.2246 57.5677H72.0569V67.9031H77.2246V57.5677Z" fill="black"/>
<path d="M89.2846 57.5677H84.1169V67.9031H89.2846V57.5677Z" fill="black"/>
<path d="M77.2246 40.34H72.0569V50.6753H77.2246V40.34Z" fill="black"/>
<path d="M89.2846 40.34H84.1169V50.6753H89.2846V40.34Z" fill="black"/>
<path d="M77.2246 74.7922H72.0569V85.99H77.2246V74.7922Z" fill="black"/>
<path d="M89.2846 74.7922H84.1169V85.99H89.2846V74.7922Z" fill="black"/>
<path d="M115.123 90.2953H4.87695V95.463H115.123V90.2953Z" fill="black"/>
</svg>
