<svg width="120" height="120" viewBox="0 0 120 120" fill="none" xmlns="http://www.w3.org/2000/svg">
<path d="M12.3443 31.9709C12.3443 55.8004 0 72.1658 0 83.6477C0 95.1296 6.60171 119.247 59.4251 119.247C112.248 119.247 120 86.8032 120 74.1747C120.003 15.0306 12.3443 -10.2329 12.3443 31.9709Z" fill="#F9F9F9"/>
<path d="M93.1603 14.3071H89.7141V21.1963H93.1603V14.3071Z" fill="#A4AFC1"/>
<path d="M104.355 24.6425H97.4658V28.0854H104.355V24.6425Z" fill="#A4AFC1"/>
<path d="M64.3054 26.3639H28.1316V103.879H64.3054V26.3639Z" fill="#F3F3F1"/>
<path d="M95.3115 43.5885H64.3054V103.879H95.3115V43.5885Z" fill="#1DD375"/>
<path d="M35.8831 26.3639H28.1316V103.879H35.8831V26.3639Z" fill="#D5DBE1"/>
<path d="M72.0569 43.5885H64.3054V103.879H72.0569V43.5885Z" fill="#00B871"/>
<path d="M66.8893 103.879H61.7216V28.9478H30.7155V103.879H25.5479V26.364C25.5479 24.9396 26.7073 23.7802 28.1317 23.7802H64.3055C65.733 23.7802 66.8893 24.9396 66.8893 26.364V103.879Z" fill="black"/>
<path d="M97.8952 106.463H92.7275V46.1723H73.7815V41.0046H95.3113C96.7389 41.0046 97.8952 42.1641 97.8952 43.5885V106.463Z" fill="black"/>
<path d="M41.0507 51.34H35.8831V61.6753H41.0507V51.34Z" fill="black"/>
<path d="M56.5539 51.34H51.3862V61.6753H56.5539V51.34Z" fill="black"/>
<path d="M41.0507 34.1155H35.8831V44.4508H41.0507V34.1155Z" fill="black"/>
<path d="M56.5539 34.1155H51.3862V44.4508H56.5539V34.1155Z" fill="black"/>
<path d="M41.0507 68.5677H35.8831V78.9031H41.0507V68.5677Z" fill="black"/>
<path d="M56.5539 68.5677H51.3862V78.9031H56.5539V68.5677Z" fill="black"/>
<path d="M41.0507 85.7922H35.8831V96.1276H41.0507V85.7922Z" fill="black"/>
<path d="M56.5539 85.7922H51.3862V96.1276H56.5539V85.7922Z" fill="black"/>
<path d="M77.2246 68.5677H72.0569V78.9031H77.2246V68.5677Z" fill="black"/>
<path d="M89.2846 68.5677H84.1169V78.9031H89.2846V68.5677Z" fill="black"/>
<path d="M77.2246 51.34H72.0569V61.6753H77.2246V51.34Z" fill="black"/>
<path d="M89.2846 51.34H84.1169V61.6753H89.2846V51.34Z" fill="black"/>
<path d="M77.2246 85.7922H72.0569V96.99H77.2246V85.7922Z" fill="black"/>
<path d="M89.2846 85.7922H84.1169V96.99H89.2846V85.7922Z" fill="black"/>
<path d="M115.123 101.295H4.87695V106.463H115.123V101.295Z" fill="black"/>
<path d="M46.8516 11.875L47.5469 6.0625H54.1953V8.10938H49.6875L49.4297 10.3672C49.6172 10.2578 49.862 10.1615 50.1641 10.0781C50.4714 9.99479 50.7708 9.95312 51.0625 9.95312C52.1927 9.95312 53.0599 10.2891 53.6641 10.9609C54.2734 11.6276 54.5781 12.5651 54.5781 13.7734C54.5781 14.5026 54.4141 15.1641 54.0859 15.7578C53.763 16.3464 53.3073 16.7995 52.7188 17.1172C52.1302 17.4349 51.4349 17.5938 50.6328 17.5938C49.9193 17.5938 49.25 17.4479 48.625 17.1562C48 16.8594 47.5104 16.4557 47.1562 15.9453C46.8021 15.4297 46.6276 14.849 46.6328 14.2031H49.2734C49.2995 14.6198 49.4323 14.9505 49.6719 15.1953C49.9115 15.4401 50.2266 15.5625 50.6172 15.5625C51.5026 15.5625 51.9453 14.9062 51.9453 13.5938C51.9453 12.3802 51.4036 11.7734 50.3203 11.7734C49.7057 11.7734 49.2474 11.9714 48.9453 12.3672L46.8516 11.875ZM63.8594 12.7891C63.8594 14.3255 63.513 15.5104 62.8203 16.3438C62.1328 17.1771 61.1615 17.5938 59.9062 17.5938C58.6406 17.5938 57.6615 17.1745 56.9688 16.3359C56.276 15.4974 55.9297 14.3151 55.9297 12.7891V10.7109C55.9297 9.17448 56.2734 7.98958 56.9609 7.15625C57.6536 6.32292 58.6302 5.90625 59.8906 5.90625C61.151 5.90625 62.1276 6.32552 62.8203 7.16406C63.513 8.0026 63.8594 9.1875 63.8594 10.7188V12.7891ZM61.2266 10.375C61.2266 9.55729 61.1198 8.94792 60.9062 8.54688C60.6927 8.14062 60.3542 7.9375 59.8906 7.9375C59.4375 7.9375 59.1068 8.125 58.8984 8.5C58.6953 8.875 58.5859 9.44271 58.5703 10.2031V13.1094C58.5703 13.9583 58.6771 14.5807 58.8906 14.9766C59.1042 15.3672 59.4427 15.5625 59.9062 15.5625C60.3542 15.5625 60.6849 15.3724 60.8984 14.9922C61.112 14.6068 61.2214 14.0052 61.2266 13.1875V10.375Z" fill="black"/>
<path d="M73.7071 0.292894C73.3166 -0.0976307 72.6834 -0.0976307 72.2929 0.292894L65.9289 6.65685C65.5384 7.04738 65.5384 7.68054 65.9289 8.07107C66.3195 8.46159 66.9526 8.46159 67.3431 8.07107L73 2.41421L78.6569 8.07107C79.0474 8.46159 79.6805 8.46159 80.0711 8.07107C80.4616 7.68054 80.4616 7.04738 80.0711 6.65685L73.7071 0.292894ZM74 17L74 1L72 1L72 17L74 17Z" fill="#1DD375"/>
</svg>
