<svg width="120" height="119" viewBox="0 0 120 119" fill="none" xmlns="http://www.w3.org/2000/svg">
<path d="M12.3443 30.9709C12.3443 54.8004 0 71.1658 0 82.6477C0 94.1296 6.60171 118.247 59.4251 118.247C112.248 118.247 120 85.8032 120 73.1747C120.003 14.0306 12.3443 -11.2329 12.3443 30.9709Z" fill="#F9F9F9"/>
<path d="M93.1603 13.3071H89.7141V20.1963H93.1603V13.3071Z" fill="#A4AFC1"/>
<path d="M104.355 23.6425H97.4658V27.0854H104.355V23.6425Z" fill="#A4AFC1"/>
<path d="M64.3054 25.3639H28.1316V102.879H64.3054V25.3639Z" fill="#F3F3F1"/>
<path d="M95.3115 42.5885H64.3054V102.879H95.3115V42.5885Z" fill="#1DD375"/>
<path d="M35.8831 25.3639H28.1316V102.879H35.8831V25.3639Z" fill="#D5DBE1"/>
<path d="M72.0569 42.5885H64.3054V102.879H72.0569V42.5885Z" fill="#00B871"/>
<path d="M66.8893 102.879H61.7216V27.9478H30.7155V102.879H25.5479V25.364C25.5479 23.9396 26.7073 22.7802 28.1317 22.7802H64.3055C65.733 22.7802 66.8893 23.9396 66.8893 25.364V102.879Z" fill="black"/>
<path d="M97.8952 105.463H92.7275V45.1723H73.7815V40.0046H95.3113C96.7389 40.0046 97.8952 41.1641 97.8952 42.5885V105.463Z" fill="black"/>
<path d="M41.0507 50.34H35.8831V60.6753H41.0507V50.34Z" fill="black"/>
<path d="M56.5539 50.34H51.3862V60.6753H56.5539V50.34Z" fill="black"/>
<path d="M41.0507 33.1155H35.8831V43.4508H41.0507V33.1155Z" fill="black"/>
<path d="M56.5539 33.1155H51.3862V43.4508H56.5539V33.1155Z" fill="black"/>
<path d="M41.0507 67.5677H35.8831V77.9031H41.0507V67.5677Z" fill="black"/>
<path d="M56.5539 67.5677H51.3862V77.9031H56.5539V67.5677Z" fill="black"/>
<path d="M41.0507 84.7922H35.8831V95.1276H41.0507V84.7922Z" fill="black"/>
<path d="M56.5539 84.7922H51.3862V95.1276H56.5539V84.7922Z" fill="black"/>
<path d="M77.2246 67.5677H72.0569V77.9031H77.2246V67.5677Z" fill="black"/>
<path d="M89.2846 67.5677H84.1169V77.9031H89.2846V67.5677Z" fill="black"/>
<path d="M77.2246 50.34H72.0569V60.6753H77.2246V50.34Z" fill="black"/>
<path d="M89.2846 50.34H84.1169V60.6753H89.2846V50.34Z" fill="black"/>
<path d="M77.2246 84.7922H72.0569V95.99H77.2246V84.7922Z" fill="black"/>
<path d="M89.2846 84.7922H84.1169V95.99H89.2846V84.7922Z" fill="black"/>
<path d="M115.123 100.295H4.87695V105.463H115.123V100.295Z" fill="black"/>
<path d="M46.8516 10.875L47.5469 5.0625H54.1953V7.10938H49.6875L49.4297 9.36719C49.6172 9.25781 49.862 9.16146 50.1641 9.07812C50.4714 8.99479 50.7708 8.95312 51.0625 8.95312C52.1927 8.95312 53.0599 9.28906 53.6641 9.96094C54.2734 10.6276 54.5781 11.5651 54.5781 12.7734C54.5781 13.5026 54.4141 14.1641 54.0859 14.7578C53.763 15.3464 53.3073 15.7995 52.7188 16.1172C52.1302 16.4349 51.4349 16.5938 50.6328 16.5938C49.9193 16.5938 49.25 16.4479 48.625 16.1562C48 15.8594 47.5104 15.4557 47.1562 14.9453C46.8021 14.4297 46.6276 13.849 46.6328 13.2031H49.2734C49.2995 13.6198 49.4323 13.9505 49.6719 14.1953C49.9115 14.4401 50.2266 14.5625 50.6172 14.5625C51.5026 14.5625 51.9453 13.9062 51.9453 12.5938C51.9453 11.3802 51.4036 10.7734 50.3203 10.7734C49.7057 10.7734 49.2474 10.9714 48.9453 11.3672L46.8516 10.875ZM63.8594 11.7891C63.8594 13.3255 63.513 14.5104 62.8203 15.3438C62.1328 16.1771 61.1615 16.5938 59.9062 16.5938C58.6406 16.5938 57.6615 16.1745 56.9688 15.3359C56.276 14.4974 55.9297 13.3151 55.9297 11.7891V9.71094C55.9297 8.17448 56.2734 6.98958 56.9609 6.15625C57.6536 5.32292 58.6302 4.90625 59.8906 4.90625C61.151 4.90625 62.1276 5.32552 62.8203 6.16406C63.513 7.0026 63.8594 8.1875 63.8594 9.71875V11.7891ZM61.2266 9.375C61.2266 8.55729 61.1198 7.94792 60.9062 7.54688C60.6927 7.14062 60.3542 6.9375 59.8906 6.9375C59.4375 6.9375 59.1068 7.125 58.8984 7.5C58.6953 7.875 58.5859 8.44271 58.5703 9.20312V12.1094C58.5703 12.9583 58.6771 13.5807 58.8906 13.9766C59.1042 14.3672 59.4427 14.5625 59.9062 14.5625C60.3542 14.5625 60.6849 14.3724 60.8984 13.9922C61.112 13.6068 61.2214 13.0052 61.2266 12.1875V9.375Z" fill="black"/>
<path d="M73.7071 16.7071C73.3166 17.0976 72.6834 17.0976 72.2929 16.7071L65.9289 10.3431C65.5384 9.95262 65.5384 9.31946 65.9289 8.92893C66.3195 8.53841 66.9526 8.53841 67.3431 8.92893L73 14.5858L78.6569 8.92893C79.0474 8.53841 79.6805 8.53841 80.0711 8.92893C80.4616 9.31946 80.4616 9.95262 80.0711 10.3431L73.7071 16.7071ZM74 -4.37114e-08L74 16L72 16L72 4.37114e-08L74 -4.37114e-08Z" fill="#DA2129"/>
</svg>
