<svg width="120" height="109" viewBox="0 0 120 109" fill="none" xmlns="http://www.w3.org/2000/svg">
<path d="M107.656 20.9705C107.656 44.7993 120 61.1642 120 72.6459C120 84.1275 113.398 108.244 60.5765 108.244C7.75454 108.244 0 75.7981 0 63.1699C0 4.03061 107.656 -21.2322 107.656 20.9705Z" fill="#F9F9F9"/>
<path d="M10.038 19.6689C8.89793 19.6689 7.79337 19.2943 6.87613 18.5805C5.78772 17.7343 5.09333 16.5103 4.92216 15.1441C4.75098 13.7779 5.12563 12.4214 5.96858 11.333C6.81477 10.2446 8.03883 9.55023 9.405 9.37905C10.7744 9.20788 12.1309 9.58253 13.2193 10.4287C14.3077 11.2749 15.0053 12.499 15.1733 13.8651C15.3444 15.2313 14.9698 16.5878 14.1236 17.6762C13.2774 18.7614 12.0534 19.4525 10.6872 19.6269C10.4708 19.656 10.2544 19.6689 10.038 19.6689ZM10.0477 12.7799C9.97666 12.7799 9.90561 12.7832 9.83455 12.7929C8.8947 12.9091 8.22292 13.7715 8.33919 14.7145C8.45546 15.6512 9.32103 16.3423 10.2609 16.2099C11.2007 16.0936 11.8725 15.2313 11.7562 14.2882C11.6464 13.4194 10.9068 12.7799 10.0477 12.7799Z" fill="#A4AFC1"/>
<path d="M88.423 25.6987H31.5801V92.8768H88.423V25.6987Z" fill="#F3F3F1"/>
<path d="M88.423 25.6987L81.5341 15.3636H38.4691L31.5801 25.6987H88.423Z" fill="#1DD375"/>
<path d="M71.199 92.8768H48.8042V88.5716C48.8042 82.3867 53.8167 77.3741 60.0016 77.3741C66.1865 77.3741 71.199 82.3867 71.199 88.5716V92.8768V92.8768Z" fill="#1DD375"/>
<path d="M39.3314 25.6987H31.5801V92.8768H39.3314V25.6987Z" fill="#D5DBE1"/>
<path d="M38.4691 15.3636L31.5801 25.6987H39.3314L46.2204 15.3636H38.4691Z" fill="#00B871"/>
<path d="M63.8773 78.1041C62.6661 77.6551 61.3678 77.3741 60.0016 77.3741C53.8167 77.3741 48.8042 82.3867 48.8042 88.5716V92.8768H56.5555V88.5716C56.5555 83.7528 59.6108 79.6866 63.8773 78.1041Z" fill="#00B871"/>
<path d="M86.2721 27.1328L80.1518 17.9474H39.8514L33.7311 27.1328L29.4324 24.2648L36.3214 13.9297C36.7994 13.2095 37.6068 12.7799 38.4723 12.7799H81.5373C82.4029 12.7799 83.2071 13.2095 83.6883 13.9297L90.5773 24.2648L86.2721 27.1328Z" fill="black"/>
<path d="M115.123 90.2931H4.88013V95.4606H115.123V90.2931Z" fill="black"/>
<path d="M77.2257 60H42.7776V65.1675H77.2257V60Z" fill="black"/>
<path d="M73.7828 92.8768H68.6153V88.5716C68.6153 83.8207 64.7493 79.9579 60.0016 79.9579C55.254 79.9579 51.388 83.8207 51.388 88.5716V92.8768H46.2205V88.5716C46.2205 80.9721 52.4021 74.7904 60.0016 74.7904C67.6012 74.7904 73.7828 80.9721 73.7828 88.5716V92.8768V92.8768Z" fill="black"/>
<path d="M91.0068 92.8768H85.8393V28.2825H34.1639V92.8768H28.9963V25.6988C28.9963 24.2745 30.1558 23.115 31.5801 23.115H88.4231C89.8474 23.115 91.0068 24.2745 91.0068 25.6988V92.8768Z" fill="black"/>
<rect x="51" y="41" width="19" height="5.17" fill="black"/>
<rect x="63" y="34" width="19" height="5.17" transform="rotate(90 63 34)" fill="black"/>
</svg>
