<svg width="121" height="109" viewBox="0 0 121 109" fill="none" xmlns="http://www.w3.org/2000/svg">
<path d="M12.5743 87.4143C12.5743 63.5849 0.22998 47.2195 0.22998 35.7375C0.22998 24.2556 6.8317 0.138672 59.6551 0.138672C112.478 0.138672 120.23 32.582 120.23 45.2105C120.233 104.355 12.5743 129.615 12.5743 87.4143Z" fill="#F9F9F9"/>
<path d="M20.1806 0H16.7344V6.88916H20.1806V0Z" fill="#A4AFC1"/>
<path d="M12.429 10.3354H5.53979V13.7816H12.429V10.3354Z" fill="#A4AFC1"/>
<path d="M98.9875 79.2368V45.6468L48.1731 36.1738V79.2368H98.9875Z" fill="#F3F3F1"/>
<path d="M48.1732 53.3982L24.179 58.8372C22.5964 59.1828 21.4724 60.5845 21.4724 62.2026V75.7936C21.4724 77.696 23.0163 79.2366 24.9186 79.2366H48.1732V53.3982Z" fill="#1DD375"/>
<path d="M24.1143 58.6595L27.5023 15.5029H37.8377L40.9415 54.9808L24.1143 58.6595Z" fill="#F3F3F1"/>
<path d="M92.0985 74.0691C92.0985 70.2612 89.014 67.1799 85.2061 67.1799H83.4846C79.6767 67.1799 76.5955 70.2644 76.5955 74.0691V81.8206C76.5955 86.1033 80.0643 89.5721 84.347 89.5721C88.6297 89.5721 92.0985 86.1033 92.0985 81.8206V74.0691Z" fill="#1DD375"/>
<path d="M69.7031 95.6022L71.2437 89.9371C72.4129 87.602 74.7965 86.126 77.4062 86.126H91.2814C93.8943 86.126 96.2779 87.5988 97.4439 89.9371L98.9845 95.6022H69.7031Z" fill="#1DD375"/>
<path d="M48.1731 36.1738V79.2368H55.9246V37.6175L48.1731 36.1738Z" fill="#D5DBE1"/>
<path d="M29.2239 75.7938V62.2028C29.2239 60.5847 30.3511 59.1862 31.9305 58.8374L48.1699 55.1586V53.4016L24.179 58.8374C22.5964 59.183 21.4724 60.5847 21.4724 62.2028V75.7938C21.4724 77.6962 23.0163 79.2368 24.9186 79.2368H32.6701C30.7678 79.2368 29.2239 77.6962 29.2239 75.7938Z" fill="#00B871"/>
<path d="M35.2538 15.5029H27.5023L24.1143 58.6595L32.0014 56.9348L35.2538 15.5029Z" fill="#D5DBE1"/>
<path d="M84.347 81.8206V74.0691C84.347 71.3528 85.936 69.0241 88.2227 67.9034C87.3087 67.4545 86.2913 67.1799 85.2061 67.1799H83.4846C79.6767 67.1799 76.5955 70.2644 76.5955 74.0691V81.8206C76.5955 86.1033 80.0643 89.5721 84.347 89.5721C85.7649 89.5721 87.0794 89.1619 88.2227 88.4966C85.9134 87.1562 84.347 84.6855 84.347 81.8206Z" fill="#00B871"/>
<path d="M85.1577 86.1292H77.4062C74.7933 86.1292 72.4097 87.6019 71.2437 89.9403L69.7031 95.6054H77.4546L78.9953 89.9403C80.1644 87.6019 82.5513 86.1292 85.1577 86.1292Z" fill="#00B871"/>
<path d="M61.9515 81.8205H48.1732C46.7456 81.8205 45.5894 80.6642 45.5894 79.2366V36.1737C45.5894 35.405 45.9349 34.6751 46.5228 34.1842C47.1138 33.6965 47.8954 33.493 48.648 33.6319L99.4657 43.1081C100.683 43.3342 101.575 44.4032 101.575 45.6467V66.3174H96.407V47.7945L50.7603 39.2808V76.6528H61.9548V81.8205H61.9515Z" fill="black"/>
<path d="M61.0925 57.7068H59.3678C57.9434 57.7068 56.7839 56.5473 56.7839 55.123V53.3983C56.7839 51.974 57.9434 50.8145 59.3678 50.8145H61.0925C62.5168 50.8145 63.6763 51.974 63.6763 53.3983V55.123C63.6763 56.5473 62.5168 57.7068 61.0925 57.7068Z" fill="black"/>
<path d="M74.8708 57.7068H73.1493C71.7249 57.7068 70.5654 56.5473 70.5654 55.123V53.3983C70.5654 51.974 71.7249 50.8145 73.1493 50.8145H74.8708C76.2983 50.8145 77.4546 51.974 77.4546 53.3983V55.123C77.4546 56.5473 76.2983 57.7068 74.8708 57.7068Z" fill="black"/>
<path d="M61.0925 71.4851H59.3678C57.9434 71.4851 56.7839 70.3288 56.7839 68.9013V67.1798C56.7839 65.7554 57.9434 64.5959 59.3678 64.5959H61.0925C62.5168 64.5959 63.6763 65.7554 63.6763 67.1798V68.9013C63.6763 70.3288 62.5168 71.4851 61.0925 71.4851Z" fill="black"/>
<path d="M88.6522 57.7068H86.9308C85.5032 57.7068 84.3469 56.5473 84.3469 55.123V53.3983C84.3469 51.974 85.5032 50.8145 86.9308 50.8145H88.6522C90.0766 50.8145 91.2361 51.974 91.2361 53.3983V55.123C91.2361 56.5473 90.0766 57.7068 88.6522 57.7068Z" fill="black"/>
<path d="M48.173 81.8206H24.9185C21.5918 81.8206 18.8884 79.1173 18.8884 75.7938V62.2028C18.8884 59.3961 20.878 56.9188 23.6298 56.3149L47.6014 50.8823C48.9934 50.5691 50.379 51.4411 50.6923 52.8299C51.0088 54.222 50.1335 55.6075 48.7447 55.9208L24.7537 61.3598C24.3436 61.4503 24.0561 61.8023 24.0561 62.2028V75.7938C24.0561 76.2686 24.4437 76.6529 24.9185 76.6529H48.173C49.5974 76.6529 50.7569 77.8124 50.7569 79.2368C50.7569 80.6643 49.5974 81.8206 48.173 81.8206Z" fill="black"/>
<path d="M39.5592 66.3174H29.2239V71.4851H39.5592V66.3174Z" fill="black"/>
<path d="M24.1208 61.2435C24.0498 61.2435 23.982 61.2402 23.9141 61.237C22.4898 61.1207 21.4272 59.8805 21.5402 58.4562L24.9251 15.2996C25.0316 13.956 26.1524 12.9192 27.5024 12.9192H37.8378C39.1879 12.9192 40.3086 13.956 40.4152 15.2996L43.5158 54.7774C43.6256 56.1985 42.563 57.4388 41.1419 57.555C39.7466 57.6455 38.4805 56.6055 38.361 55.1811L35.4477 18.0836H29.8893L26.695 58.8599C26.5852 60.2164 25.4547 61.2435 24.1208 61.2435Z" fill="black"/>
<path d="M43.0054 12.9192H22.3347V18.0869H43.0054V12.9192Z" fill="black"/>
<path d="M98.1253 73.21H70.5654V78.3776H98.1253V73.21Z" fill="black"/>
<path d="M84.3468 92.156C78.6495 92.156 74.0115 87.518 74.0115 81.8206V76.7789C74.0115 75.3513 75.1677 74.1951 76.5953 74.1951C78.0197 74.1951 79.1792 75.3513 79.1792 76.7789V81.8206C79.1792 84.6693 81.4982 86.9883 84.3468 86.9883C87.1955 86.9883 89.5145 84.6693 89.5145 81.8206V76.7789C89.5145 75.3513 90.6708 74.1951 92.0984 74.1951C93.5227 74.1951 94.6822 75.3513 94.6822 76.7789V81.8206C94.6822 87.5212 90.0442 92.156 84.3468 92.156Z" fill="black"/>
<path d="M92.0984 79.3626C90.6708 79.3626 89.5145 78.2031 89.5145 76.7788V74.069C89.5145 71.695 87.5831 69.7636 85.206 69.7636H83.4845C81.1106 69.7636 79.1792 71.695 79.1792 74.069V76.7788C79.1792 78.2031 78.0197 79.3626 76.5953 79.3626C75.1677 79.3626 74.0115 78.2031 74.0115 76.7788V74.069C74.0115 68.8431 78.2587 64.5959 83.4845 64.5959H85.206C90.4318 64.5959 94.6822 68.8431 94.6822 74.069V76.7788C94.6822 78.2031 93.5227 79.3626 92.0984 79.3626Z" fill="black"/>
<path d="M86.9306 61.1499H81.7629V72.3476H86.9306V61.1499Z" fill="black"/>
<path d="M97.8345 96.4837L95.1376 91.0932C94.1428 89.1004 93.2869 88.7128 92.1468 88.7128H89.563V83.5452H92.1468C97.1401 83.5452 99.1103 87.4888 99.7627 88.7839L102.456 94.1712L97.8345 96.4837Z" fill="black"/>
<path d="M70.8591 96.4837L66.2405 94.1712L68.9341 88.7839C69.5801 87.4888 71.5535 83.5452 76.5468 83.5452H79.1306V88.7128H76.5468C75.4067 88.7128 74.5508 89.1004 73.556 91.09L70.8591 96.4837Z" fill="black"/>
</svg>
