<svg width="120" height="110" viewBox="0 0 120 110" fill="none" xmlns="http://www.w3.org/2000/svg">
<path d="M107.656 22.2819C107.656 46.1107 120 62.4756 120 73.9573C120 85.4389 113.398 109.555 60.5765 109.555C7.75452 109.555 0 77.1127 0 64.4845C0 5.342 107.656 -19.9208 107.656 22.2819Z" fill="#F9F9F9"/>
<path d="M94.1172 2.4352L96.5524 0L101.423 4.87041L98.9876 7.30561L94.1172 2.4352Z" fill="#A4AFC1"/>
<path d="M108.121 16.4425L110.556 14.0073L115.427 18.8777L112.991 21.3129L108.121 16.4425Z" fill="#A4AFC1"/>
<path d="M107.52 4.87041L112.391 0L114.826 2.4352L109.955 7.30561L107.52 4.87041Z" fill="#A4AFC1"/>
<path d="M72.058 68.3503H21.2449V83.853H72.058V68.3503Z" fill="#F3F3F1"/>
<path d="M54.8342 16.675H37.6101V68.3505H54.8342V16.675Z" fill="#F3F3F1"/>
<path d="M37.61 26.1477H28.134V68.3504H37.61V26.1477Z" fill="#1DD375"/>
<path d="M91.8691 75.2393C91.8691 71.4315 88.7847 68.3503 84.9769 68.3503H83.2554C79.4508 68.3503 76.3665 71.4347 76.3665 75.2393V82.9906C76.3665 87.2732 79.8352 90.7419 84.1178 90.7419C88.4004 90.7419 91.8691 87.2732 91.8691 82.9906V75.2393Z" fill="#1DD375"/>
<path d="M69.4744 96.7719L71.0149 91.107C72.1841 88.7719 74.5676 87.2959 77.1772 87.2959H91.0521C93.6649 87.2959 96.0485 88.7686 97.2144 91.107L98.755 96.7719H69.4744Z" fill="#1DD375"/>
<path d="M28.9962 68.3503H21.2449V83.853H28.9962V68.3503Z" fill="#D5DBE1"/>
<path d="M45.3614 16.675H37.6101V68.3505H45.3614V16.675Z" fill="#D5DBE1"/>
<path d="M35.8853 26.1477H28.134V68.3504H35.8853V26.1477Z" fill="#00B871"/>
<path d="M84.1178 82.9906V75.2393C84.1178 72.5231 85.7068 70.1945 87.9934 69.0738C87.0794 68.6249 86.0621 68.3503 84.9769 68.3503H83.2554C79.4508 68.3503 76.3665 71.4347 76.3665 75.2393V82.9906C76.3665 87.2732 79.8352 90.7419 84.1178 90.7419C85.5356 90.7419 86.8501 90.3318 87.9934 89.6665C85.6842 88.3229 84.1178 85.8554 84.1178 82.9906Z" fill="#00B871"/>
<path d="M84.9317 87.2991H77.1804C74.5676 87.2991 72.184 88.7718 71.0181 91.1101L69.4775 96.7751H77.2289L78.7694 91.1101C79.9354 88.7718 82.3221 87.2991 84.9317 87.2991Z" fill="#00B871"/>
<path d="M61.7229 86.4368H21.2449C19.8206 86.4368 18.6611 85.2773 18.6611 83.853V68.3504C18.6611 66.9261 19.8206 65.7666 21.2449 65.7666H65.169V70.9341H23.8287V81.2692H61.7229V86.4368Z" fill="black"/>
<path d="M54.8339 70.9343H37.6099C36.1824 70.9343 35.0261 69.7748 35.0261 68.3505V16.6751C35.0261 15.2508 36.1824 14.0913 37.6099 14.0913H54.8339C56.2582 14.0913 57.4177 15.2508 57.4177 16.6751V68.3505C57.4177 69.7748 56.2615 70.9343 54.8339 70.9343ZM40.1937 65.7667H52.2502V19.2589H40.1937V65.7667Z" fill="black"/>
<path d="M28.1341 70.9342C26.7098 70.9342 25.5503 69.7747 25.5503 68.3504V26.1477C25.5503 24.7234 26.7098 23.564 28.1341 23.564H37.61C39.0343 23.564 40.1938 24.7234 40.1938 26.1477C40.1938 27.5753 39.0343 28.7315 37.61 28.7315H30.7178V68.3504C30.7178 69.7747 29.5616 70.9342 28.1341 70.9342Z" fill="black"/>
<path d="M37.61 39.0667H28.1341C26.7098 39.0667 25.5503 37.9105 25.5503 36.4829C25.5503 35.0586 26.7098 33.8992 28.1341 33.8992H37.61C39.0343 33.8992 40.1938 35.0586 40.1938 36.4829C40.1938 37.9105 39.0343 39.0667 37.61 39.0667Z" fill="black"/>
<path d="M37.61 49.4017H28.1341C26.7098 49.4017 25.5503 48.2454 25.5503 46.8179C25.5503 45.3936 26.7098 44.2341 28.1341 44.2341H37.61C39.0343 44.2341 40.1938 45.3936 40.1938 46.8179C40.1938 48.2454 39.0343 49.4017 37.61 49.4017Z" fill="black"/>
<path d="M37.61 59.7369H28.1341C26.7098 59.7369 25.5503 58.5806 25.5503 57.1531C25.5503 55.7288 26.7098 54.5693 28.1341 54.5693H37.61C39.0343 54.5693 40.1938 55.7288 40.1938 57.1531C40.1938 58.5806 39.0343 59.7369 37.61 59.7369Z" fill="black"/>
<path d="M57.4179 54.5693H46.2205V59.7369H57.4179V54.5693Z" fill="black"/>
<path d="M57.4179 44.2341H46.2205V49.4017H57.4179V44.2341Z" fill="black"/>
<path d="M57.4179 33.8992H46.2205V39.0667H57.4179V33.8992Z" fill="black"/>
<path d="M57.4179 23.564H46.2205V28.7315H57.4179V23.564Z" fill="black"/>
<path d="M97.8958 74.3804H70.3367V79.5479H97.8958V74.3804Z" fill="black"/>
<path d="M84.1178 93.3259C78.4206 93.3259 73.7827 88.688 73.7827 82.9908V77.9492C73.7827 76.5217 74.939 75.3655 76.3665 75.3655C77.7908 75.3655 78.9503 76.5217 78.9503 77.9492V82.9908C78.9503 85.8394 81.2692 88.1584 84.1178 88.1584C86.9664 88.1584 89.2853 85.8394 89.2853 82.9908V77.9492C89.2853 76.5217 90.4416 75.3655 91.8691 75.3655C93.2934 75.3655 94.4529 76.5217 94.4529 77.9492V82.9908C94.4529 88.6913 89.815 93.3259 84.1178 93.3259Z" fill="black"/>
<path d="M91.8691 80.5329C90.4416 80.5329 89.2853 79.3734 89.2853 77.9491V75.2394C89.2853 72.8655 87.354 70.9341 84.9769 70.9341H83.2555C80.8816 70.9341 78.9503 72.8655 78.9503 75.2394V77.9491C78.9503 79.3734 77.7908 80.5329 76.3665 80.5329C74.939 80.5329 73.7827 79.3734 73.7827 77.9491V75.2394C73.7827 70.0137 78.0298 65.7666 83.2555 65.7666H84.9769C90.2026 65.7666 94.4529 70.0137 94.4529 75.2394V77.9491C94.4529 79.3734 93.2934 80.5329 91.8691 80.5329Z" fill="black"/>
<path d="M86.7017 62.3206H81.5342V73.518H86.7017V62.3206Z" fill="black"/>
<path d="M97.6053 97.6536L94.9085 92.2632C93.9137 90.2704 93.0578 89.8829 91.9178 89.8829H89.334V84.7153H91.9178C96.9109 84.7153 98.881 88.6588 99.5302 89.9539L102.224 95.3411L97.6053 97.6536Z" fill="black"/>
<path d="M70.6307 97.6536L66.0122 95.3411L68.7058 89.9539C69.3517 88.6588 71.3251 84.7153 76.3182 84.7153H78.902V89.8829H76.3182C75.1781 89.8829 74.3222 90.2704 73.3275 92.2599L70.6307 97.6536Z" fill="black"/>
</svg>
