<svg width="120" height="109" viewBox="0 0 120 109" fill="none" xmlns="http://www.w3.org/2000/svg">
<path d="M12.3443 87.2757C12.3443 63.4462 0 47.0808 0 35.5989C0 24.1169 6.60171 0 59.4251 0C112.249 0 120 32.4434 120 45.0719C120.003 104.216 12.3443 129.479 12.3443 87.2757Z" fill="#F9F9F9"/>
<path d="M10.0478 12.7836C7.19912 12.7836 4.88013 10.4646 4.88013 7.61592C4.88013 4.76724 7.19912 2.44824 10.0478 2.44824C12.8965 2.44824 15.2155 4.76724 15.2155 7.61592C15.2155 10.4646 12.8965 12.7836 10.0478 12.7836ZM10.0478 5.89444C9.10148 5.89444 8.3263 6.66636 8.3263 7.61592C8.3263 8.56549 9.10148 9.33741 10.0478 9.33741C10.9941 9.33741 11.7725 8.56549 11.7725 7.61592C11.7725 6.66636 10.9941 5.89444 10.0478 5.89444Z" fill="#A4AFC1"/>
<path d="M38.47 25.7029C34.6621 25.7029 31.5808 28.7873 31.5808 32.592V85.9936C31.5808 89.8015 34.6653 92.8827 38.47 92.8827H81.5362C85.3441 92.8827 88.4253 89.7983 88.4253 85.9936V32.592C88.4253 28.7841 85.3409 25.7029 81.5362 25.7029H38.47Z" fill="#F3F3F1"/>
<path d="M74.6439 22.2566V29.149C74.6439 31.0513 73.1001 32.592 71.201 32.592H48.8055C46.9032 32.592 45.3625 31.0481 45.3625 29.149V22.2566H53.1141C53.1141 18.468 56.2147 15.3674 60.0032 15.3674C63.7918 15.3674 66.8924 18.468 66.8924 22.2566H74.6439Z" fill="#1DD375"/>
<path d="M67.7516 56.7087C67.7516 52.9008 64.6671 49.8196 60.8624 49.8196H59.1377C55.3298 49.8196 52.2485 52.904 52.2485 56.7087V64.4603C52.2485 68.743 55.7173 72.2118 60.0001 72.2118C64.2828 72.2118 67.7516 68.743 67.7516 64.4603V56.7087Z" fill="#1DD375"/>
<path d="M45.3594 78.2419L46.9 72.5768C48.0692 70.2416 50.4528 68.7656 53.0624 68.7656H66.9409C69.5506 68.7656 71.9342 70.2416 73.1034 72.5768L74.644 78.2419H45.3594Z" fill="#1DD375"/>
<path d="M39.3294 85.9936V32.592C39.3294 28.7841 42.4138 25.7029 46.2186 25.7029H38.467C34.6591 25.7029 31.5779 28.7873 31.5779 32.592V85.9936C31.5779 89.8015 34.6623 92.8827 38.467 92.8827H46.2186C42.4138 92.8827 39.3294 89.7983 39.3294 85.9936Z" fill="#D5DBE1"/>
<path d="M63.8758 16.5721C62.768 15.8131 61.4373 15.3674 60 15.3674C56.2115 15.3674 53.1108 18.468 53.1108 22.2566H60.8624C60.8624 19.9053 62.0606 17.8189 63.8758 16.5721Z" fill="#00B871"/>
<path d="M53.1109 29.149V22.2566H45.3594V29.149C45.3594 31.0513 46.9032 32.592 48.8024 32.592H56.5539C54.6548 32.592 53.1109 31.0513 53.1109 29.149Z" fill="#00B871"/>
<path d="M60.0001 64.4603V56.7087C60.0001 53.9925 61.5891 51.6638 63.8758 50.5431C62.9618 50.0941 61.9476 49.8196 60.8624 49.8196H59.1377C55.3298 49.8196 52.2485 52.904 52.2485 56.7087V64.4603C52.2485 68.743 55.7173 72.2118 60.0001 72.2118C61.4212 72.2118 62.7325 71.8016 63.8758 71.1363C61.5697 69.7927 60.0001 67.3219 60.0001 64.4603Z" fill="#00B871"/>
<path d="M60.814 68.7656H53.0624C50.4528 68.7656 48.0692 70.2416 46.9 72.5768L45.3594 75.658H53.1109L54.6515 72.5768C55.8175 70.2416 58.2043 68.7656 60.814 68.7656Z" fill="#00B871"/>
<path d="M81.533 95.4664H38.4701C33.2443 95.4664 28.9971 91.2193 28.9971 85.9934V32.5919C28.9971 27.3661 33.2443 23.1189 38.4701 23.1189H44.9588V28.2866H38.4701C36.0962 28.2866 34.1648 30.218 34.1648 32.5919V85.9934C34.1648 88.3673 36.0962 90.2988 38.4701 90.2988H81.5363C83.9102 90.2988 85.8416 88.3673 85.8416 85.9934V32.5919C85.8416 30.218 83.9102 28.2866 81.5363 28.2866H75.0476V23.1189H81.5363C86.7621 23.1189 91.0093 27.3661 91.0093 32.5919V85.9934C91.006 91.2193 86.7588 95.4664 81.533 95.4664Z" fill="black"/>
<path d="M71.1976 35.1759H48.8022C45.4787 35.1759 42.7754 32.4726 42.7754 29.1491V22.2567C42.7754 20.8324 43.9317 19.6729 45.3592 19.6729H50.8854C52.0158 15.7002 55.672 12.7837 59.9999 12.7837C64.3279 12.7837 67.9872 15.7034 69.1144 19.6729H74.6406C76.0682 19.6729 77.2245 20.8324 77.2245 22.2567V29.1491C77.2277 32.4726 74.5211 35.1759 71.1976 35.1759ZM47.9431 24.8405V29.1491C47.9431 29.6239 48.3307 30.0082 48.8022 30.0082H71.1976C71.6724 30.0082 72.0568 29.6206 72.0568 29.1491V24.8405H66.8891C65.4648 24.8405 64.3053 23.6843 64.3053 22.2567C64.3053 19.8828 62.3738 17.9514 59.9999 17.9514C57.626 17.9514 55.6946 19.8828 55.6946 22.2567C55.6946 23.6843 54.5351 24.8405 53.1108 24.8405H47.9431Z" fill="black"/>
<path d="M73.7848 55.8464H46.2217V61.0141H73.7848V55.8464Z" fill="black"/>
<path d="M59.9999 74.7958C54.2993 74.7958 49.6646 70.1611 49.6646 64.4605V59.4155H54.8322V64.4605C54.8322 67.3092 57.1512 69.6282 59.9999 69.6282C62.8486 69.6282 65.1676 67.3092 65.1676 64.4605V59.4155H70.3353V64.4605C70.3353 70.1611 65.7005 74.7958 59.9999 74.7958Z" fill="black"/>
<path d="M70.3353 59.4154H65.1676V56.7088C65.1676 54.3349 63.2361 52.4035 60.8622 52.4035H59.1375C56.7636 52.4035 54.8322 54.3349 54.8322 56.7088V59.4154H49.6646V56.7088C49.6646 51.4863 53.9117 47.2358 59.1375 47.2358H60.8622C66.0881 47.2358 70.3353 51.4863 70.3353 56.7088V59.4154Z" fill="black"/>
<path d="M62.5839 43.7896H57.4163V54.9873H62.5839V43.7896Z" fill="black"/>
<path d="M73.4908 79.1236L70.7907 73.7331C69.7959 71.7435 68.94 71.3527 67.7999 71.3527H65.2161V66.1851H67.7999C72.7932 66.1851 74.7634 70.1254 75.4158 71.4206L78.1094 76.8111L73.4908 79.1236Z" fill="black"/>
<path d="M46.5124 79.1236L41.8938 76.8111L44.5874 71.4206C45.2334 70.1254 47.2101 66.1851 52.2001 66.1851H54.7839V71.3527H52.2001C51.06 71.3527 50.2041 71.7435 49.2093 73.7331L46.5124 79.1236Z" fill="black"/>
</svg>
