<svg width="120" height="110" viewBox="0 0 120 110" fill="none" xmlns="http://www.w3.org/2000/svg">
<path d="M107.656 88.5814C107.656 64.7526 120 48.3876 120 36.906C120 25.4244 113.398 1.30811 60.5765 1.30811C7.75455 1.30811 0 33.7506 0 46.3788C0 105.521 107.656 130.781 107.656 88.5814Z" fill="#F9F9F9"/>
<path d="M94.1299 2.44814L96.5651 0.0129395L101.436 4.88335L99.0003 7.31855L94.1299 2.44814Z" fill="#A4AFC1"/>
<path d="M108.131 16.4555L110.566 14.0203L115.436 18.8907L113.001 21.3259L108.131 16.4555Z" fill="#A4AFC1"/>
<path d="M107.514 4.87041L112.388 0L114.823 2.4352L109.952 7.30561L107.514 4.87041Z" fill="#A4AFC1"/>
<path d="M91.0067 49.3984H63.4476C59.165 49.3984 55.6963 45.9297 55.6963 41.6471C55.6963 37.3645 59.165 33.8958 63.4476 33.8958H91.0067C95.2893 33.8958 98.7581 37.3645 98.7581 41.6471C98.7581 45.9329 95.2861 49.3984 91.0067 49.3984Z" fill="#1DD375"/>
<path d="M84.977 16.6719H69.4744V33.0368H84.977V16.6719Z" fill="#1DD375"/>
<path d="M21.2451 58.0122V87.296H30.7179L37.6101 61.8491C37.6068 61.8491 32.5846 58.0122 21.2451 58.0122Z" fill="#1DD375"/>
<path d="M90.1444 76.0984C85.6745 76.0984 80.4811 78.2624 75.5041 79.79V78.3043C75.5041 75.0294 73.1949 72.2066 69.991 71.551L36.8154 64.7654L31.7512 83.4719C38.3657 86.5724 55.2474 94.1848 63.4444 94.1848C73.7795 94.1848 98.7548 80.4037 98.7548 80.4037C98.7548 80.4037 97.0334 76.0984 90.1444 76.0984Z" fill="#F3F3F1"/>
<path d="M63.4444 41.6471C63.4444 37.3645 66.9131 33.8958 71.1957 33.8958H63.4444C59.1618 33.8958 55.6931 37.3645 55.6931 41.6471C55.6931 45.9297 59.1618 49.3984 63.4444 49.3984H71.1957C66.9131 49.3984 63.4444 45.9329 63.4444 41.6471Z" fill="#00B871"/>
<path d="M77.2257 16.6719H69.4744V33.0368H77.2257V16.6719Z" fill="#00B871"/>
<path d="M21.2451 58.0122V87.296H28.9964V58.7001C26.839 58.2997 24.2843 58.0122 21.2451 58.0122Z" fill="#00B871"/>
<path d="M39.5025 83.4719L44.1598 66.2672L36.8154 64.7654L31.7512 83.4719C38.3657 86.5724 55.2474 94.1848 63.4444 94.1848C64.5296 94.1848 65.7989 94.0072 67.1586 93.7327C58.335 92.0726 45.1675 86.1267 39.5025 83.4719Z" fill="#D5DBE1"/>
<path d="M30.7179 89.8798H21.2451C19.8208 89.8798 18.6614 88.7204 18.6614 87.296V58.0122C18.6614 56.5879 19.8208 55.4285 21.2451 55.4285C33.321 55.4285 38.944 59.6206 39.1765 59.7983C40.0098 60.4345 40.378 61.5132 40.1034 62.5274L33.2112 87.9743C32.9044 89.0982 31.8871 89.8798 30.7179 89.8798ZM23.8289 84.7123H28.7413L34.5903 63.1087C32.7881 62.2561 29.2645 60.99 23.8225 60.6735V84.7123H23.8289Z" fill="black"/>
<path d="M63.4445 96.7686C55.6609 96.7686 41.3177 90.8098 30.65 85.8069C29.3581 85.1998 28.7994 83.6656 29.4065 82.3738C30.0137 81.0786 31.5478 80.5167 32.8462 81.1335C47.0408 87.79 58.1898 91.601 63.4445 91.601C70.4304 91.601 86.2915 84.0564 94.6015 79.7028C93.6455 79.1537 92.218 78.6822 90.1445 78.6822C87.1215 78.6822 83.3815 79.9256 79.7642 81.1335C75.7562 82.4706 71.6124 83.8497 67.7497 83.8497C60.4893 83.8497 50.9067 80.3939 50.503 80.2486C49.1627 79.7609 48.4715 78.2785 48.9592 76.9381C49.4501 75.5978 50.9293 74.9131 52.2664 75.3911C52.3569 75.4266 61.4033 78.6822 67.7497 78.6822C70.7759 78.6822 74.5127 77.4387 78.13 76.2308C82.1381 74.8937 86.2818 73.5146 90.1445 73.5146C98.6871 73.5146 101.058 79.2022 101.155 79.4476C101.639 80.6588 101.148 82.0379 100.005 82.6677C98.9649 83.2425 74.3222 96.7686 63.4445 96.7686Z" fill="black"/>
<path d="M75.5042 82.4384C74.0799 82.4384 72.9205 81.2821 72.9205 79.8546V78.3043C72.9205 76.2696 71.4703 74.4933 69.4744 74.0799L36.2987 67.2942C34.9003 67.01 34.0024 65.6439 34.2866 64.2454C34.5741 62.8469 35.9402 61.9394 37.3355 62.2333L70.5111 69.0189C74.9003 69.92 78.0912 73.8215 78.0912 78.3011V79.8514C78.088 81.2821 76.9285 82.4384 75.5042 82.4384Z" fill="black"/>
<path d="M91.0068 51.9822H63.4476C57.7472 51.9822 53.1125 47.3475 53.1125 41.6471C53.1125 35.9499 57.7472 31.312 63.4476 31.312H91.0068C96.704 31.312 101.342 35.9499 101.342 41.6471C101.342 47.3475 96.704 51.9822 91.0068 51.9822ZM63.4444 36.4796C60.5958 36.4796 58.2769 38.7985 58.2769 41.6471C58.2769 44.4957 60.5958 46.8146 63.4444 46.8146H91.0035C93.8522 46.8146 96.1711 44.4957 96.1711 41.6471C96.1711 38.7985 93.8522 36.4796 91.0035 36.4796H63.4444Z" fill="black"/>
<path d="M64.3069 45.0933C62.4078 45.0933 60.864 43.5463 60.864 41.6472C60.864 39.7481 62.4111 38.2043 64.3069 38.2043C66.206 38.2043 67.753 39.7514 67.753 41.6472C67.753 43.5463 66.206 45.0933 64.3069 45.0933Z" fill="black"/>
<path d="M77.2256 45.0933C75.3265 45.0933 73.7827 43.5463 73.7827 41.6472C73.7827 39.7481 75.3298 38.2043 77.2256 38.2043C79.1247 38.2043 80.6717 39.7514 80.6717 41.6472C80.6717 43.5463 79.1247 45.0933 77.2256 45.0933Z" fill="black"/>
<path d="M90.1445 45.0933C88.2455 45.0933 86.7017 43.5463 86.7017 41.6472C86.7017 39.7481 88.2487 38.2043 90.1445 38.2043C92.0436 38.2043 93.5906 39.7514 93.5906 41.6472C93.5906 43.5463 92.0436 45.0933 90.1445 45.0933Z" fill="black"/>
<path d="M84.977 35.6206C83.5527 35.6206 82.3932 34.4612 82.3932 33.0369V19.2557H72.0582V33.0369C72.0582 34.4612 70.9019 35.6206 69.4744 35.6206C68.0501 35.6206 66.8906 34.4612 66.8906 33.0369V16.6719C66.8906 15.2476 68.0501 14.0881 69.4744 14.0881H84.977C86.4046 14.0881 87.5608 15.2476 87.5608 16.6719V33.0369C87.5608 34.4612 86.4046 35.6206 84.977 35.6206Z" fill="black"/>
</svg>
