<svg width="90" height="90" viewBox="0 0 90 90" fill="none" xmlns="http://www.w3.org/2000/svg">
<circle cx="45" cy="45" r="45" fill="#EDEDED"/>
<g clip-path="url(#clip0)">
<path d="M44.2281 39.32L33.319 50.2291C32.8927 50.6545 32.8927 51.3464 33.319 51.7718C33.7454 52.1982 34.4354 52.1982 34.8618 51.7718L45 41.6336L55.1381 51.7709C55.5645 52.1973 56.2554 52.1973 56.6809 51.7709C56.8936 51.5582 57.0009 51.2791 57.0009 51C57.0009 50.7209 56.8945 50.4418 56.6809 50.2291L45.7718 39.32C45.5663 39.1155 45.289 39 45 39C44.7109 39 44.4327 39.1155 44.2281 39.32Z" fill="black"/>
</g>
<defs>
<clipPath id="clip0">
<rect width="24" height="13.0909" fill="white" transform="translate(33 39)"/>
</clipPath>
</defs>
</svg>
