<svg width="58" height="54" viewBox="0 0 58 54" fill="none" xmlns="http://www.w3.org/2000/svg">
<g clip-path="url(#clip0)">
<path d="M5.9598 30.9914C5.30272 30.9914 4.76782 30.4565 4.76782 29.7994V25.3295C4.76782 15.9919 10.2241 8.00562 18.6707 4.98545C19.2935 4.7709 19.973 5.08528 20.1935 5.70809C20.4155 6.32792 20.0936 7.00883 19.4708 7.23084C11.9867 9.90533 7.15177 17.0125 7.15177 25.3295V29.7994C7.15177 30.4565 6.61687 30.9914 5.9598 30.9914Z" fill="black"/>
<path d="M46.0102 21.5345C45.4663 21.5345 44.9776 21.165 44.851 20.6152C44.7511 20.1905 44.6439 19.7882 44.5321 19.3994C43.6649 16.3911 42.4432 14.4363 39.6957 11.647C37.5546 9.47616 35.5655 8.1635 33.0489 7.25611C32.4291 7.03262 32.1073 6.34872 32.3308 5.72889C32.5572 5.11205 33.2337 4.79617 33.858 5.01073C36.7306 6.04775 38.9835 7.53027 41.3913 9.96934C44.4218 13.0417 45.8418 15.3362 46.8222 18.7378C46.9429 19.1625 47.0606 19.6005 47.1708 20.0684C47.3213 20.709 46.925 21.3512 46.2843 21.5017C46.1919 21.524 46.0981 21.5345 46.0102 21.5345Z" fill="black"/>
<path d="M23.9885 35.7593H3.57592C1.6047 35.7593 0 34.1546 0 32.1833C0 30.2121 1.6047 28.6074 3.57592 28.6074H26.3724C27.0295 28.6074 27.5644 29.1423 27.5644 29.7994C27.5644 30.4565 27.0295 30.9914 26.3724 30.9914H3.57592C2.92034 30.9914 2.38395 31.5278 2.38395 32.1833C2.38395 32.8389 2.92034 33.3753 3.57592 33.3753H23.9885C24.6456 33.3753 25.1805 33.9102 25.1805 34.5673C25.1805 35.2244 24.6456 35.7593 23.9885 35.7593Z" fill="black"/>
<path d="M33.3753 22.6475C32.7182 22.6475 32.1833 22.1126 32.1833 21.4555V5.95987C32.1833 3.98865 30.5786 2.38395 28.6074 2.38395H23.8395C21.8683 2.38395 20.2636 3.98865 20.2636 5.95987V21.4555C20.2636 22.1126 19.7287 22.6475 19.0716 22.6475C18.4145 22.6475 17.8796 22.1126 17.8796 21.4555V5.95987C17.8796 2.673 20.5526 0 23.8395 0H28.6074C31.8943 0 34.5673 2.673 34.5673 5.95987V21.4555C34.5673 22.1126 34.0324 22.6475 33.3753 22.6475Z" fill="black"/>
<path d="M42.5042 53.6002C33.9607 53.6002 27.0085 46.648 27.0085 38.1046C27.0085 29.5611 33.9607 22.6089 42.5042 22.6089C51.0477 22.6089 57.9999 29.5611 57.9999 38.1046C57.9999 46.648 51.0492 53.6002 42.5042 53.6002ZM42.5042 24.9928C35.2764 24.9928 29.3925 30.8767 29.3925 38.1046C29.3925 45.3324 35.2764 51.2163 42.5042 51.2163C49.7321 51.2163 55.6159 45.3324 55.6159 38.1046C55.6159 30.8767 49.7336 24.9928 42.5042 24.9928Z" fill="black"/>
<path d="M40.1203 44.0642C39.8029 44.0642 39.5004 43.9376 39.277 43.7155L34.5091 38.9476C34.0442 38.4828 34.0442 37.7274 34.5091 37.2625C34.9739 36.7976 35.7293 36.7976 36.1942 37.2625L40.0607 41.129L47.5656 32.5512C47.9992 32.0536 48.7532 32.0089 49.2463 32.4395C49.7425 32.873 49.7917 33.624 49.3581 34.1201L41.0143 43.6559C40.7967 43.9033 40.4868 44.0523 40.159 44.0627C40.1471 44.0642 40.1352 44.0642 40.1203 44.0642Z" fill="#0A8D4A"/>
</g>
<defs>
<clipPath id="clip0">
<rect width="58" height="53.6001" fill="white"/>
</clipPath>
</defs>
</svg>
