<svg width="45" height="54" viewBox="0 0 45 54" fill="none" xmlns="http://www.w3.org/2000/svg">
<g clip-path="url(#clip0)">
<path d="M22.3333 36.85C19.2555 36.85 16.75 34.3445 16.75 31.2667C16.75 28.1889 19.2555 25.6833 22.3333 25.6833C25.4111 25.6833 27.9167 28.1889 27.9167 31.2667C27.9167 34.3445 25.4111 36.85 22.3333 36.85ZM22.3333 27.9167C20.4866 27.9167 18.9833 29.42 18.9833 31.2667C18.9833 33.1134 20.4866 34.6167 22.3333 34.6167C24.18 34.6167 25.6833 33.1134 25.6833 31.2667C25.6833 29.42 24.18 27.9167 22.3333 27.9167Z" fill="#0A8D4A"/>
<path d="M24.0642 45.7835H20.6025C19.4635 45.7835 18.5213 44.9167 18.4138 43.7665L18.1375 40.9232C17.4898 40.6245 16.8714 40.2546 16.2852 39.8177L13.7811 40.9818C12.7356 41.4662 11.5184 41.0684 10.9489 40.0522L9.21947 36.9702C8.66672 35.9806 8.93193 34.7299 9.83643 34.0599L12.0698 32.4072C12.0279 32.0583 11.9958 31.6716 11.9958 31.2654C11.9958 30.8593 12.0265 30.4726 12.0698 30.1237L9.83643 28.471C8.93193 27.801 8.66672 26.5503 9.21808 25.5607L10.9489 22.4759C11.5156 21.4667 12.7356 21.0619 13.7811 21.5491L16.2852 22.7132C16.8686 22.2763 17.4884 21.9078 18.1375 21.6077L18.4138 18.763C18.5227 17.6142 19.4663 16.7488 20.6025 16.7488H24.0642C25.2032 16.7488 26.1454 17.6156 26.2528 18.7658L26.5292 21.6091C27.1797 21.9092 27.798 22.2777 28.3815 22.7146L30.8856 21.5504C31.9353 21.0703 33.1496 21.4639 33.7164 22.4801L35.4458 25.5621C35.9985 26.5517 35.7333 27.8024 34.8288 28.4724L32.5955 30.1251C32.6374 30.474 32.6695 30.8621 32.6695 31.2668C32.6695 31.6716 32.6388 32.0597 32.5955 32.4086L34.8288 34.0613C35.7333 34.7285 35.9985 35.9806 35.4458 36.9688L33.715 40.0536C33.1496 41.0656 31.9353 41.462 30.8856 40.9804L28.3815 39.8163C27.798 40.2546 27.1783 40.6231 26.5292 40.9218L26.2528 43.7665C26.1454 44.9181 25.2032 45.7835 24.0642 45.7835ZM16.4443 37.3987C16.7081 37.3987 16.9663 37.4923 17.1715 37.6681C17.9043 38.3004 18.7125 38.7848 19.5752 39.1086C19.9758 39.258 20.2521 39.6195 20.294 40.0438L20.636 43.553L24.0642 43.5502L24.3726 40.0438C24.4145 39.6195 24.6923 39.2552 25.0915 39.1086C25.9541 38.782 26.7609 38.3004 27.4937 37.6681C27.8259 37.382 28.2949 37.3178 28.6927 37.5006L31.825 38.9565L33.4972 35.8787L30.7279 33.8059C30.3901 33.556 30.2212 33.1373 30.2896 32.7227C30.3705 32.2481 30.4347 31.7666 30.4347 31.2682C30.4347 30.7699 30.3705 30.2884 30.2896 29.8152C30.2198 29.3992 30.3873 28.9791 30.7279 28.732L33.5 26.6787L31.7678 23.5716L28.6941 25.0344C28.2963 25.2201 27.8259 25.1531 27.4937 24.8669C26.7637 24.2374 25.9555 23.7517 25.0901 23.4264C24.6909 23.2771 24.4131 22.9156 24.3712 22.4912L24.0321 18.9821L20.6025 18.9835L20.294 22.4898C20.2521 22.9142 19.9744 23.2785 19.5752 23.4251C18.7125 23.7517 17.9057 24.2332 17.1715 24.8656C16.8393 25.1517 16.3703 25.2159 15.9725 25.0331L12.8417 23.5772L11.1695 26.655L13.9388 28.7278C14.2766 28.9777 14.4455 29.395 14.3771 29.811C14.2947 30.287 14.2319 30.7671 14.2319 31.2668C14.2319 31.7666 14.2961 32.2467 14.3771 32.7199C14.4469 33.1359 14.2794 33.5546 13.9388 33.8031L11.1667 35.8563L12.8989 38.9635L15.9725 37.5006C16.1219 37.4308 16.2852 37.3987 16.4443 37.3987Z" fill="#0A8D4A"/>
<path d="M39.0833 53.6H5.58333C2.50552 53.6 0 51.0945 0 48.0167V5.58333C0 2.50692 2.50552 0 5.58333 0H30.15C30.7656 0 31.2667 0.501104 31.2667 1.11667V10.05C31.2667 11.8967 32.77 13.4 34.6167 13.4H43.55C44.1656 13.4 44.6667 13.9011 44.6667 14.5167V48.0167C44.6667 51.0945 42.1611 53.6 39.0833 53.6ZM5.58333 2.23333C3.73665 2.23333 2.23333 3.73665 2.23333 5.58333V48.0167C2.23333 49.8634 3.73665 51.3667 5.58333 51.3667H39.0833C40.93 51.3667 42.4333 49.8634 42.4333 48.0167V15.6333H34.6167C31.5389 15.6333 29.0333 13.1278 29.0333 10.05V2.23333H5.58333Z" fill="black"/>
<path d="M43.5501 15.6334H34.6168C31.539 15.6334 29.0334 13.1278 29.0334 10.05V1.1167C29.0334 0.665846 29.3056 0.256867 29.7244 0.0851791C30.1445 -0.0893001 30.6219 0.00840823 30.9416 0.326658L44.3416 13.7267C44.6612 14.0463 44.7575 14.5265 44.583 14.9438C44.41 15.3612 44.001 15.6334 43.5501 15.6334ZM31.2668 3.81345V10.05C31.2668 11.8967 32.7701 13.4 34.6168 13.4H40.8548L31.2668 3.81345Z" fill="black"/>
</g>
<defs>
<clipPath id="clip0">
<rect width="44.6681" height="53.6" fill="white"/>
</clipPath>
</defs>
</svg>
