<svg width="45" height="54" viewBox="0 0 45 54" fill="none" xmlns="http://www.w3.org/2000/svg">
<path d="M33.5 31.2668C29.8067 31.2668 26.8 28.2601 26.8 24.5668V21.2168C26.8 20.6012 27.3012 20.1001 27.9167 20.1001H39.0834C39.6989 20.1001 40.2 20.6012 40.2 21.2168V24.5668C40.2 28.2601 37.1934 31.2668 33.5 31.2668ZM29.0334 22.3334V24.5668C29.0334 27.0304 31.0364 29.0334 33.5 29.0334C35.9637 29.0334 37.9667 27.0304 37.9667 24.5668V22.3334H29.0334Z" fill="black"/>
<path d="M43.5502 33.5C43.1384 33.5 42.7462 33.2739 42.5494 32.8845L41.5513 30.8857C40.9818 29.7439 39.8317 29.0334 38.5559 29.0334C37.9403 29.0334 37.4392 28.5323 37.4392 27.9167C37.4392 27.3012 37.9403 26.8 38.5559 26.8C40.6845 26.8 42.5954 27.9809 43.5502 29.8862L44.5482 31.8851C44.8246 32.4364 44.5998 33.1064 44.0471 33.3828C43.8894 33.4624 43.7191 33.5 43.5502 33.5Z" fill="black"/>
<path d="M23.45 33.5C23.2825 33.5 23.1136 33.4624 22.9517 33.3814C22.4004 33.105 22.1756 32.435 22.4506 31.8823L23.45 29.8848C24.4034 27.9823 26.3157 26.8 28.4443 26.8C29.0599 26.8 29.561 27.3012 29.561 27.9167C29.561 28.5323 29.0599 29.0334 28.4443 29.0334C27.1685 29.0334 26.0212 29.7439 25.4489 30.8857L24.4509 32.8845C24.2513 33.2739 23.859 33.5 23.45 33.5Z" fill="black"/>
<path d="M34.6167 44.6667H1.11667C0.501104 44.6667 0 44.1656 0 43.55C0 42.9345 0.501104 42.4333 1.11667 42.4333H34.6167C35.2322 42.4333 35.7333 42.9345 35.7333 43.55C35.7333 44.1656 35.2322 44.6667 34.6167 44.6667Z" fill="black"/>
<path d="M30.15 53.6H5.58333C2.50552 53.6 0 51.0945 0 48.0167V5.58333C0 2.50552 2.50552 0 5.58333 0H30.15C33.2278 0 35.7333 2.50552 35.7333 5.58333C35.7333 6.1989 35.2322 6.7 34.6167 6.7C34.0011 6.7 33.5 6.1989 33.5 5.58333C33.5 3.73665 31.9967 2.23333 30.15 2.23333H5.58333C3.73665 2.23333 2.23333 3.73665 2.23333 5.58333V48.0167C2.23333 49.8634 3.73665 51.3667 5.58333 51.3667H30.15C31.9967 51.3667 33.5 49.8634 33.5 48.0167V35.4542C33.5 34.8386 34.0011 34.3375 34.6167 34.3375C35.2322 34.3375 35.7333 34.8386 35.7333 35.4542V48.0167C35.7333 51.0945 33.2278 53.6 30.15 53.6Z" fill="black"/>
<path d="M41.5802 19.0434V18.3552C41.5802 15.1057 39.7991 12.2931 36.9837 11.0173C36.6808 9.87273 35.6381 9.02686 34.4 9.02686H34.2353H32.7613H32.5966C31.3585 9.02686 30.3172 9.87413 30.0129 11.0173C27.2003 12.2903 25.4164 15.1029 25.4164 18.3552V19.0434C24.5915 19.1508 23.9536 19.8557 23.9536 20.71C23.9536 21.6368 24.7088 22.392 25.6356 22.392H30.7639H32.6469H41.3582C42.2851 22.392 43.0402 21.6368 43.0402 20.71C43.043 19.8557 42.4037 19.1508 41.5802 19.0434ZM29.9236 13.4544V17.025C29.9236 17.5973 30.3884 18.0621 30.9607 18.0621C30.9886 18.0621 31.0151 18.0607 31.043 18.0579C31.0696 18.0607 31.0975 18.0621 31.1254 18.0621C31.6977 18.0621 32.1625 17.5973 32.1625 17.025V11.7013C32.1625 11.3705 32.4319 11.1011 32.7627 11.1011H34.2367C34.5675 11.1011 34.8369 11.3705 34.8369 11.7013V17.0236C34.8369 17.5959 35.3017 18.0607 35.874 18.0607C35.9019 18.0607 35.9285 18.0593 35.9564 18.0565C35.9829 18.0593 36.0108 18.0607 36.0387 18.0607C36.611 18.0607 37.0758 17.5959 37.0758 17.0236V13.4544C38.5861 14.5348 39.5046 16.3285 39.5046 18.3552V19.028H33.5304C33.5206 19.028 33.5095 19.0294 33.4997 19.0294C33.4899 19.0294 33.4788 19.028 33.469 19.028H27.4948V18.3552C27.4948 16.3285 28.4133 14.5348 29.9236 13.4544Z" fill="#0A8D4A"/>
</svg>
