<svg width="14" height="24" viewBox="0 0 14 24" fill="none" xmlns="http://www.w3.org/2000/svg">
<g clip-path="url(#clip0)">
<path d="M12.7708 12.7719L1.86173 23.681C1.43628 24.1073 0.744457 24.1073 0.319002 23.681C-0.107362 23.2546 -0.107362 22.5646 0.319002 22.1382L10.4572 12L0.319913 1.86187C-0.10645 1.4355 -0.10645 0.744596 0.319913 0.319141C0.532641 0.106412 0.811731 -0.000860751 1.09082 -0.000860739C1.36991 -0.000860727 1.649 0.105504 1.86173 0.319141L12.7708 11.2282C12.9754 11.4337 13.0908 11.711 13.0908 12C13.0908 12.2891 12.9754 12.5673 12.7708 12.7719Z" fill="#00934B"/>
</g>
<defs>
<clipPath id="clip0">
<rect width="24" height="13.0909" fill="white" transform="matrix(4.37114e-08 -1 -1 -4.37114e-08 13.0908 24)"/>
</clipPath>
</defs>
</svg>
